{"glyphs":{"0":{"ha":565,"x_min":0,"x_max":565,"o":"m 288 -3 q 431 88 368 -3 q 530 313 494 179 q 565 578 565 447 q 461 1108 565 956 q 261 1222 382 1222 q 151 1194 197 1222 q 81 1122 106 1165 q 57 1032 57 1078 q 92 950 57 988 q 28 706 47 815 q 4 527 8 597 q 0 440 0 457 q 33 219 0 306 q 115 83 67 132 q 211 16 164 35 q 288 -3 258 -3 m 271 204 l 268 206 q 257 215 265 207 q 211 288 228 244 q 192 369 193 346 q 186 450 189 381 l 189 525 q 204 697 192 618 q 261 950 207 750 l 272 961 q 353 642 304 913 q 360 544 360 583 q 319 313 360 428 q 303 265 308 276 q 271 204 294 240 z "},"1":{"ha":356,"x_min":0,"x_max":356,"o":"m 256 -76 q 326 -44 297 -76 q 356 29 356 -11 q 351 58 356 39 q 286 128 339 107 q 282 385 282 201 q 299 976 282 678 l 301 1040 q 285 1118 301 1093 q 248 1151 268 1143 q 217 1158 228 1158 q 143 1117 169 1158 q 131 1088 136 1100 q 120 1067 125 1076 q 89 1038 115 1057 q 59 1017 63 1018 q 54 1017 56 1017 q 16 989 32 1008 q 0 946 0 969 q 21 896 0 919 q 75 872 42 872 q 110 878 89 872 q 92 300 92 651 l 93 181 l 92 90 q 69 42 69 71 q 111 -25 69 1 q 161 -60 131 -49 q 256 -76 206 -76 z "},"2":{"ha":538,"x_min":0,"x_max":538,"o":"m 136 -46 q 196 -29 167 -46 q 297 -32 243 -32 q 410 -26 354 -32 q 501 6 465 -19 q 538 86 538 31 q 510 164 538 122 q 433 206 482 206 q 391 201 425 206 q 316 190 357 197 q 240 176 275 183 q 235 200 238 189 q 231 219 233 211 q 228 231 229 226 q 228 238 228 235 l 228 239 q 229 235 229 238 l 229 236 q 226 292 226 253 q 228 314 226 311 l 228 326 l 226 329 q 268 469 244 422 l 264 457 q 335 600 297 532 q 410 749 378 674 q 442 911 442 824 q 409 1049 442 996 q 327 1128 376 1103 q 228 1154 278 1154 q 131 1133 176 1154 q 42 1085 85 1113 q 11 1031 11 1064 q 33 983 11 1000 q 74 967 56 967 q 106 976 88 967 q 197 997 140 993 q 221 995 213 997 q 243 979 229 993 l 251 950 l 251 919 q 249 890 250 907 q 226 813 249 872 q 160 688 196 746 q 73 518 114 614 q 10 265 32 422 l 11 283 l 8 263 q 3 213 6 242 q 0 161 0 185 q 13 47 0 103 q 28 10 14 32 q 70 -28 43 -11 q 136 -46 97 -46 z "},"3":{"ha":535,"x_min":0,"x_max":535,"o":"m 190 -54 q 341 -1 261 -54 q 478 144 421 53 q 535 344 535 235 q 506 477 535 407 q 415 601 476 547 q 260 671 354 654 q 365 854 333 790 q 396 983 396 918 q 371 1093 396 1043 q 297 1174 346 1143 q 175 1204 249 1204 q 103 1197 126 1204 l 79 1189 l 85 1192 q 54 1168 65 1185 q 43 1132 43 1151 q 59 1094 43 1108 q 115 1064 75 1079 l 119 1063 q 135 1054 122 1061 q 165 1036 149 1047 l 174 1029 q 197 1006 196 1011 q 197 994 197 1001 q 194 967 197 976 l 192 957 q 133 849 167 903 q 38 664 88 779 l 26 642 q 0 567 0 593 q 8 540 0 554 q 25 515 15 526 q 42 497 35 504 q 50 489 50 490 q 78 482 50 488 q 199 447 118 474 l 247 418 q 250 401 250 410 q 230 326 250 357 q 176 267 210 294 l 171 263 q 126 231 156 254 q 72 170 97 207 q 46 85 46 133 q 91 -17 46 21 q 190 -54 136 -54 z "},"4":{"ha":589,"x_min":0,"x_max":589,"o":"m 343 -28 q 238 122 238 -28 q 243 208 238 146 q 194 203 211 206 q 128 199 176 201 q 76 210 107 199 q 23 250 46 221 q 0 335 0 279 q 124 728 0 390 q 269 1093 240 1047 q 299 1138 279 1119 q 346 1157 318 1157 q 402 1133 375 1157 q 429 1054 429 1108 q 418 903 429 971 q 399 546 399 743 q 401 414 399 479 q 442 424 415 419 q 483 428 469 428 q 561 394 533 428 q 589 322 589 361 q 559 248 589 278 q 483 215 529 218 l 446 214 l 425 215 q 438 134 432 175 q 443 79 443 93 q 417 6 443 40 q 343 -28 390 -28 m 206 382 l 247 388 l 249 488 l 206 382 z "},"5":{"ha":418,"x_min":0,"x_max":418,"o":"m 161 -33 q 90 -11 115 -33 q 56 37 65 11 q 47 74 47 63 q 63 123 47 89 q 124 190 78 157 q 154 224 143 208 l 165 240 q 190 285 176 256 q 215 378 213 353 l 217 381 q 219 447 219 407 q 212 560 219 518 q 197 621 204 603 l 189 639 l 186 643 q 181 651 185 646 q 175 660 178 656 l 172 664 l 146 646 q 100 626 118 626 q 46 643 71 626 q 14 690 21 660 l 8 714 q 0 760 0 736 q 5 850 0 774 q 17 1003 10 926 q 31 1103 24 1079 l 31 1113 q 81 1197 31 1176 q 217 1218 132 1218 q 299 1197 272 1218 q 334 1149 326 1175 q 342 1108 342 1122 q 333 1069 342 1093 q 297 1025 324 1044 q 218 1006 269 1006 l 176 1007 l 188 899 l 190 840 q 388 636 335 832 q 418 414 418 519 q 385 190 418 292 q 294 27 353 88 q 161 -33 236 -33 z "},"6":{"ha":508,"x_min":0,"x_max":508,"o":"m 244 -40 q 329 -17 283 -40 q 403 61 375 7 l 418 81 q 437 101 419 81 q 478 176 454 122 q 503 244 497 222 q 508 300 508 265 q 493 383 508 349 q 374 515 451 476 q 224 554 296 554 l 203 553 q 292 879 219 685 q 339 976 322 947 q 393 1090 356 1006 q 406 1135 406 1111 l 404 1150 q 367 1217 399 1199 q 328 1228 346 1228 q 312 1226 319 1228 q 297 1224 304 1225 l 292 1221 q 216 1146 264 1221 q 119 948 168 1071 q 35 678 69 825 q 0 389 0 532 q 70 72 0 185 q 244 -40 140 -40 m 288 181 q 258 197 271 185 q 238 222 246 208 q 226 246 229 236 l 222 256 q 278 251 238 256 q 304 226 304 249 q 300 206 304 217 q 292 188 296 194 l 288 181 z "},"7":{"ha":421,"x_min":0,"x_max":421,"o":"m 118 -18 q 52 8 82 -18 q 22 69 22 35 q 82 403 22 175 q 199 821 142 632 q 256 1033 256 1010 q 139 1043 208 1043 l 96 1042 q 25 1060 50 1042 q 0 1104 0 1078 q 30 1158 0 1142 q 113 1181 60 1175 q 236 1189 165 1188 q 347 1161 300 1189 q 421 1011 421 1119 q 405 878 421 946 q 363 724 389 811 q 229 164 281 458 l 224 126 q 211 56 219 89 q 182 3 203 24 q 118 -18 161 -18 z "},"8":{"ha":501,"x_min":0,"x_max":501,"o":"m 217 -42 q 313 -22 272 -42 q 380 22 354 -3 q 418 67 406 47 l 408 53 l 432 83 q 478 228 478 147 q 444 382 478 299 q 338 621 419 444 l 351 639 q 411 723 376 671 q 474 839 446 775 q 501 967 501 903 q 474 1081 501 1025 q 394 1173 446 1136 q 274 1210 343 1210 q 163 1178 213 1210 q 83 1101 113 1146 q 54 1017 54 1057 q 58 989 54 1003 q 46 890 46 954 q 122 579 46 772 q 0 231 0 390 q 24 106 0 169 q 95 1 47 43 q 217 -42 143 -42 m 265 790 q 246 867 251 833 l 240 890 q 238 946 238 931 q 244 965 238 957 q 250 982 250 972 l 272 989 l 286 981 q 304 961 300 969 l 306 958 q 313 929 310 950 l 313 896 q 297 850 310 885 l 265 790 m 207 147 l 197 147 q 194 148 196 147 q 190 151 192 149 q 185 158 189 154 q 179 169 182 163 q 168 233 172 185 q 170 275 168 269 q 172 283 172 281 q 190 356 179 324 q 203 392 200 388 l 207 383 q 251 233 246 299 q 249 200 251 215 q 247 181 247 185 l 247 178 l 247 175 q 230 154 243 161 q 207 147 217 147 z "},"9":{"ha":544,"x_min":0,"x_max":544,"o":"m 242 -39 q 415 89 340 -39 q 515 425 490 217 q 544 725 544 614 q 516 955 544 851 q 428 1119 488 1058 q 274 1179 368 1179 q 149 1142 201 1179 q 64 1049 97 1106 q 15 928 31 992 q 0 808 0 864 q 33 650 0 708 q 108 563 65 592 q 190 524 151 533 q 238 515 228 515 q 276 519 258 515 q 261 460 272 494 q 149 213 217 304 q 117 160 129 185 q 106 99 106 135 q 145 0 106 39 q 242 -39 185 -39 m 290 731 q 247 750 257 731 q 246 751 247 751 q 236 810 236 779 q 238 839 236 825 q 251 901 238 844 l 271 938 q 299 736 299 892 l 290 731 z "},"\u0000":{"ha":0,"x_min":0,"x_max":0,"o":""},"\u001d":{"ha":0,"x_min":0,"x_max":0,"o":""}," ":{"ha":556,"x_min":0,"x_max":0,"o":""}," ":{"ha":556,"x_min":0,"x_max":0,"o":""},"!":{"ha":256,"x_min":28,"x_max":228,"o":"m 131 285 q 60 314 82 285 q 33 399 39 343 q 28 531 28 454 l 28 597 q 37 889 28 775 q 60 1067 46 1003 q 90 1160 74 1132 q 122 1195 106 1189 q 149 1201 138 1201 q 228 1069 228 1201 l 225 1014 q 214 686 214 869 q 222 435 214 488 l 225 399 q 206 325 225 349 q 165 293 188 301 q 131 285 143 285 m 128 -61 q 75 -49 103 -61 q 31 24 31 -28 q 46 71 31 53 q 53 85 46 74 q 106 115 69 115 l 113 115 q 139 119 126 119 q 195 101 176 119 q 220 62 214 83 q 226 32 226 40 q 209 -23 226 -3 q 168 -52 192 -43 q 128 -61 144 -61 z "},"\"":{"ha":404,"x_min":28,"x_max":376,"o":"m 106 956 q 56 976 72 956 q 33 1026 39 997 q 28 1082 28 1056 l 28 1125 q 32 1205 28 1169 q 53 1260 36 1240 q 108 1281 71 1281 q 159 1259 143 1281 q 179 1203 175 1238 q 183 1132 183 1169 l 183 1082 q 106 956 183 956 m 310 981 q 249 1015 261 981 q 235 1101 238 1049 q 231 1145 233 1124 q 228 1185 228 1167 q 248 1242 228 1226 q 283 1258 268 1258 q 326 1240 313 1258 q 356 1161 350 1211 l 363 1132 q 376 1040 376 1065 q 356 996 376 1011 q 310 981 335 981 z "},"#":{"ha":1324,"x_min":28,"x_max":1296,"o":"m 703 -79 q 673 -72 688 -79 q 643 -47 658 -65 q 628 1 628 -28 q 639 47 628 22 q 757 303 713 204 q 460 318 597 313 q 322 11 385 129 q 222 -79 274 -79 q 192 -72 207 -79 q 163 -47 178 -65 q 147 1 147 -28 q 158 47 147 22 q 288 326 243 228 q 132 335 189 331 q 28 407 28 343 q 71 454 28 438 q 356 478 126 478 l 440 674 q 233 685 304 679 q 129 757 129 693 q 172 804 129 788 q 419 828 221 825 l 503 826 q 639 1157 625 1126 q 722 1236 675 1236 q 742 1232 738 1236 q 772 1176 772 1222 q 669 821 772 1099 q 974 803 800 815 l 1119 1157 q 1203 1236 1156 1236 q 1222 1232 1218 1236 q 1253 1176 1253 1222 q 1190 932 1253 1115 q 1139 793 1171 874 q 1296 725 1296 783 q 1290 701 1296 714 q 1129 633 1258 633 q 1076 636 1104 633 q 994 446 1040 549 l 1013 444 q 1185 378 1185 435 q 1178 353 1185 367 q 1000 288 1144 288 q 929 290 967 288 q 802 11 850 101 q 703 -79 754 -79 m 826 456 q 910 650 854 518 l 608 667 l 526 472 q 826 456 654 468 z "},"$":{"ha":521,"x_min":28,"x_max":493,"o":"m 282 -60 q 234 -38 253 -60 q 213 11 215 -17 l 211 53 q 80 106 132 64 q 28 208 28 149 q 53 281 28 258 q 109 308 79 303 q 150 313 139 313 q 201 304 189 313 l 203 304 l 199 442 l 192 453 q 89 649 129 560 q 49 832 49 738 q 78 964 49 915 q 142 1035 108 1013 q 194 1063 176 1058 l 196 1156 q 213 1201 197 1186 q 247 1222 229 1217 q 269 1226 264 1226 q 317 1205 297 1226 q 338 1156 338 1183 l 338 1049 q 446 940 418 1000 q 478 849 474 879 l 481 835 q 493 767 493 790 q 491 743 493 754 q 487 724 489 732 q 483 717 485 717 l 485 724 q 429 682 463 682 q 396 692 408 682 q 368 722 383 703 q 353 757 364 731 q 343 785 343 783 l 336 796 l 339 585 q 447 385 424 432 q 476 265 476 321 q 449 157 476 199 q 391 94 421 115 q 353 71 361 74 l 356 8 q 328 -44 356 -29 q 282 -60 300 -60 z "},"%":{"ha":778,"x_min":28,"x_max":750,"o":"m 175 833 q 158 844 164 833 l 157 861 q 158 883 157 872 q 167 913 160 894 q 189 961 174 931 q 208 924 204 936 q 213 897 213 911 q 203 849 213 857 q 192 838 199 843 q 175 833 185 833 m 574 86 q 565 108 568 86 q 571 137 565 111 q 585 195 576 163 q 603 250 593 228 q 628 217 624 232 q 635 181 633 201 q 625 133 635 151 q 605 103 615 114 q 592 90 594 92 q 589 88 589 89 l 574 86 m 174 700 q 245 717 206 700 q 314 771 285 733 q 343 872 343 808 q 301 1004 343 940 l 354 1003 q 438 1042 438 1003 q 382 1089 438 1074 l 168 1101 q 140 1089 151 1101 q 125 1060 128 1076 q 28 863 28 976 q 37 805 28 844 q 78 733 46 765 q 174 700 110 700 m 576 3 q 651 23 611 3 q 721 86 692 43 q 750 197 750 129 q 738 276 750 231 q 700 356 726 321 q 631 390 674 390 q 575 367 585 390 l 565 368 q 494 325 518 363 q 458 240 469 288 q 446 163 446 192 q 460 74 446 106 q 528 8 483 17 q 576 3 542 4 m 221 -104 q 172 -79 190 -104 q 154 -26 154 -54 q 195 147 154 8 q 301 467 236 286 q 440 824 367 649 q 581 1117 514 999 q 693 1235 649 1235 q 735 1178 735 1235 l 735 1167 q 695 1052 735 1151 q 608 838 656 953 q 533 651 561 722 q 340 85 382 246 q 290 -66 310 -28 q 221 -104 269 -104 z "},"&":{"ha":921,"x_min":28,"x_max":893,"o":"m 390 94 q 233 163 288 100 q 200 232 208 189 q 194 264 194 260 l 196 285 q 210 338 196 310 l 218 354 q 328 481 239 401 q 528 140 411 268 q 390 94 453 94 m 428 765 q 424 842 424 794 q 436 933 426 915 q 453 965 449 961 q 458 972 457 969 q 519 997 481 997 q 538 986 535 994 q 542 977 542 978 q 546 971 543 976 q 550 956 550 958 q 551 944 550 953 q 549 917 549 919 q 545 904 549 914 q 519 860 542 894 q 428 765 497 825 m 796 -74 q 857 -51 832 -74 q 882 8 882 -28 q 861 63 882 42 q 808 107 840 85 q 760 143 785 122 q 817 249 786 179 q 870 430 847 318 q 893 708 893 542 q 878 772 893 750 q 844 800 863 793 q 813 807 825 807 q 753 784 779 807 q 726 725 726 761 q 717 526 726 581 l 717 508 q 640 265 685 344 q 467 586 525 408 q 586 683 529 631 q 681 799 643 736 q 718 942 718 863 q 661 1097 718 1029 q 515 1164 604 1164 q 362 1112 418 1164 q 281 984 306 1060 q 257 838 257 908 q 278 653 257 753 q 172 562 229 617 q 71 431 114 507 q 28 258 28 356 q 80 89 28 164 q 215 -28 132 14 q 390 -71 299 -71 q 510 -51 457 -71 q 599 -10 564 -32 q 647 21 635 11 q 796 -74 757 -74 z "},"'":{"ha":161,"x_min":28,"x_max":133,"o":"m 78 950 q 47 960 58 950 q 32 984 36 971 q 28 1006 28 997 q 31 1031 28 1017 q 36 1073 33 1046 q 39 1149 39 1100 l 39 1171 q 52 1201 39 1189 q 83 1214 65 1214 q 126 1176 119 1214 q 133 1081 133 1139 q 123 984 133 1018 q 78 950 113 950 z "},"(":{"ha":1097,"x_min":25,"x_max":1075,"o":"m 953 888 q 830 894 949 888 q 551 914 711 900 q 231 950 390 928 q 74 981 122 963 q 25 1056 25 999 q 121 1131 25 1131 q 551 1111 190 1131 q 1029 1069 978 1088 q 1075 986 1075 1047 q 1047 920 1075 953 q 953 888 1019 888 m 135 403 q 78 427 94 403 q 61 471 61 451 q 68 508 61 494 q 110 535 75 522 q 447 607 163 553 q 907 696 821 676 q 957 703 932 703 q 1046 657 1021 703 q 1060 607 1060 629 q 1033 539 1060 561 q 914 501 1006 517 q 329 429 856 492 q 135 403 142 403 m 419 40 q 349 122 351 40 q 441 183 349 150 q 653 247 533 217 q 871 296 774 276 q 976 315 968 315 q 1056 276 1033 315 q 1071 232 1071 253 q 904 125 1071 147 l 419 40 z "},")":{"ha":1140,"x_min":33,"x_max":1108,"o":"m 226 821 q 840 888 496 821 q 1032 935 990 918 q 1086 1017 1086 957 q 1078 1053 1086 1031 q 1050 1092 1071 1075 q 990 1108 1029 1108 q 890 1088 971 1108 q 154 954 714 1039 q 66 938 99 949 q 33 888 33 926 q 50 842 33 861 q 94 822 67 824 l 226 821 m 633 486 q 347 492 451 486 q 190 510 242 497 q 125 540 139 522 q 111 582 111 557 q 197 650 111 644 q 988 688 264 651 q 1084 656 1060 688 q 1108 594 1108 624 q 1012 500 1108 514 q 633 486 915 486 m 906 29 q 296 126 760 29 l 160 154 q 124 178 138 160 q 111 218 111 197 q 130 264 111 243 q 172 285 149 285 q 521 254 221 285 q 903 221 846 221 l 918 221 q 1051 125 1051 221 q 1042 90 1051 113 q 1002 48 1033 67 q 906 29 971 29 z "},"*":{"ha":321,"x_min":28,"x_max":293,"o":"m 247 969 q 212 981 226 969 q 171 1019 197 992 l 153 1038 l 147 1031 q 116 1002 133 1015 q 78 989 99 989 q 56 1001 64 989 q 49 1026 49 1013 q 63 1057 49 1040 q 37 1070 46 1063 q 28 1093 28 1078 q 42 1120 28 1114 q 71 1126 56 1126 q 60 1167 60 1146 q 90 1194 60 1194 q 167 1153 125 1194 l 188 1172 q 231 1213 211 1196 q 269 1229 251 1229 q 286 1222 279 1229 q 293 1206 293 1215 q 276 1166 293 1188 q 235 1119 258 1144 q 280 1101 268 1114 q 292 1078 292 1088 q 275 1047 292 1060 q 289 1010 289 1032 q 276 981 289 993 q 247 969 264 969 z "},"+":{"ha":606,"x_min":28,"x_max":578,"o":"m 274 94 q 208 185 208 94 q 210 229 208 208 q 213 283 213 250 l 194 283 q 128 286 167 283 q 59 303 90 289 q 28 351 28 318 q 55 397 28 383 q 119 415 82 411 q 189 418 156 418 l 214 419 l 214 463 l 213 531 q 231 608 213 583 q 275 632 250 632 q 322 599 307 632 q 341 524 336 567 q 347 446 346 481 l 347 429 q 474 435 401 433 q 513 430 488 435 q 558 406 538 425 q 578 347 578 388 q 553 292 578 314 q 494 268 528 271 l 463 267 q 347 274 406 267 l 347 243 q 342 167 346 200 q 323 114 338 133 q 274 94 308 94 z "},",":{"ha":254,"x_min":28,"x_max":226,"o":"m 75 -153 q 42 -138 56 -153 q 28 -106 28 -124 q 40 -77 28 -86 q 70 -61 53 -68 q 102 -43 88 -54 q 121 -11 117 -32 q 96 36 101 25 q 85 59 90 47 q 81 82 81 71 q 89 115 81 103 q 140 144 108 144 q 176 132 161 144 q 200 100 200 122 l 199 97 q 226 24 226 57 q 167 -107 221 -61 q 75 -153 113 -153 z "},"-":{"ha":569,"x_min":28,"x_max":542,"o":"m 446 282 q 208 286 293 282 q 83 299 122 290 q 36 319 44 307 q 28 350 28 332 q 119 404 28 404 q 347 402 263 404 q 474 394 432 400 q 528 376 515 388 q 542 343 542 364 q 510 292 542 301 q 446 282 478 282 z "},"­":{"ha":569,"x_min":28,"x_max":542,"o":"m 446 282 q 208 286 293 282 q 83 299 122 290 q 36 319 44 307 q 28 350 28 332 q 119 404 28 404 q 347 402 263 404 q 474 394 432 400 q 528 376 515 388 q 542 343 542 364 q 510 292 542 301 q 446 282 478 282 z "},".":{"ha":244,"x_min":28,"x_max":217,"o":"m 136 -53 q 79 -25 100 -53 q 42 6 57 -15 q 28 50 28 26 q 51 102 28 82 q 106 122 75 122 q 181 93 146 122 q 217 26 217 64 q 192 -28 217 -4 q 136 -53 168 -53 z "},"/":{"ha":751,"x_min":28,"x_max":724,"o":"m 64 -81 q 201 99 96 -81 q 425 515 306 279 q 634 948 544 751 q 724 1179 724 1144 q 714 1202 724 1192 q 692 1213 704 1213 q 575 1024 678 1213 q 346 592 472 835 q 124 156 219 349 q 28 -43 28 -36 q 39 -70 28 -60 q 64 -81 50 -81 z "},":":{"ha":244,"x_min":28,"x_max":217,"o":"m 136 432 q 79 460 100 432 q 42 490 57 469 q 28 535 28 511 q 51 587 28 567 q 106 607 75 607 q 181 578 146 607 q 217 511 217 549 q 192 456 217 481 q 136 432 168 432 m 136 74 q 79 101 100 74 q 42 132 57 111 q 28 176 28 153 q 51 228 28 208 q 106 249 75 249 q 181 219 146 249 q 217 153 217 190 q 192 98 217 122 q 136 74 168 74 z "},";":{"ha":264,"x_min":28,"x_max":236,"o":"m 75 -78 q 42 -63 56 -78 q 28 -31 28 -49 q 40 -2 28 -11 q 70 14 53 7 q 102 32 88 21 q 121 64 117 43 l 111 86 q 95 112 110 86 q 81 157 81 138 q 107 208 81 194 q 140 219 122 219 q 176 207 161 219 q 200 175 200 197 l 199 172 q 226 99 226 132 q 167 -32 221 14 q 75 -78 113 -78 m 156 468 q 99 496 119 468 q 62 526 76 506 q 47 571 47 547 q 71 623 47 603 q 125 643 94 643 q 201 614 165 643 q 236 547 236 585 q 212 492 236 517 q 156 468 188 468 z "},";":{"ha":264,"x_min":28,"x_max":236,"o":"m 75 -78 q 42 -63 56 -78 q 28 -31 28 -49 q 40 -2 28 -11 q 70 14 53 7 q 102 32 88 21 q 121 64 117 43 l 111 86 q 95 112 110 86 q 81 157 81 138 q 107 208 81 194 q 140 219 122 219 q 176 207 161 219 q 200 175 200 197 l 199 172 q 226 99 226 132 q 167 -32 221 14 q 75 -78 113 -78 m 156 468 q 99 496 119 468 q 62 526 76 506 q 47 571 47 547 q 71 623 47 603 q 125 643 94 643 q 201 614 165 643 q 236 547 236 585 q 212 492 236 517 q 156 468 188 468 z "},"<":{"ha":613,"x_min":28,"x_max":585,"o":"m 503 132 q 300 190 496 132 q 103 250 136 239 q 49 290 71 261 q 28 347 28 318 q 60 417 28 390 q 172 488 92 443 q 335 583 235 522 q 385 613 360 600 q 439 625 411 625 q 467 620 457 625 q 484 609 478 615 q 493 596 490 603 q 496 585 496 589 l 497 579 q 447 490 497 535 q 265 357 397 444 l 349 338 q 537 286 489 307 q 585 213 585 265 q 555 150 585 168 q 503 132 525 132 z "},"=":{"ha":607,"x_min":28,"x_max":579,"o":"m 471 360 q 422 363 457 360 q 231 373 286 371 q 130 380 175 375 q 56 401 85 385 q 28 451 28 417 q 56 497 28 483 q 114 511 83 511 l 151 511 q 326 504 182 511 q 518 488 489 496 q 565 424 565 478 q 547 379 565 393 q 507 363 529 365 q 471 360 485 360 m 508 172 q 172 186 254 172 q 90 254 90 200 q 108 292 90 271 q 176 313 125 313 q 342 311 233 311 q 500 314 461 311 l 511 315 q 562 290 544 315 q 579 242 579 264 q 558 193 579 214 q 508 172 536 172 z "},">":{"ha":533,"x_min":28,"x_max":506,"o":"m 125 56 q 90 64 111 56 q 51 92 68 72 q 35 146 35 113 q 64 213 35 189 q 149 267 93 238 q 286 347 206 296 q 211 374 246 363 q 74 428 121 404 q 28 494 28 453 q 45 536 28 519 q 114 553 63 553 q 140 549 122 553 l 408 476 q 497 389 497 451 l 497 378 q 506 342 506 361 q 456 257 506 306 q 337 163 406 208 q 207 86 268 117 q 125 56 146 56 z "},"?":{"ha":451,"x_min":28,"x_max":424,"o":"m 189 304 q 244 326 225 304 q 272 378 264 349 q 285 435 281 408 l 290 463 q 350 654 315 560 q 401 817 379 738 q 424 969 424 897 q 332 1167 424 1111 q 211 1201 272 1201 q 90 1173 151 1201 q 28 1099 28 1144 q 48 1056 28 1069 q 89 1043 68 1043 l 181 1050 q 191 1049 183 1050 q 207 1045 199 1047 q 219 1041 215 1043 q 226 1036 222 1039 q 233 1031 229 1033 q 240 1026 236 1028 l 243 1024 q 254 974 254 997 l 251 935 l 229 868 q 178 709 207 801 q 126 530 149 617 q 104 401 104 443 q 133 326 104 347 q 189 304 163 304 m 197 -35 q 124 -6 154 -35 q 94 68 94 24 q 125 135 94 104 q 192 165 156 165 q 265 135 236 165 q 294 61 294 104 q 265 -5 294 25 q 197 -35 235 -35 z "},"@":{"ha":1031,"x_min":28,"x_max":1003,"o":"m 494 485 l 494 510 l 496 513 q 532 642 500 560 q 569 706 542 667 q 599 728 585 724 q 618 711 618 722 q 632 679 624 693 l 631 676 q 617 634 629 667 q 575 560 604 601 q 494 485 546 519 m 515 6 q 732 32 646 6 q 867 93 818 58 q 937 159 917 128 q 957 200 957 190 q 944 233 957 219 q 913 246 931 246 q 858 217 892 246 q 794 175 832 197 q 701 136 756 153 q 568 119 646 119 q 379 151 458 119 q 351 164 354 161 q 228 272 267 197 q 181 463 181 358 q 185 529 181 513 q 222 667 186 568 q 292 788 258 744 q 383 878 363 868 q 561 954 443 931 q 603 957 569 957 q 765 904 694 957 q 825 832 807 865 q 850 693 850 783 q 844 611 850 636 q 781 406 815 464 q 772 540 772 522 q 778 683 772 614 q 793 725 793 711 q 770 773 793 756 q 731 790 747 790 q 597 869 682 869 q 419 731 492 869 q 357 508 357 610 q 376 410 357 446 q 422 361 396 375 q 467 347 447 347 q 503 358 490 347 q 531 386 517 368 q 542 396 532 389 q 643 499 575 417 q 678 347 643 393 q 717 303 692 321 q 769 285 742 285 q 813 297 793 285 q 857 333 819 299 q 936 452 894 368 q 1000 685 978 536 q 1001 700 1000 686 q 1003 735 1003 714 q 960 919 1003 828 q 683 1103 888 1071 q 604 1110 653 1110 q 314 1017 444 1110 q 106 775 183 924 q 28 463 28 626 q 72 246 28 332 q 307 38 150 92 q 429 11 383 11 q 469 8 446 10 q 515 6 493 6 m 811 296 q 817 299 817 296 l 811 296 z "},"A":{"ha":799,"x_min":7,"x_max":771,"o":"m 640 -160 q 710 -140 675 -160 q 771 -11 771 -107 q 756 283 771 103 q 654 815 729 596 q 381 1101 556 1101 q 193 1003 271 1101 q 74 738 115 906 q 33 357 33 569 l 35 292 q 22 276 28 285 q 7 232 7 251 q 15 198 7 215 q 40 168 24 181 l 42 151 q 51 56 43 106 q 79 -29 58 6 q 144 -64 100 -64 q 188 -44 169 -64 q 215 -3 208 -21 q 222 38 221 15 l 225 72 l 226 71 l 225 108 l 228 108 q 517 99 281 99 l 521 99 l 519 -35 q 556 -121 519 -82 q 640 -160 592 -160 m 221 354 q 228 473 224 422 q 235 532 233 524 l 233 521 q 240 565 233 522 q 260 669 246 608 q 300 786 275 729 q 324 835 313 815 q 338 856 336 854 q 342 860 340 858 q 346 867 343 863 q 358 879 351 875 q 379 883 365 883 l 389 874 q 400 860 400 863 q 417 815 400 858 q 497 488 468 692 q 511 365 507 414 l 494 365 q 436 365 479 365 q 335 362 393 364 q 221 354 276 360 z "},"B":{"ha":867,"x_min":19,"x_max":853,"o":"m 175 -103 q 224 -87 207 -103 q 249 -52 242 -71 q 258 -21 257 -33 q 279 -24 261 -22 q 322 -27 297 -25 q 368 -29 346 -29 q 600 24 489 -29 q 782 163 711 76 q 853 353 853 250 q 835 440 853 389 q 760 538 818 490 q 585 613 701 585 q 673 676 629 638 q 748 763 717 714 q 779 871 779 813 q 647 1046 779 1000 q 460 1074 565 1074 q 379 1072 406 1074 l 314 1068 q 225 1175 306 1175 q 124 1036 144 1175 l 90 1028 q 43 996 71 1021 q 29 963 29 981 q 55 920 29 929 q 106 911 81 911 l 108 911 q 88 632 103 864 q 19 542 19 604 q 40 483 19 506 q 79 451 60 460 q 75 222 75 361 q 80 39 75 111 q 106 -68 85 -33 q 175 -103 126 -103 m 288 700 q 294 789 292 751 q 301 863 297 826 l 307 933 l 331 933 q 461 925 403 933 l 497 919 q 611 879 578 908 q 610 865 611 867 q 607 857 610 864 l 578 824 q 288 700 476 757 m 439 228 q 297 236 394 228 l 269 238 q 274 451 271 382 q 458 439 446 446 q 599 404 554 424 q 622 393 614 396 q 636 383 629 390 q 651 364 649 371 l 651 357 q 647 335 651 346 q 645 331 646 332 q 632 312 644 331 q 590 265 619 293 q 566 250 575 254 q 552 244 557 246 q 543 242 547 243 q 439 228 496 228 z "},"C":{"ha":721,"x_min":0,"x_max":735,"o":"m 379 -29 q 476 -15 418 -29 q 580 34 535 -1 q 625 133 625 69 q 590 215 625 182 q 510 249 556 249 q 466 244 481 249 q 439 232 451 239 q 424 225 432 228 q 408 219 417 222 q 378 214 394 214 q 294 240 335 214 l 293 240 q 284 248 292 242 q 265 271 276 254 q 238 318 253 288 q 221 374 225 354 q 217 418 217 394 q 219 454 217 440 l 219 460 q 264 608 236 547 q 350 758 293 679 l 351 760 q 460 854 407 832 l 461 854 q 514 863 472 858 q 525 860 519 861 q 534 856 531 858 q 546 850 538 854 l 553 844 l 572 815 l 579 794 q 603 744 589 764 q 650 724 618 724 q 678 732 657 724 q 717 768 699 740 q 735 854 735 796 q 706 955 735 906 q 622 1035 676 1004 q 493 1067 568 1067 q 299 1000 389 1067 q 142 831 210 933 q 38 615 75 729 q 0 407 0 501 q 52 180 0 278 q 190 26 104 82 q 379 -29 276 -29 z "},"D":{"ha":901,"x_min":6,"x_max":875,"o":"m 246 -85 q 110 -18 146 -85 q 89 61 89 21 q 115 142 89 106 q 99 210 103 163 q 94 446 94 267 q 110 893 94 681 l 103 896 q 64 910 86 900 q 24 938 42 919 q 6 986 6 957 q 42 1058 6 1033 q 126 1090 79 1082 q 208 1099 174 1099 q 412 1060 297 1099 q 631 947 526 1021 q 806 767 736 874 q 875 528 875 661 q 824 296 875 396 q 695 124 774 196 q 530 5 617 51 q 366 -63 443 -42 q 246 -85 289 -85 m 300 239 q 494 343 404 274 l 513 358 q 551 397 529 372 q 590 453 574 422 q 606 536 606 492 l 604 557 q 493 731 581 660 q 303 836 406 803 q 297 476 297 701 q 300 274 297 324 l 300 239 z "},"E":{"ha":567,"x_min":40,"x_max":571,"o":"m 425 -75 q 528 -40 486 -75 q 571 57 571 -4 q 546 136 571 99 q 476 183 521 174 q 411 190 444 190 q 286 175 349 190 l 286 336 l 294 336 q 433 360 385 336 q 500 419 482 385 q 518 481 518 453 q 488 576 518 546 q 419 614 457 606 q 364 622 382 622 q 286 617 317 621 l 288 886 q 350 882 318 882 q 423 890 388 882 q 484 931 458 897 q 510 1000 510 964 q 481 1085 510 1060 q 416 1118 451 1111 q 361 1125 381 1125 q 267 1119 293 1125 l 256 1118 q 247 1133 254 1122 q 223 1156 239 1144 q 183 1168 207 1168 q 104 1104 132 1168 l 92 1075 q 57 1004 57 1051 q 75 950 57 975 l 65 518 q 40 463 40 494 l 42 439 q 63 401 44 419 l 54 79 q 106 -54 54 -19 q 168 -75 136 -75 q 226 -57 199 -75 q 425 -75 393 -75 z "},"F":{"ha":594,"x_min":35,"x_max":668,"o":"m 224 -22 q 143 15 169 -22 q 104 119 117 53 q 83 271 92 185 l 78 319 l 60 336 q 35 390 35 350 q 64 457 35 428 q 58 631 58 514 q 72 906 58 783 q 40 972 40 935 q 78 1039 40 1018 q 139 1075 103 1063 q 185 1096 163 1096 q 210 1092 197 1096 q 497 1107 282 1107 q 613 1084 576 1107 q 658 1032 649 1061 q 668 985 668 1003 q 666 972 668 983 q 658 942 664 960 q 638 908 651 925 q 599 880 624 892 q 533 868 574 868 l 503 869 q 369 874 471 874 q 278 871 340 874 q 275 733 275 775 q 279 544 275 633 l 285 544 q 342 539 311 544 q 405 496 381 532 q 429 424 429 460 q 409 354 429 381 q 360 313 389 328 q 300 292 331 299 q 320 169 311 207 q 329 94 329 131 q 296 6 329 33 q 224 -22 263 -22 z "},"G":{"ha":925,"x_min":14,"x_max":908,"o":"m 436 -36 q 368 -30 415 -36 q 261 3 321 -24 q 145 93 201 31 q 51 265 89 156 q 14 546 14 374 q 51 785 14 685 q 147 949 88 885 q 276 1044 206 1014 q 414 1075 347 1075 q 585 1007 501 1075 q 649 886 649 956 q 627 833 649 861 q 567 804 606 804 q 544 807 551 804 q 486 824 539 810 l 447 825 l 436 824 q 413 822 426 824 q 386 815 399 819 q 299 710 321 779 q 276 557 276 642 q 287 415 276 488 q 338 282 297 343 q 428 242 372 242 q 604 408 568 242 q 531 422 588 408 q 417 471 454 440 q 378 514 385 492 q 371 554 371 536 q 435 651 371 621 q 530 689 461 671 q 689 707 599 707 q 783 694 733 707 q 861 626 832 681 q 908 483 908 582 q 883 325 908 414 q 801 154 857 236 q 656 18 746 72 q 436 -36 567 -36 z "},"H":{"ha":771,"x_min":58,"x_max":713,"o":"m 167 -65 q 104 -38 126 -65 q 72 83 82 -11 q 60 366 63 176 q 58 879 58 556 q 63 974 58 924 q 89 1061 68 1025 q 156 1097 110 1097 q 225 1053 204 1097 q 252 929 246 1010 q 260 736 258 849 l 261 639 q 319 643 285 642 q 381 645 353 644 q 413 646 410 646 q 486 642 450 646 q 511 922 494 825 q 553 1051 528 1018 q 617 1085 579 1085 q 676 1063 657 1085 q 701 1017 694 1042 q 707 978 707 992 l 707 975 q 713 917 713 946 q 710 868 713 899 q 700 533 700 739 q 708 233 700 353 l 710 192 q 661 86 710 115 q 603 68 632 68 q 522 108 546 68 q 490 230 497 149 q 483 435 483 311 q 414 431 449 431 q 377 431 406 431 q 317 433 349 432 q 265 438 285 435 l 268 157 q 256 0 268 85 q 216 -51 247 -36 q 167 -65 185 -65 z "},"I":{"ha":410,"x_min":51,"x_max":367,"o":"m 210 0 q 71 108 118 0 l 69 111 q 56 215 60 132 q 51 468 51 297 q 53 568 51 529 q 54 681 54 607 q 76 990 54 924 q 101 1039 86 1022 q 175 1079 132 1079 q 240 1054 210 1079 q 302 891 278 1024 q 341 597 326 758 q 361 311 356 435 q 367 185 367 188 q 352 99 367 142 q 303 28 338 57 q 210 0 268 0 z "},"J":{"ha":651,"x_min":-14,"x_max":596,"o":"m 319 -64 q 449 -22 397 -64 q 530 88 500 21 q 574 231 560 154 q 592 383 588 308 q 596 513 596 458 l 596 572 q 581 899 596 732 q 547 1047 571 1021 l 544 1050 q 515 1086 535 1071 q 472 1101 496 1101 q 425 1087 453 1101 q 390 1036 397 1072 q 372 946 372 993 q 375 889 372 922 q 383 646 383 833 q 369 367 383 450 l 363 329 q 333 219 350 269 q 331 213 333 218 q 314 190 328 208 l 313 189 l 308 192 l 289 213 l 288 215 q 232 368 249 263 q 201 464 224 432 q 107 517 165 517 q 16 470 46 517 q -14 361 -14 424 q 5 244 -14 315 q 63 102 24 172 q 166 -16 103 32 q 319 -64 229 -64 z "},"K":{"ha":742,"x_min":50,"x_max":761,"o":"m 558 24 q 470 53 506 24 q 372 157 435 83 q 282 261 336 200 l 282 239 q 266 110 282 156 q 226 49 250 65 q 178 32 203 32 q 110 60 135 32 q 72 172 85 89 q 54 409 58 254 q 50 817 50 564 l 50 879 q 69 978 50 946 q 113 1019 88 1010 q 154 1029 138 1029 q 231 990 208 1029 q 260 881 254 950 q 268 722 267 813 l 269 649 q 536 943 464 844 q 617 1034 586 1006 q 690 1063 649 1063 q 726 1051 706 1063 q 761 985 761 1032 q 594 731 761 915 q 408 529 546 676 q 563 385 469 481 q 701 168 701 243 q 661 68 701 113 q 558 24 621 24 z "},"L":{"ha":510,"x_min":53,"x_max":526,"o":"m 322 -26 l 249 -26 q 99 33 143 -26 q 53 144 53 68 q 56 665 53 472 q 70 953 58 858 q 106 1078 82 1049 q 174 1107 131 1107 q 249 1069 225 1107 q 280 958 274 1031 q 286 783 286 886 q 278 224 286 632 l 324 228 q 381 232 351 232 q 470 211 439 232 q 514 160 501 190 q 526 106 526 131 q 497 17 526 46 q 420 -19 467 -11 q 322 -26 374 -26 z "},"M":{"ha":1176,"x_min":47,"x_max":1128,"o":"m 928 -26 q 1069 78 1033 -26 q 1108 511 1088 132 q 1128 894 1128 853 l 1126 918 q 1124 958 1126 929 q 1108 1021 1121 988 q 994 1101 1078 1101 q 931 1085 956 1101 q 894 1048 907 1068 q 879 1014 882 1028 q 782 850 863 996 q 575 404 701 704 q 463 719 511 600 q 378 897 415 838 q 310 974 340 956 q 249 992 279 992 q 247 994 247 992 q 240 1009 246 996 q 223 1038 235 1022 q 193 1067 211 1054 q 149 1079 175 1079 q 110 1067 135 1079 q 67 1015 86 1056 q 47 890 47 975 l 50 807 q 68 207 68 410 l 68 172 q 91 46 68 86 q 142 -6 114 6 q 186 -17 169 -17 q 228 -9 199 -17 q 283 33 257 -1 q 308 147 308 67 q 293 506 308 168 l 292 511 q 381 247 350 350 q 444 72 415 124 q 536 19 472 19 q 594 37 569 19 q 632 79 618 54 q 726 249 690 156 l 824 454 q 786 144 786 188 q 850 0 786 43 q 928 -26 892 -26 z "},"N":{"ha":861,"x_min":39,"x_max":803,"o":"m 639 51 q 560 73 592 51 q 488 156 528 94 q 383 331 449 217 q 256 550 332 421 l 274 208 q 261 144 274 175 q 171 89 238 89 q 101 116 125 89 q 74 165 76 143 q 71 211 71 186 l 72 279 q 40 908 72 569 l 39 932 q 74 1025 39 993 q 154 1065 101 1065 q 238 1033 193 1065 q 363 894 282 1001 q 588 567 444 786 q 600 915 593 821 q 630 1045 607 1001 q 707 1089 653 1089 q 775 1051 747 1089 q 803 947 803 1013 q 792 435 803 772 l 789 299 q 782 221 789 254 l 785 197 q 756 105 785 136 q 692 63 726 74 q 639 51 657 51 z "},"O":{"ha":739,"x_min":3,"x_max":708,"o":"m 331 31 q 404 47 369 31 q 449 71 439 63 q 644 251 579 125 q 708 511 708 376 q 687 674 708 590 q 643 815 665 757 q 620 872 621 872 q 613 892 619 872 q 582 950 606 913 q 511 1038 558 988 l 496 1044 q 460 1063 482 1053 q 417 1082 439 1074 q 378 1090 394 1090 l 357 1089 q 329 1092 343 1092 q 185 998 261 1092 q 56 759 108 904 q 3 460 3 614 q 21 335 3 390 q 56 247 39 279 q 75 215 74 215 q 97 186 76 214 q 151 122 117 158 q 233 58 186 86 q 331 31 279 31 m 410 201 l 324 218 q 283 240 293 229 q 256 285 272 251 l 254 324 l 265 536 q 368 818 289 689 q 449 772 422 794 l 453 769 q 490 731 468 757 l 500 717 q 529 667 511 701 q 557 560 551 601 q 561 486 561 528 q 558 424 561 438 l 557 424 q 532 325 540 339 l 531 322 q 494 260 507 275 q 494 260 496 261 q 465 229 492 254 q 462 228 464 229 q 453 221 460 226 q 410 201 435 210 z "},"P":{"ha":708,"x_min":49,"x_max":683,"o":"m 142 -10 q 197 11 172 -10 q 241 79 232 31 q 251 193 250 128 l 254 256 q 317 251 283 251 q 401 264 342 251 q 526 318 461 276 q 637 440 590 360 q 683 657 683 521 q 593 993 683 894 q 451 1063 529 1063 q 406 1057 438 1063 q 251 931 319 1039 q 267 1021 267 975 q 245 1099 267 1067 q 179 1131 224 1131 q 103 1090 133 1131 q 74 958 74 1049 l 75 907 q 65 731 75 825 q 49 376 49 567 q 65 69 49 149 q 142 -10 82 -10 m 382 499 l 340 501 l 276 499 q 336 747 306 682 l 340 757 q 393 846 367 814 l 421 876 q 446 888 436 888 q 453 885 451 886 l 453 883 q 465 869 460 878 q 474 851 471 860 q 496 763 489 808 l 499 739 q 501 674 501 714 q 499 599 501 611 q 475 528 486 538 q 469 522 472 526 q 454 510 457 510 q 422 501 442 504 q 382 499 418 500 z "},"Q":{"ha":740,"x_min":13,"x_max":714,"o":"m 474 -204 q 545 -172 522 -204 q 568 -108 568 -139 q 446 51 568 -28 q 613 285 554 138 q 692 565 671 433 q 714 714 714 696 q 684 922 714 840 q 609 1051 654 1004 q 515 1118 564 1099 q 431 1138 467 1138 q 353 1116 389 1138 q 301 1061 318 1094 q 185 927 250 1035 q 70 667 119 819 q 21 364 21 515 q 79 119 21 219 q 56 106 72 117 q 26 78 40 96 q 13 33 13 60 q 33 -25 13 -7 q 80 -48 54 -43 q 118 -53 106 -53 l 156 -53 q 210 -58 199 -56 q 271 -76 242 -65 q 339 -116 321 -101 q 374 -147 357 -131 q 417 -187 393 -169 q 474 -204 440 -204 m 290 178 q 278 178 282 178 q 271 179 274 179 q 266 181 268 179 q 260 185 264 182 q 251 190 256 188 l 257 188 q 243 202 247 194 q 236 217 239 210 q 229 231 233 224 q 213 289 217 264 l 211 299 q 208 350 208 331 q 214 431 208 368 q 292 701 242 590 q 371 853 331 786 q 418 782 403 825 q 433 726 419 779 q 449 656 446 672 q 453 614 451 639 q 456 564 456 589 l 454 511 q 400 303 419 335 q 371 243 382 264 q 340 203 356 214 q 290 178 318 183 z "},"R":{"ha":707,"x_min":57,"x_max":700,"o":"m 149 -29 q 200 -6 185 -29 q 219 48 215 17 q 224 104 224 79 l 224 126 q 258 233 251 171 l 258 239 l 464 69 q 565 -1 546 4 q 589 -6 576 -6 q 633 4 607 -6 q 680 38 660 14 q 700 104 700 61 q 694 140 700 124 q 662 183 689 157 q 574 252 635 208 q 406 368 514 296 q 481 425 458 400 q 508 456 504 450 l 508 457 q 557 514 525 469 l 561 519 q 613 592 574 528 q 667 769 651 657 q 671 811 671 786 q 638 930 671 882 q 552 1001 604 978 q 443 1025 500 1025 q 235 925 331 1025 q 231 1003 235 971 q 146 1086 217 1086 q 88 1061 107 1086 q 63 1004 69 1036 q 57 951 57 972 l 58 931 q 68 190 58 375 q 106 -18 78 4 q 138 -29 119 -29 l 149 -29 m 303 588 q 340 710 331 692 l 344 721 q 403 804 358 757 q 444 818 421 818 q 471 806 464 818 q 476 797 474 801 q 479 774 478 793 q 464 715 479 749 l 454 696 q 401 625 435 653 q 393 619 397 622 q 376 611 389 617 l 357 603 q 317 592 331 593 l 303 588 z "},"S":{"ha":579,"x_min":14,"x_max":557,"o":"m 274 -68 q 414 -32 354 -68 q 506 61 474 4 q 539 179 539 118 q 502 326 539 236 q 417 504 465 415 q 332 654 369 593 q 294 717 294 715 q 292 725 293 719 q 274 769 283 743 q 261 825 265 796 l 260 857 q 263 874 261 865 q 267 888 265 883 q 269 895 268 893 q 274 900 271 897 q 278 904 276 903 q 294 894 281 904 q 325 863 307 883 q 367 814 340 840 q 383 793 376 804 q 400 744 383 789 q 414 715 406 728 l 424 703 q 481 669 444 669 q 538 701 519 669 q 557 769 557 732 q 544 856 557 797 q 499 976 531 914 q 411 1081 467 1038 q 272 1125 356 1125 q 164 1094 218 1125 q 74 999 110 1063 q 38 838 38 935 q 85 633 38 736 q 194 429 133 531 q 310 201 263 314 l 306 201 q 256 215 279 201 l 285 203 q 245 219 264 211 q 203 235 226 228 q 153 242 181 242 q 106 233 139 242 q 43 199 72 225 q 14 119 14 174 q 44 28 14 65 q 119 -29 75 -8 q 206 -59 163 -50 q 274 -68 249 -68 z "},"T":{"ha":543,"x_min":-36,"x_max":632,"o":"m 236 -32 q 188 -19 213 -32 q 146 26 163 -6 q 129 111 129 57 l 135 240 q 150 562 139 371 q 179 947 161 753 l 169 947 q 96 954 144 947 q 6 981 47 961 q -36 1043 -36 1000 q -8 1103 -36 1085 q 53 1125 19 1121 q 103 1129 88 1129 l 332 1129 q 464 1133 429 1129 l 501 1135 q 599 1107 565 1135 q 632 1039 632 1079 q 601 969 632 990 q 528 944 569 949 q 460 940 488 940 l 400 940 q 374 502 383 679 q 356 217 364 325 q 335 56 347 110 q 299 -15 322 3 q 236 -32 276 -32 z "},"U":{"ha":908,"x_min":39,"x_max":853,"o":"m 338 -58 q 638 140 540 -58 q 679 41 646 67 q 746 15 713 15 q 817 44 794 15 q 847 108 840 72 q 853 164 853 143 l 853 181 q 842 425 853 274 q 828 729 828 597 q 840 932 828 806 l 843 956 q 851 1029 851 992 q 830 1107 851 1068 q 758 1146 808 1146 q 676 1098 704 1146 q 635 976 647 1050 q 619 819 624 901 q 532 449 572 588 q 474 269 492 311 q 438 204 453 222 l 428 190 q 410 172 413 172 q 406 171 407 172 l 392 167 l 368 168 q 331 178 335 178 q 319 190 328 179 q 277 328 286 242 q 268 539 268 414 q 290 883 268 735 q 294 932 294 917 q 279 1012 294 982 q 242 1054 264 1042 q 199 1067 219 1067 q 164 1061 185 1067 q 122 1028 143 1056 q 81 940 100 1001 q 51 767 63 878 q 39 482 39 657 q 42 370 39 438 q 60 228 46 303 q 106 90 74 154 q 194 -17 138 25 q 338 -58 250 -58 z "},"V":{"ha":672,"x_min":13,"x_max":694,"o":"m 290 -7 q 215 94 254 -7 q 140 340 176 194 q 76 633 104 486 q 30 881 47 779 q 13 983 13 982 l 17 1021 l 15 1032 q 40 1083 15 1063 q 88 1103 64 1103 q 128 1093 114 1103 q 158 1053 151 1076 l 171 1036 q 189 993 179 1022 q 326 415 211 919 q 394 701 367 579 q 484 1045 446 939 q 599 1151 522 1151 q 654 1133 633 1151 q 685 1088 675 1114 q 694 1038 694 1061 q 565 531 694 1001 q 425 40 442 79 q 390 6 413 17 q 342 -6 368 -6 q 290 -7 317 -6 z "},"W":{"ha":996,"x_min":44,"x_max":944,"o":"m 683 -53 q 858 57 790 -53 q 944 515 944 192 q 935 763 944 663 q 914 922 919 899 q 876 1088 901 1031 q 785 1146 851 1146 q 725 1125 754 1146 q 690 1073 696 1104 q 685 1011 685 1042 q 689 954 685 996 l 721 697 q 736 467 736 590 q 717 247 736 322 q 685 161 703 183 q 679 150 681 156 l 669 161 l 672 160 l 667 169 q 658 196 663 183 q 647 231 653 208 q 633 296 640 253 l 633 297 q 625 449 625 339 l 626 582 q 600 642 626 619 q 544 664 574 664 q 494 648 518 664 q 464 604 471 632 q 450 443 450 525 l 451 417 q 438 368 443 393 l 428 329 q 408 279 411 279 q 360 190 372 204 l 356 185 q 321 150 328 150 q 308 290 308 208 q 315 534 308 369 q 328 838 322 699 q 335 994 335 976 q 313 1094 335 1060 q 263 1142 292 1129 q 213 1156 235 1156 q 158 1141 183 1156 q 111 1080 132 1126 q 76 937 90 1033 q 53 680 61 840 q 44 275 44 519 q 151 4 44 76 q 282 -39 217 -39 q 347 -26 319 -39 q 388 -1 374 -14 q 404 13 403 11 q 497 111 439 31 l 506 92 q 528 41 510 75 q 583 -23 546 7 q 683 -53 619 -53 z "},"X":{"ha":613,"x_min":3,"x_max":617,"o":"m 168 -108 q 95 -81 132 -108 q 58 8 58 -53 q 61 42 58 25 q 110 188 65 71 l 214 458 q 56 865 103 756 q 15 968 26 935 q 3 1028 3 1001 q 9 1063 3 1042 q 31 1099 15 1083 q 78 1114 47 1114 q 121 1105 101 1114 q 165 1059 140 1096 q 227 942 190 1022 q 319 724 264 863 l 332 754 q 394 896 364 836 q 471 1000 424 956 q 482 1015 476 1004 q 502 1041 488 1026 q 546 1056 517 1056 q 594 1038 571 1056 q 617 983 617 1019 q 614 959 617 967 q 611 946 611 951 l 613 940 l 571 776 q 447 389 531 611 q 524 167 507 221 q 535 103 535 126 q 492 17 535 40 q 446 3 467 3 q 336 100 372 3 l 325 68 q 291 -12 310 28 q 243 -81 272 -53 q 168 -108 214 -108 z "},"Y":{"ha":675,"x_min":-7,"x_max":713,"o":"m 358 -74 q 290 -47 324 -74 q 233 114 233 -3 q 258 356 233 221 q 174 474 219 378 q 88 690 129 569 q 20 907 47 811 q -7 1015 -7 1003 q 47 1133 -7 1101 q 107 1153 79 1153 q 194 1119 160 1153 q 268 990 229 1086 q 369 711 307 894 q 494 994 443 897 q 536 1063 519 1040 q 549 1076 546 1076 q 631 1119 576 1119 q 688 1094 665 1119 q 711 1036 711 1068 l 713 1025 q 679 903 713 976 l 646 836 q 631 796 643 824 q 499 307 544 603 q 490 165 490 232 q 483 44 490 97 q 449 -42 476 -10 q 358 -74 422 -74 z "},"Z":{"ha":617,"x_min":-54,"x_max":629,"o":"m 415 -42 q 498 -29 465 -42 q 549 2 531 -17 q 575 39 567 21 q 585 70 583 57 q 586 85 586 83 q 557 171 586 143 q 492 208 528 199 q 438 217 457 217 q 385 213 418 217 q 254 204 353 210 l 406 483 q 527 708 482 624 q 594 839 572 792 q 623 913 617 886 q 629 967 629 940 q 593 1080 629 1042 q 514 1131 557 1118 q 447 1144 471 1144 q 288 1125 379 1140 q 196 1091 229 1114 q 163 1021 163 1068 q 173 978 163 1001 q 210 940 183 956 q 282 924 236 924 q 332 928 300 924 l 396 933 q 140 464 275 697 q 2 213 58 317 q -54 82 -54 108 q -35 15 -54 40 q 12 -22 -15 -10 q 58 -33 39 -33 q 94 -26 78 -33 q 192 -34 122 -31 q 331 -40 263 -37 q 415 -42 400 -42 z "},"[":{"ha":965,"x_min":33,"x_max":932,"o":"m 151 403 q 528 471 254 403 q 750 519 646 500 q 776 550 776 525 q 751 582 776 572 q 332 678 475 678 q 178 646 246 678 q 72 568 111 614 q 33 479 33 522 q 151 403 33 403 m 921 856 l 918 856 q 622 894 890 865 q 325 979 325 914 q 346 1056 325 1008 q 469 1129 385 1129 q 620 1081 538 1129 q 890 901 703 1033 q 932 868 932 875 q 921 856 932 856 m 465 -104 q 412 -80 436 -104 q 388 -22 388 -56 q 478 130 388 50 q 678 266 568 210 q 849 322 789 322 q 869 301 869 322 q 858 283 869 294 q 751 156 826 251 q 656 36 706 96 q 465 -104 536 -104 z "},"\\":{"ha":750,"x_min":28,"x_max":722,"o":"m 686 -78 q 549 102 654 -78 q 325 518 444 282 q 117 951 206 754 q 28 1182 28 1147 q 38 1205 28 1194 q 58 1215 47 1215 q 176 1026 72 1215 q 405 594 279 838 q 626 159 531 351 q 722 -40 722 -33 q 712 -67 722 -57 q 686 -78 701 -78 z "},"]":{"ha":958,"x_min":26,"x_max":925,"o":"m 625 411 q 779 442 711 411 q 886 520 847 474 q 925 608 925 567 q 807 685 925 685 q 635 664 735 685 q 432 618 536 643 q 275 583 328 593 q 213 568 233 574 q 186 556 192 563 q 181 539 181 550 q 206 507 181 515 q 625 411 482 411 m 485 -40 q 337 8 419 -40 q 68 185 254 56 q 26 221 26 213 q 40 233 26 229 q 336 194 65 221 q 544 167 454 185 q 633 110 633 149 q 610 33 633 82 q 485 -40 576 -40 m 110 765 q 89 786 89 765 q 99 804 89 794 q 206 932 131 838 q 303 1051 253 993 q 493 1193 421 1193 q 547 1169 522 1193 q 571 1111 571 1144 q 481 958 571 1039 q 280 822 390 878 q 110 765 169 765 z "},"^":{"ha":521,"x_min":28,"x_max":493,"o":"m 76 961 q 117 972 97 961 q 154 996 136 983 q 235 1047 192 1022 q 281 1079 256 1060 l 293 1063 q 350 990 326 1014 q 410 965 374 965 q 471 992 449 965 q 493 1049 493 1018 q 478 1098 493 1075 q 428 1161 463 1121 l 410 1183 q 296 1254 353 1254 q 209 1216 254 1254 q 129 1140 164 1178 l 90 1100 q 43 1050 58 1069 q 28 1010 28 1031 q 76 961 28 965 z "},"_":{"ha":560,"x_min":28,"x_max":532,"o":"m 386 -72 l 169 -71 q 61 -62 94 -71 q 28 -15 28 -54 q 64 37 28 28 q 203 46 100 46 q 324 51 279 49 q 410 54 368 54 q 489 49 450 54 q 520 27 508 44 q 532 -8 532 10 q 520 -44 532 -26 q 489 -65 508 -61 q 386 -72 438 -72 z "},"`":{"ha":329,"x_min":28,"x_max":301,"o":"m 225 939 q 272 953 254 939 q 295 986 289 968 q 301 1015 301 1004 q 297 1039 301 1028 q 235 1124 290 1056 l 185 1186 q 147 1230 169 1208 q 86 1251 124 1251 q 36 1221 50 1251 q 28 1185 28 1203 q 42 1135 28 1158 q 75 1090 57 1113 q 119 1029 101 1056 q 164 972 147 992 q 193 946 181 953 q 225 939 206 939 z "},"a":{"ha":749,"x_min":19,"x_max":719,"o":"m 586 7 q 671 50 638 7 q 692 128 692 76 q 717 521 692 321 l 717 525 q 719 557 719 539 q 714 598 719 569 q 689 650 708 626 q 632 674 669 674 q 589 663 603 674 q 568 642 575 653 l 567 640 q 483 713 533 683 q 382 742 433 742 q 260 718 324 742 q 142 644 196 694 q 53 515 88 594 q 19 324 19 436 q 44 174 19 243 q 115 62 68 104 q 229 19 163 19 q 282 29 246 19 q 369 78 318 39 q 486 201 421 117 l 485 133 q 507 49 485 75 q 553 15 529 22 q 586 7 578 7 m 242 228 q 233 297 233 285 q 276 464 233 414 q 302 490 300 489 q 340 511 304 490 q 378 521 371 521 q 403 519 397 519 q 415 519 410 519 q 442 511 419 518 l 458 504 q 354 343 378 371 l 351 340 q 242 228 286 260 z "},"b":{"ha":850,"x_min":36,"x_max":825,"o":"m 165 -22 q 269 36 228 -22 q 422 -7 342 -7 q 619 45 543 -7 q 738 173 696 97 q 799 325 781 249 q 822 456 818 401 q 825 513 825 510 q 786 699 825 622 q 683 815 747 775 q 546 856 619 856 q 494 847 533 856 q 402 805 454 839 q 297 697 350 771 q 293 975 297 901 q 269 1090 289 1049 q 206 1131 250 1131 q 144 1101 164 1131 q 116 1034 124 1071 q 107 975 108 997 l 106 969 q 85 751 101 929 q 52 381 68 572 q 36 138 36 190 q 96 0 36 36 q 165 -22 131 -22 m 433 300 q 394 305 413 300 q 358 313 375 310 q 396 410 371 354 q 471 564 449 531 q 511 606 501 597 l 515 608 q 528 619 526 617 q 547 625 531 621 l 550 624 q 567 611 564 615 q 569 606 569 607 q 581 572 578 586 q 586 518 585 558 q 580 448 586 482 q 571 406 574 414 q 553 374 558 382 q 542 356 549 367 q 433 300 494 300 z "},"c":{"ha":706,"x_min":18,"x_max":701,"o":"m 361 -1 q 514 30 435 -1 q 647 113 593 61 q 701 228 701 165 q 669 310 701 274 q 581 347 636 347 q 489 322 546 347 l 478 317 l 463 308 q 424 289 447 299 q 363 272 388 272 q 334 286 344 272 q 315 318 324 300 q 292 454 292 382 q 386 683 292 599 q 408 696 396 692 q 438 684 428 690 q 464 665 449 678 q 510 627 489 633 q 543 621 531 621 q 579 631 561 621 q 621 674 604 643 l 626 685 l 635 757 q 613 843 635 793 q 538 931 590 893 q 400 968 486 968 q 226 906 314 968 q 78 728 138 844 q 18 451 18 613 q 60 225 18 328 q 178 60 101 122 q 361 -1 256 -1 z "},"d":{"ha":867,"x_min":17,"x_max":813,"o":"m 701 -49 q 774 -23 750 -49 q 805 35 797 3 q 813 85 813 67 l 811 131 q 801 764 801 419 l 801 910 q 795 1003 801 956 q 766 1082 789 1050 q 694 1114 743 1114 q 616 1076 640 1114 q 584 978 592 1038 q 576 851 576 918 l 578 731 q 414 790 504 790 q 222 727 313 790 q 74 563 131 664 q 17 346 17 461 q 50 180 17 260 q 146 49 83 100 q 294 -3 208 -3 l 303 -3 q 581 164 436 -3 l 581 114 q 701 -49 581 -49 m 301 256 q 285 282 296 260 q 274 342 274 304 q 307 449 274 396 q 396 532 340 503 q 414 536 404 536 q 461 526 440 536 q 496 488 486 504 l 472 451 q 410 357 451 414 q 332 275 371 310 l 301 256 z "},"e":{"ha":656,"x_min":22,"x_max":644,"o":"m 364 1 q 410 6 378 1 q 482 33 443 11 q 554 107 521 56 l 556 107 q 567 122 557 108 q 585 157 576 135 q 594 210 594 179 q 565 274 594 247 q 499 301 536 301 q 447 288 478 301 q 438 286 444 286 q 394 293 415 286 q 326 406 326 328 l 328 406 q 376 415 335 406 q 474 453 417 425 q 578 536 532 482 q 636 676 625 590 q 638 689 638 681 q 640 705 639 697 q 640 715 640 713 q 643 738 642 729 q 644 756 644 746 q 606 862 644 819 q 514 926 568 904 q 411 947 460 947 q 233 878 324 947 q 83 687 143 810 q 22 403 22 564 q 66 203 22 294 q 187 57 110 113 q 364 1 264 1 m 332 524 q 465 694 358 649 l 467 697 q 482 704 469 699 q 500 692 490 697 q 503 678 503 688 l 496 646 l 488 632 q 478 615 482 621 q 440 581 460 594 q 415 564 433 575 q 332 524 393 550 z "},"f":{"ha":700,"x_min":-15,"x_max":718,"o":"m 314 -17 q 199 42 233 -17 q 157 203 164 101 q 150 438 150 306 q 157 656 150 547 q 126 651 139 653 q 103 647 114 649 q 74 646 92 646 q 15 661 44 646 q -15 717 -15 676 q 7 771 -15 753 q 67 798 29 789 q 151 813 104 807 l 175 815 q 279 1135 200 1008 q 504 1269 363 1269 q 656 1206 593 1269 q 718 1040 718 1142 q 702 975 718 999 q 667 942 686 951 q 636 932 647 932 q 593 947 608 932 q 563 1010 569 974 q 563 1012 563 1011 q 562 1015 563 1013 q 557 1021 561 1018 q 536 999 546 1019 l 533 993 q 493 850 508 924 l 513 853 q 608 857 531 857 q 711 775 711 857 q 683 719 711 736 q 613 697 656 701 q 525 690 571 692 l 471 688 q 458 426 458 603 q 471 154 458 281 l 474 129 q 458 72 474 106 q 407 10 442 38 q 314 -17 372 -17 z "},"g":{"ha":736,"x_min":13,"x_max":697,"o":"m 292 -24 q 488 55 394 -24 q 639 281 581 133 q 697 632 697 428 q 687 857 697 774 q 658 982 676 940 q 612 1036 639 1024 q 553 1049 585 1049 l 528 1047 q 444 1117 499 1088 q 325 1146 390 1146 q 187 1103 260 1146 q 63 976 114 1061 q 13 761 13 890 q 71 566 13 638 q 221 494 129 494 q 326 524 276 494 q 419 592 376 554 l 419 574 q 379 299 419 431 q 349 243 379 289 l 346 238 q 296 199 335 221 q 271 194 283 194 q 245 201 247 199 q 241 205 243 203 q 239 208 239 207 l 242 207 l 238 213 q 153 265 208 265 q 82 219 100 265 q 69 167 69 192 q 96 90 69 135 q 172 11 122 46 q 292 -24 221 -24 m 224 703 l 219 711 l 217 724 q 215 735 217 729 q 214 776 214 740 l 214 796 q 215 804 215 799 q 231 857 221 832 l 232 861 q 274 919 246 897 q 282 929 281 928 l 283 929 l 303 943 q 351 949 314 949 q 392 926 372 946 q 310 779 328 793 l 304 772 q 224 704 292 753 l 224 703 z "},"h":{"ha":750,"x_min":58,"x_max":729,"o":"m 578 -50 q 658 -26 618 -50 q 729 135 729 15 l 724 219 q 699 413 717 304 q 647 604 682 521 l 636 625 q 601 674 625 647 q 542 724 578 701 q 457 746 507 746 q 399 728 428 746 l 371 710 q 269 581 311 675 l 258 931 q 250 1040 256 1018 l 242 1067 q 211 1114 235 1089 q 157 1139 188 1139 q 93 1099 117 1139 q 67 1033 74 1076 q 61 883 61 1001 l 60 610 q 60 300 61 367 l 58 203 q 172 -22 58 -22 q 217 -9 192 -22 q 261 47 242 4 q 281 179 281 90 l 279 232 l 288 246 q 338 340 311 281 q 403 468 390 454 q 428 192 428 282 q 447 53 428 103 q 495 -18 467 4 q 547 -45 524 -40 q 578 -50 571 -50 z "},"i":{"ha":303,"x_min":15,"x_max":282,"o":"m 160 0 q 82 31 106 0 q 53 110 58 63 q 49 208 49 158 q 58 519 49 417 q 92 654 68 621 q 158 688 117 688 q 210 669 183 688 q 247 558 247 640 l 246 497 q 244 439 244 478 q 249 286 244 342 q 258 194 253 231 q 263 115 263 157 q 214 15 263 43 q 160 0 188 0 m 154 836 q 103 846 132 836 q 53 878 75 856 q 41 893 46 888 q 34 901 36 899 q 31 908 32 904 q 26 917 29 911 q 19 935 24 924 l 18 946 q 15 975 15 961 q 40 1039 15 1004 q 67 1068 60 1065 q 139 1094 96 1094 q 197 1081 172 1094 q 244 1047 221 1067 q 272 1006 261 1033 q 282 956 282 979 q 255 884 282 918 q 189 840 228 850 l 176 839 q 154 836 165 836 z "},"j":{"ha":428,"x_min":-167,"x_max":385,"o":"m 47 -314 q 271 -208 188 -314 q 376 250 376 -75 q 372 533 376 433 q 347 669 368 632 q 276 707 326 707 q 231 692 251 707 q 192 582 192 664 l 192 567 q 193 507 193 549 q 190 279 193 358 q 181 131 186 156 l 179 126 q 100 -87 154 -26 q 94 -93 97 -90 q 75 -104 92 -96 q 56 -110 64 -108 q 21 -112 49 -112 l 4 -108 l -36 -86 q -79 -75 -57 -75 q -144 -103 -122 -75 q -167 -162 -167 -131 q -108 -265 -167 -217 q 47 -314 -50 -314 m 258 842 q 206 855 235 842 q 154 897 176 868 q 132 972 132 925 q 172 1058 132 1021 q 258 1094 213 1094 q 312 1081 282 1094 q 363 1040 342 1068 q 385 964 385 1011 q 344 878 385 914 q 258 842 304 842 z "},"k":{"ha":851,"x_min":40,"x_max":871,"o":"m 731 -35 q 634 -12 671 -35 q 529 76 597 11 q 321 257 461 140 l 322 178 q 301 58 322 110 q 179 -22 268 -22 q 101 4 138 -22 q 40 163 40 47 l 49 299 q 69 620 56 436 q 99 961 82 804 q 138 1172 117 1118 q 173 1208 149 1196 q 221 1219 197 1219 q 285 1194 261 1219 q 320 1129 310 1168 q 331 1051 331 1090 l 329 1018 l 318 636 l 513 800 q 585 850 558 838 q 642 863 613 863 q 701 841 669 863 q 733 771 733 819 q 697 671 733 721 q 567 515 661 621 q 482 424 526 469 l 511 408 q 788 257 704 315 q 871 110 871 199 q 830 10 871 54 q 731 -35 789 -35 z "},"l":{"ha":358,"x_min":47,"x_max":335,"o":"m 211 -22 q 142 1 175 -22 q 101 61 110 24 q 47 549 47 347 q 51 665 47 561 q 66 900 56 768 q 96 1141 76 1032 q 144 1282 115 1250 q 221 1314 181 1314 q 271 1301 244 1314 q 316 1260 297 1289 q 335 1185 335 1232 q 322 1056 335 1154 q 297 814 310 957 q 283 517 283 671 q 288 324 283 382 q 293 263 292 267 l 292 258 q 315 147 306 178 q 324 92 324 115 q 288 10 324 42 q 211 -22 251 -22 z "},"m":{"ha":1038,"x_min":43,"x_max":1022,"o":"m 901 -64 q 983 -31 944 -64 q 1022 81 1022 1 q 1011 194 1022 100 l 1001 286 q 942 586 979 482 q 810 706 906 690 l 797 708 q 699 679 739 708 q 619 583 658 650 q 426 715 557 715 q 342 697 375 715 q 288 657 308 679 q 258 618 268 635 l 258 640 q 253 699 258 664 q 227 760 247 733 q 163 788 207 788 q 119 775 136 788 q 91 747 101 763 q 76 718 81 731 q 72 704 72 706 q 65 605 69 689 q 55 416 60 521 q 47 230 50 311 q 43 146 43 149 q 89 13 43 49 q 146 -8 117 -8 q 247 63 218 -8 q 308 207 286 108 q 364 375 326 278 q 393 435 385 424 q 398 442 396 440 q 403 444 400 443 q 426 225 426 350 q 425 163 426 182 l 424 140 l 426 103 q 461 8 431 40 q 553 -29 500 -29 q 629 -3 601 -29 q 688 124 678 42 l 692 164 l 692 167 q 749 353 713 254 q 763 204 758 271 q 778 60 768 119 q 815 -32 789 0 q 901 -64 842 -64 z "},"n":{"ha":910,"x_min":49,"x_max":892,"o":"m 200 10 q 96 51 128 10 q 56 149 64 93 q 49 247 49 204 l 51 507 q 200 840 51 840 q 290 792 251 840 q 342 644 328 744 q 579 774 435 774 q 719 718 663 774 q 809 581 775 663 q 861 415 843 499 q 885 267 879 331 q 892 190 892 203 q 867 98 892 136 q 803 40 842 60 q 728 21 765 21 q 565 153 594 21 q 551 251 554 206 q 507 475 546 324 l 479 444 q 421 342 447 394 q 351 199 394 290 l 351 196 q 348 157 351 186 q 330 94 344 128 q 285 35 315 60 q 200 10 254 10 z "},"o":{"ha":715,"x_min":18,"x_max":693,"o":"m 292 -14 q 399 10 349 -14 q 501 75 450 33 l 531 99 q 597 173 560 124 q 664 296 635 222 q 693 468 693 369 q 638 697 693 601 q 509 844 583 793 q 375 894 435 894 q 324 885 364 894 q 245 843 283 876 q 194 739 207 810 q 77 549 136 688 q 18 279 18 410 q 47 153 18 221 q 135 35 75 85 q 292 -14 194 -14 m 285 236 l 281 238 l 275 247 q 268 281 268 264 q 335 507 276 400 q 376 399 376 463 l 376 389 q 347 298 367 336 q 285 236 326 260 z "},"p":{"ha":800,"x_min":53,"x_max":783,"o":"m 165 -251 q 232 -226 211 -251 q 258 -172 253 -201 q 264 -129 264 -143 l 263 -122 q 285 -60 276 -108 l 285 -62 q 293 49 286 -62 q 306 224 299 138 q 356 221 314 221 q 485 244 413 221 q 626 317 558 267 q 739 449 694 367 q 783 649 783 531 q 747 811 783 735 q 644 935 710 888 q 496 982 579 982 q 393 953 438 982 q 316 881 349 925 q 261 786 283 836 l 264 885 q 239 993 264 957 q 176 1029 214 1029 q 90 956 115 1029 q 58 694 64 882 q 53 281 53 539 q 58 -87 53 7 q 88 -217 64 -182 q 165 -251 111 -251 m 347 499 l 349 500 q 386 646 368 594 q 442 757 406 703 l 479 789 l 492 792 q 524 781 510 792 l 531 776 q 547 760 544 764 q 550 756 549 757 q 565 729 560 740 q 572 707 571 713 q 574 701 574 701 q 574 697 574 700 q 575 675 575 693 q 572 650 575 658 l 567 619 q 549 592 557 601 q 507 554 540 582 q 347 499 433 506 z "},"q":{"ha":758,"x_min":10,"x_max":731,"o":"m 625 -264 q 697 -237 663 -264 q 731 -157 731 -210 q 722 -24 731 -106 q 703 185 713 58 q 694 500 694 313 l 696 667 q 692 815 696 760 q 672 900 689 869 l 671 903 q 643 931 649 931 q 603 946 625 946 q 585 942 599 946 q 553 924 571 938 q 521 882 535 910 q 358 954 443 954 q 200 887 281 954 q 65 701 119 819 q 10 426 10 582 q 31 296 10 346 q 136 182 68 208 q 231 154 193 154 l 253 153 q 346 178 303 153 q 423 241 389 204 q 479 314 457 278 q 495 -2 485 115 q 522 -176 506 -119 q 565 -249 539 -233 q 625 -264 590 -264 m 286 397 l 285 426 q 290 499 285 463 q 308 584 296 536 q 332 668 321 632 q 344 707 343 704 q 347 715 346 710 q 360 739 351 726 q 389 758 368 751 q 408 751 399 756 q 433 737 418 747 q 472 706 447 726 l 468 692 q 336 453 442 592 l 332 447 q 286 397 319 431 z "},"r":{"ha":626,"x_min":47,"x_max":649,"o":"m 194 1 q 92 49 124 1 q 54 170 61 97 q 47 315 47 243 q 58 592 47 464 q 104 800 69 721 q 210 879 139 879 q 246 872 221 879 q 294 839 271 865 q 324 757 317 813 q 430 842 378 815 q 519 876 482 869 q 567 882 557 882 q 624 855 600 882 q 649 796 649 828 q 631 744 649 769 q 585 711 614 718 l 553 706 q 497 683 522 700 q 444 638 461 661 q 428 619 439 629 l 374 522 q 326 371 353 465 q 331 217 328 250 l 331 185 q 322 112 331 156 q 283 35 313 68 q 194 1 254 1 z "},"s":{"ha":532,"x_min":28,"x_max":508,"o":"m 264 0 q 398 36 344 0 q 478 123 451 72 q 504 221 504 174 q 478 319 504 276 q 424 397 453 363 q 367 465 394 432 q 322 528 364 465 l 317 538 q 290 650 290 613 q 296 686 290 669 q 319 704 301 703 q 372 693 339 704 q 429 672 397 672 q 479 691 450 672 q 508 760 508 710 l 507 771 q 508 789 508 779 q 507 808 508 801 q 503 822 506 815 q 499 835 500 829 q 413 932 476 901 q 303 963 350 963 q 108 869 188 963 q 28 658 28 775 q 47 540 28 589 q 88 460 67 490 q 119 419 110 429 l 122 415 q 213 303 169 350 l 257 249 l 238 253 q 168 263 204 263 q 81 234 122 263 q 40 146 40 206 q 75 63 40 94 q 161 15 110 31 q 264 0 213 0 z "},"t":{"ha":461,"x_min":15,"x_max":519,"o":"m 410 -171 q 315 -151 374 -171 q 196 -85 256 -132 q 94 43 136 -39 q 51 253 51 125 q 106 674 51 347 q 15 736 15 699 q 25 765 15 751 q 86 789 42 789 l 131 789 q 165 910 147 854 q 205 986 181 957 q 267 1015 229 1015 q 358 851 358 1015 l 357 771 q 420 755 399 767 q 448 728 442 743 q 454 703 454 713 q 442 667 454 685 q 371 636 422 636 l 349 638 q 326 448 335 518 q 313 335 318 378 q 308 253 308 292 q 311 197 308 225 q 340 68 322 139 q 349 57 342 64 l 361 46 q 392 26 383 28 l 429 14 q 489 -10 469 8 q 519 -76 519 -36 q 497 -140 519 -121 q 449 -165 475 -160 q 410 -171 422 -171 z "},"u":{"ha":844,"x_min":35,"x_max":818,"o":"m 335 -43 q 159 17 225 -43 q 64 167 93 76 q 35 351 35 258 q 45 509 35 392 q 83 731 56 626 q 133 794 100 778 q 188 811 167 811 q 267 776 238 811 q 297 707 297 740 q 290 621 297 686 q 274 382 274 463 q 281 274 274 317 q 314 206 288 232 q 318 203 315 206 q 326 200 321 201 q 336 199 331 199 q 456 282 392 199 l 511 376 q 540 461 531 431 q 565 638 564 543 q 574 746 567 692 q 606 838 581 800 q 690 875 632 875 q 799 799 768 875 q 818 700 818 750 q 749 316 818 483 q 569 53 679 149 q 335 -43 458 -43 z "},"v":{"ha":704,"x_min":-6,"x_max":694,"o":"m 346 -17 q 453 29 404 -17 q 533 181 492 74 q 611 412 575 288 q 671 630 647 536 q 694 733 694 724 q 683 806 694 771 q 661 851 672 842 q 618 871 643 871 q 577 856 601 871 q 535 818 553 842 q 511 788 521 804 q 450 632 496 763 q 375 432 390 464 q 291 683 329 589 q 220 822 253 776 q 160 880 188 867 q 107 893 132 893 q 58 882 85 893 q 13 844 32 871 q -6 774 -6 818 q 3 715 -6 740 q 21 668 11 690 l 31 646 q 146 271 113 424 q 192 114 169 178 q 249 17 214 50 q 346 -17 283 -17 z "},"w":{"ha":1113,"x_min":33,"x_max":1078,"o":"m 276 -6 q 406 46 346 -1 q 436 67 410 47 q 492 121 463 88 l 493 118 q 521 81 499 107 q 589 29 543 54 q 710 4 635 4 q 989 168 897 4 q 1065 400 1051 278 l 1071 450 q 1078 568 1078 500 q 1067 710 1078 647 q 1026 808 1056 772 q 944 844 997 844 q 885 828 915 844 q 831 715 831 799 q 837 626 831 669 q 843 519 843 583 q 818 331 843 410 q 783 261 806 294 q 745 228 758 233 q 704 222 732 222 q 682 226 689 222 q 668 242 675 229 l 664 256 q 642 428 642 301 l 644 497 q 654 582 654 563 q 622 648 654 619 q 551 676 589 676 q 488 657 518 676 q 450 603 458 638 q 436 483 440 543 q 424 429 431 456 q 402 363 403 365 q 401 360 401 361 q 391 340 400 358 q 365 294 382 322 l 364 294 q 324 253 350 275 l 317 247 q 299 238 308 240 q 288 363 288 286 l 290 467 q 306 658 294 581 q 315 746 315 704 q 307 782 315 754 q 274 835 299 810 q 196 860 249 860 q 89 782 119 860 q 74 747 79 765 q 51 621 69 728 q 33 392 33 514 l 33 363 q 67 143 33 239 q 257 -6 118 -6 l 276 -6 z "},"x":{"ha":742,"x_min":-7,"x_max":726,"o":"m 192 -1 q 141 10 172 -1 q 85 49 110 21 q 61 126 61 76 q 79 190 61 161 q 114 238 97 218 l 126 254 q 240 406 150 283 l 132 533 q 18 675 38 643 q -1 731 3 713 l -6 747 q -7 763 -7 754 q 22 825 -7 807 q 74 843 50 843 q 194 785 132 843 q 335 635 257 726 l 374 590 l 417 653 q 503 772 461 719 q 599 846 544 824 l 592 843 q 646 858 617 858 q 689 844 667 858 q 726 763 726 822 q 685 619 726 694 q 542 394 643 543 l 663 246 q 703 185 692 208 q 714 136 714 161 q 676 53 714 81 q 606 26 639 26 q 528 56 560 26 q 451 146 497 85 l 406 203 l 382 171 q 280 40 319 82 q 192 -1 240 -1 z "},"y":{"ha":753,"x_min":28,"x_max":700,"o":"m 354 -304 q 457 -279 411 -304 q 530 -229 503 -254 q 557 -201 557 -204 q 613 -141 579 -187 q 673 6 646 -94 q 700 290 700 107 q 692 624 700 501 q 668 808 685 747 q 627 888 651 869 q 571 906 603 906 q 514 889 543 906 q 457 769 461 858 q 432 730 440 751 q 415 675 424 708 q 364 517 403 624 l 353 494 q 301 406 328 440 l 267 369 q 232 500 240 422 q 225 629 225 535 q 231 738 225 703 q 235 793 235 764 q 196 901 235 872 q 153 918 174 918 q 43 779 71 918 q 28 594 28 700 q 40 426 28 532 q 102 235 51 319 q 265 144 153 151 q 467 263 365 144 q 414 -33 463 86 q 396 -87 403 -61 q 390 -94 392 -93 q 386 -97 388 -96 q 353 -111 374 -104 q 290 -140 321 -121 q 258 -204 258 -160 q 285 -274 258 -243 q 354 -304 313 -304 z "},"z":{"ha":544,"x_min":18,"x_max":556,"o":"m 221 -10 l 251 -8 q 407 3 342 -6 q 528 57 493 11 q 556 128 556 92 q 542 189 556 160 q 497 238 528 218 q 413 257 465 257 q 379 254 397 257 l 301 240 q 433 568 407 494 q 458 669 458 635 q 418 798 458 749 q 320 870 378 847 q 208 893 263 893 q 104 878 156 893 q 18 785 18 853 q 153 696 18 696 l 194 696 q 208 692 199 696 q 226 684 217 689 q 240 674 236 679 q 197 568 235 654 q 57 231 82 297 q 29 121 29 158 q 85 29 29 56 q 221 -10 133 -10 z "},"{":{"ha":871,"x_min":50,"x_max":838,"o":"m 779 799 q 815 810 801 799 q 833 835 828 821 q 838 858 838 849 q 758 965 838 911 q 578 1072 678 1019 q 353 1231 399 1168 q 306 1257 332 1257 q 269 1245 282 1257 q 251 1219 256 1233 q 246 1196 246 1206 q 299 1115 246 1161 q 425 1021 351 1068 q 567 934 499 974 q 666 872 636 894 q 722 826 696 849 q 779 799 746 799 m 739 443 q 697 449 722 443 q 339 479 560 479 q 119 468 243 479 q 90 483 103 468 q 78 514 78 497 q 111 558 78 550 q 432 599 271 599 q 565 592 492 599 q 772 558 740 579 q 804 504 804 538 q 796 471 804 489 q 739 443 779 443 m 125 -185 q 74 -164 97 -185 q 50 -115 50 -143 q 165 25 50 -56 q 415 167 281 106 q 606 228 550 228 q 661 203 639 228 q 683 150 683 178 q 667 103 683 125 q 626 75 651 82 q 490 31 528 46 q 375 -29 453 15 q 232 -124 286 -78 q 125 -185 164 -185 z "},"|":{"ha":228,"x_min":28,"x_max":200,"o":"m 110 -119 q 79 -111 97 -119 q 47 -82 61 -103 q 32 -25 32 -61 l 33 17 q 42 472 42 256 q 32 983 42 754 q 28 1185 28 1118 q 57 1281 28 1256 q 92 1296 74 1296 q 117 1289 104 1296 q 165 1171 146 1274 q 196 753 188 1046 q 200 257 200 600 q 187 -40 200 40 q 110 -119 174 -119 z "},"}":{"ha":758,"x_min":43,"x_max":725,"o":"m 168 900 q 421 923 292 900 q 638 982 550 946 q 725 1057 725 1018 q 671 1110 725 1110 q 601 1090 657 1110 q 86 992 338 1001 q 43 949 43 990 q 85 903 43 906 q 168 900 126 900 m 521 456 q 358 469 489 456 q 156 511 199 486 q 139 544 139 525 q 197 585 139 585 q 231 581 204 585 q 475 551 293 568 q 530 549 504 551 q 575 535 556 546 q 594 497 594 524 q 521 456 594 456 m 551 -119 q 494 -99 522 -119 q 418 -37 465 -79 q 308 56 376 0 l 300 61 q 172 146 276 82 q 150 188 150 163 q 163 219 150 206 q 196 233 175 233 q 443 121 224 233 q 574 44 529 78 q 632 -40 632 6 q 613 -92 632 -65 q 551 -119 594 -119 z "},"~":{"ha":631,"x_min":28,"x_max":603,"o":"m 424 219 q 542 253 481 219 q 603 335 603 288 q 599 357 603 339 q 583 391 596 375 q 542 407 569 407 q 478 383 506 407 q 474 378 478 382 q 463 367 469 374 q 449 358 456 361 l 453 361 l 440 358 q 423 360 432 360 q 400 368 414 360 q 365 393 381 378 q 192 483 275 483 q 74 434 119 483 q 28 339 28 385 q 42 295 28 321 q 93 269 56 269 q 134 283 115 269 q 160 319 153 296 q 188 342 167 342 q 221 325 203 338 l 215 331 q 235 314 219 331 q 424 219 329 219 z "},"¡":{"ha":256,"x_min":28,"x_max":228,"o":"m 107 -271 q 28 -139 28 -271 q 31 -83 28 -121 q 40 244 40 63 q 33 496 40 443 l 31 532 q 49 606 31 582 q 90 638 67 631 q 124 646 113 646 q 194 617 172 646 q 222 533 217 588 q 228 400 228 478 l 226 333 q 218 42 226 156 q 196 -135 210 -71 q 166 -229 182 -200 q 134 -265 150 -258 q 107 -271 118 -271 m 117 811 q 59 829 78 811 q 35 869 40 847 q 29 899 29 890 q 47 953 29 933 q 87 983 64 974 q 128 992 110 992 q 179 979 151 992 q 225 907 225 960 q 210 860 225 878 l 203 846 q 149 815 186 815 l 143 815 q 117 811 129 811 z "},"¢":{"ha":643,"x_min":28,"x_max":615,"o":"m 368 -135 q 411 -122 390 -135 q 446 -31 446 -99 q 442 40 446 -17 l 435 115 q 554 181 515 144 q 604 250 593 218 q 615 297 615 282 q 583 369 615 342 q 521 396 550 396 q 483 388 514 396 q 413 364 453 381 q 406 419 408 399 q 401 454 404 439 q 397 490 399 469 q 392 553 394 510 q 388 681 390 596 q 406 671 397 676 l 410 667 q 419 656 411 665 q 442 637 428 646 q 478 628 457 628 q 534 660 513 628 q 556 733 556 693 q 545 794 556 751 q 498 874 535 836 q 383 922 461 913 q 373 1072 382 1025 q 332 1118 364 1118 q 297 1087 308 1118 q 281 1008 286 1056 q 274 910 276 961 q 154 828 210 888 q 63 681 99 768 q 28 490 28 593 q 69 273 28 356 q 166 149 110 190 q 275 100 222 108 l 276 74 q 284 -15 278 33 q 309 -99 290 -62 q 368 -135 328 -135 m 265 431 q 263 485 263 456 q 268 544 263 517 l 265 431 z "},"£":{"ha":990,"x_min":28,"x_max":963,"o":"m 192 13 q 226 17 226 17 q 250 24 226 18 q 397 119 319 40 l 413 111 q 520 56 456 85 q 658 28 585 28 q 740 43 675 28 l 803 57 l 849 76 l 865 92 q 906 129 883 107 q 963 213 963 188 q 947 276 963 256 q 911 304 932 297 q 875 311 890 311 q 793 281 826 311 q 728 216 733 218 q 675 200 724 214 q 657 199 668 199 q 609 203 626 200 q 560 219 592 207 l 489 257 q 547 444 529 347 q 633 436 600 436 q 730 462 699 436 q 761 518 761 488 q 742 563 761 540 q 696 586 724 586 q 658 581 686 586 q 631 575 631 576 q 583 576 596 575 q 578 576 581 576 q 572 577 575 576 q 564 579 569 578 l 578 822 q 601 932 582 872 l 621 968 q 630 976 625 972 q 661 979 635 979 l 676 968 q 688 953 686 954 q 692 947 689 951 q 696 938 694 942 q 746 892 713 892 q 774 910 757 892 l 789 926 q 800 969 800 947 q 796 1007 800 989 q 725 1103 776 1069 q 628 1132 681 1132 q 508 1090 556 1132 q 433 976 461 1047 q 388 817 404 906 q 360 633 371 729 q 278 642 319 642 q 207 634 246 642 q 140 608 168 626 q 113 556 113 589 q 134 511 113 525 q 169 497 156 497 q 210 507 190 497 q 240 517 229 517 q 294 515 274 517 l 340 506 q 303 381 315 406 q 301 374 301 375 q 295 362 300 372 q 278 329 290 351 l 253 331 q 89 276 150 331 q 28 153 28 222 l 38 132 q 67 83 47 110 q 115 34 86 56 q 181 13 143 13 l 192 13 z "},"¤":{"ha":749,"x_min":28,"x_max":721,"o":"m 79 25 q 231 147 135 25 q 310 138 269 138 q 469 176 392 138 q 512 123 504 133 q 542 81 519 113 l 547 74 q 565 57 554 67 q 617 33 593 33 q 663 54 643 33 q 682 107 682 75 q 678 136 682 118 q 653 188 674 154 q 589 275 633 221 q 642 439 642 351 q 599 589 642 522 q 682 674 656 642 q 715 724 708 707 q 721 747 721 740 q 696 818 721 796 q 636 840 671 840 q 578 819 601 840 q 529 764 554 797 q 490 718 513 743 q 319 788 396 788 q 260 776 279 786 q 232 757 240 765 q 169 824 196 801 q 107 846 142 846 q 70 832 83 846 q 51 801 57 818 q 46 774 46 783 q 56 733 46 753 q 78 697 67 714 q 104 658 90 681 q 135 611 118 635 l 133 610 q 110 567 128 601 q 75 483 92 533 q 58 378 58 433 q 103 232 58 296 l 100 229 q 28 81 28 157 q 42 41 28 57 q 79 25 57 25 m 308 329 q 293 331 296 329 q 282 335 290 333 q 257 383 257 346 q 259 416 257 403 q 267 447 261 429 q 288 499 274 465 l 289 501 q 315 551 294 515 l 394 524 l 399 522 q 442 494 415 518 q 460 461 457 468 q 464 435 464 447 q 449 385 464 406 q 388 343 435 365 l 376 340 q 308 329 347 329 z "},"¥":{"ha":649,"x_min":28,"x_max":621,"o":"m 328 15 q 276 34 294 15 q 249 78 257 53 q 238 123 240 103 q 235 146 235 143 l 235 149 l 142 146 q 119 156 126 146 q 111 179 111 167 q 119 202 111 193 q 155 219 128 211 q 238 238 182 226 l 243 289 l 182 288 q 97 298 119 288 q 75 332 75 308 q 123 377 75 364 q 258 394 171 390 l 260 406 q 210 443 231 414 q 160 557 189 472 q 78 815 132 642 l 51 900 q 28 1001 28 964 q 58 1075 28 1049 q 118 1101 88 1101 q 215 1015 176 1101 q 324 701 253 929 l 335 669 q 437 934 396 846 q 506 1049 478 1022 q 563 1076 535 1076 q 599 1064 586 1076 q 616 1035 611 1051 q 621 1008 621 1019 q 599 921 621 965 l 596 917 q 482 597 511 711 q 442 406 453 483 q 538 413 517 410 l 550 414 q 590 394 574 414 q 607 353 607 374 q 590 310 607 329 q 547 292 572 292 l 428 292 l 426 260 l 528 264 q 563 260 542 264 q 599 244 583 257 q 615 203 615 232 q 536 146 615 146 q 501 147 514 146 q 472 150 489 149 q 424 151 454 151 q 418 92 424 124 q 328 15 406 15 z "},"¦":{"ha":246,"x_min":28,"x_max":218,"o":"m 128 410 q 60 460 90 410 q 51 495 53 472 q 50 568 50 518 q 132 1164 51 1118 q 158 1172 146 1172 q 201 1151 185 1172 q 218 1086 218 1129 q 213 989 218 1051 q 202 833 207 926 q 197 606 197 739 l 197 517 l 199 504 q 192 463 199 476 q 174 438 185 449 l 164 426 q 128 410 149 410 m 113 -304 q 55 -279 82 -304 q 28 -176 28 -254 q 36 65 28 -101 q 68 324 47 285 q 136 363 94 363 q 196 335 174 363 q 218 269 218 307 l 215 217 q 199 -121 199 -39 l 200 -167 q 194 -226 200 -194 q 171 -281 189 -258 q 113 -304 153 -304 z "},"§":{"ha":503,"x_min":28,"x_max":475,"o":"m 283 -58 q 360 -33 322 -58 q 422 40 397 -8 q 446 163 446 89 q 372 379 446 279 q 438 422 415 394 q 467 479 460 450 q 475 524 475 508 q 388 713 475 604 q 322 785 351 754 q 282 833 286 822 l 258 876 q 228 925 238 915 q 217 971 217 956 q 215 977 215 972 q 214 990 214 982 q 218 1015 214 1007 l 218 1017 l 228 1021 q 239 1019 239 1021 l 249 1018 q 318 986 307 993 q 349 976 335 976 q 391 993 374 976 q 408 1033 408 1010 q 401 1063 408 1050 l 385 1085 q 218 1175 325 1175 q 97 1119 138 1175 q 57 990 57 1064 q 122 792 57 893 q 43 599 43 699 q 97 450 43 519 q 169 367 136 399 q 257 258 226 315 l 265 240 q 276 199 274 213 l 279 161 q 278 149 279 157 q 276 135 276 142 l 274 117 q 267 106 274 114 q 254 92 260 99 l 249 86 l 246 85 q 229 93 238 88 q 225 97 226 96 l 224 97 l 224 99 q 188 133 222 99 q 160 179 168 163 q 152 210 153 196 q 149 237 151 225 q 147 251 147 249 q 126 281 143 269 q 92 293 108 293 q 44 267 61 293 q 28 211 28 242 q 67 92 28 156 q 148 -5 108 22 q 201 -35 188 -32 l 204 -36 l 203 -36 q 283 -58 257 -58 m 317 531 l 315 531 q 282 547 301 533 q 193 597 263 561 q 199 631 193 619 q 217 668 204 643 l 275 600 l 285 588 q 317 531 313 542 z "},"¨":{"ha":515,"x_min":28,"x_max":488,"o":"m 118 996 q 176 1022 150 996 q 203 1081 203 1049 q 174 1147 200 1122 q 113 1171 147 1171 q 54 1144 81 1171 q 28 1086 28 1118 q 53 1022 28 1049 q 118 996 79 996 m 388 982 q 318 1011 347 985 q 283 1100 283 1056 q 308 1156 283 1131 q 364 1181 333 1181 l 375 1179 l 392 1181 q 438 1167 414 1181 q 474 1129 461 1153 q 488 1078 488 1106 q 458 1012 488 1040 q 388 982 428 983 z "},"©":{"ha":1144,"x_min":28,"x_max":1117,"o":"m 614 314 q 696 335 653 314 q 739 404 739 357 q 716 457 739 435 q 664 479 693 479 q 614 474 650 479 l 581 467 l 556 483 q 517 521 528 501 l 513 536 q 508 561 508 551 q 510 581 510 575 q 510 592 510 588 q 518 614 511 597 l 529 636 q 542 649 529 639 q 551 653 543 650 q 575 657 560 657 q 593 650 582 656 q 614 635 603 642 l 621 629 q 648 608 633 618 q 683 599 663 599 q 729 615 706 599 q 753 676 753 632 q 747 706 753 682 q 723 759 742 731 q 667 809 704 788 q 568 831 631 831 q 475 806 522 831 q 397 732 428 781 q 365 613 365 683 q 406 442 365 508 q 503 345 446 376 q 614 314 561 314 m 569 -18 q 746 13 651 -18 q 924 108 840 43 q 1063 277 1008 174 q 1117 526 1117 381 q 1069 760 1117 661 q 952 926 1022 858 q 805 1033 882 993 q 663 1089 728 1072 q 569 1106 599 1106 q 544 1105 550 1106 q 526 1101 539 1104 l 519 1103 q 449 1129 496 1129 q 353 1094 421 1129 q 212 987 286 1058 q 83 809 138 915 q 28 560 28 703 q 64 357 28 460 q 170 170 100 254 q 340 34 240 86 q 569 -18 440 -18 m 579 161 l 531 164 l 507 169 q 426 192 472 175 l 425 193 q 353 235 408 199 q 303 281 324 258 q 281 306 283 303 q 272 319 279 311 q 222 404 256 336 q 217 422 221 411 q 189 567 189 482 q 193 628 189 599 q 221 724 197 658 q 283 831 242 771 q 375 922 350 904 l 379 926 q 463 976 413 953 q 506 933 476 947 l 531 925 q 667 878 606 901 q 706 859 672 876 q 778 813 739 842 q 850 742 833 767 l 850 740 q 897 661 875 706 l 899 658 q 925 563 908 642 q 928 503 928 532 q 906 375 928 422 q 899 356 899 363 q 858 288 871 300 l 857 285 q 807 235 822 244 q 796 225 800 231 q 736 192 772 208 l 724 188 q 629 164 690 175 q 579 161 610 161 z "},"ª":{"ha":418,"x_min":28,"x_max":390,"o":"m 322 926 q 341 931 328 926 q 365 948 354 935 q 376 989 376 961 l 376 997 q 389 1192 376 1100 l 390 1211 q 388 1233 390 1218 q 375 1260 385 1247 q 344 1272 365 1272 q 313 1256 324 1272 l 311 1254 q 269 1292 294 1276 q 215 1307 243 1307 q 131 1285 175 1307 q 58 1215 88 1263 q 28 1090 28 1168 q 56 981 28 1028 q 136 933 85 933 q 164 938 146 933 q 209 963 182 943 q 269 1026 236 983 l 269 992 q 281 947 269 961 q 304 930 292 933 q 322 926 317 926 m 143 1040 q 139 1076 139 1069 q 161 1163 139 1135 l 175 1176 q 211 1192 203 1192 l 226 1192 q 237 1190 233 1192 q 247 1188 240 1189 l 256 1183 q 201 1100 214 1115 l 200 1099 q 143 1040 161 1051 z "},"«":{"ha":1083,"x_min":28,"x_max":1056,"o":"m 503 115 q 299 174 496 115 q 103 233 135 222 q 49 273 71 244 q 28 331 28 301 q 60 400 28 374 q 172 471 92 426 q 335 567 235 506 q 384 596 358 583 q 439 608 410 608 q 467 603 456 608 q 483 592 478 599 q 492 579 489 586 q 496 568 496 572 l 496 563 q 446 473 496 518 q 265 340 396 428 l 347 321 q 537 269 489 290 q 585 196 585 249 q 555 133 585 151 q 503 115 525 115 m 974 185 q 769 243 967 185 q 574 303 606 292 q 520 342 542 314 q 499 400 499 371 q 531 469 499 443 q 643 540 563 496 q 806 636 706 575 q 855 665 829 653 q 910 678 881 678 q 938 673 926 678 q 954 662 949 668 q 963 649 960 656 q 967 638 967 642 l 967 632 q 917 542 967 588 q 736 410 867 497 l 818 390 q 1008 339 960 360 q 1056 265 1056 318 q 1026 203 1056 221 q 974 185 996 185 z "},"¬":{"ha":768,"x_min":28,"x_max":740,"o":"m 640 131 q 583 158 610 131 q 556 233 556 186 l 563 349 q 435 342 499 342 l 281 342 q 85 350 143 342 q 28 406 28 358 q 85 464 28 453 q 292 481 143 475 l 378 486 q 503 490 440 490 q 617 482 560 490 q 653 492 631 492 q 700 475 676 492 q 739 369 739 447 l 740 304 q 734 225 740 265 q 706 158 728 185 q 640 131 685 131 z "},"®":{"ha":1097,"x_min":28,"x_max":1069,"o":"m 443 268 q 488 306 478 268 l 489 308 q 532 375 532 332 l 532 378 l 556 354 q 610 306 579 329 q 676 282 640 282 q 717 295 703 282 q 738 325 732 308 q 744 353 744 342 q 719 406 744 382 q 631 456 694 429 q 713 614 713 526 q 683 708 713 668 q 601 747 653 747 q 551 736 572 747 q 517 713 529 725 q 503 699 504 701 l 500 696 l 501 771 q 472 844 501 825 q 436 856 454 856 q 383 826 399 856 q 363 742 367 797 q 360 607 360 686 q 374 347 360 425 q 443 268 389 268 m 519 568 l 517 568 l 519 599 q 526 638 521 618 q 547 678 531 658 q 586 699 564 699 q 613 688 601 699 q 625 657 625 676 l 621 638 l 617 632 q 597 612 611 625 q 581 597 582 599 q 576 593 579 596 q 551 579 574 590 q 543 576 544 576 q 519 568 542 575 m 517 47 q 684 81 589 47 q 866 178 779 114 q 1011 333 953 242 q 1069 538 1069 424 q 1012 758 1069 665 q 871 911 954 850 q 703 1008 788 972 q 558 1058 618 1043 q 496 1072 499 1072 q 456 1069 474 1072 q 422 1057 439 1067 l 392 1060 q 289 1031 350 1060 q 168 943 228 1003 q 68 793 108 883 q 28 578 28 703 q 137 226 28 381 q 417 57 246 72 q 449 51 419 56 q 517 47 479 47 m 568 168 q 498 172 515 168 q 471 178 481 176 q 457 182 461 181 q 451 183 453 183 l 450 183 q 422 201 442 188 q 381 228 403 214 q 338 257 340 257 l 281 315 q 271 328 271 326 q 240 375 253 349 l 221 417 l 222 408 l 217 425 q 202 469 210 442 q 190 528 194 496 q 186 590 186 542 q 189 642 186 628 l 189 647 l 190 650 q 215 742 190 672 q 267 828 249 810 q 331 892 319 888 l 347 904 q 358 913 354 908 l 414 946 q 454 917 432 928 q 511 894 476 906 l 582 867 q 648 835 600 860 q 749 771 696 810 q 833 686 825 706 l 832 690 q 875 618 847 672 q 892 556 889 581 q 894 517 894 540 q 892 482 894 485 l 885 451 q 840 319 864 369 q 672 183 778 215 q 624 172 633 172 q 568 168 622 171 z "},"¯":{"ha":656,"x_min":28,"x_max":628,"o":"m 135 978 q 28 1058 28 978 q 136 1138 28 1138 q 186 1134 164 1138 q 254 1131 208 1131 q 395 1135 343 1131 q 481 1144 447 1139 q 546 1150 515 1150 q 590 1140 567 1150 q 628 1078 628 1124 q 603 1022 628 1039 q 531 1001 578 1006 q 421 996 485 997 l 404 996 q 204 983 317 996 l 200 983 q 135 978 168 978 z "},"°":{"ha":379,"x_min":28,"x_max":351,"o":"m 182 932 q 302 988 253 932 q 351 1115 351 1044 q 327 1217 351 1172 q 268 1285 303 1261 q 200 1310 233 1310 q 142 1286 161 1310 q 122 1236 122 1263 l 122 1226 q 60 1170 93 1214 q 28 1074 28 1126 q 56 990 28 1021 q 119 945 83 958 q 182 932 156 932 m 160 1046 q 135 1054 143 1050 q 125 1065 126 1058 q 122 1081 124 1071 l 122 1083 q 158 1146 122 1108 l 168 1157 q 196 1128 186 1140 q 207 1088 206 1115 l 196 1064 l 188 1053 q 176 1049 182 1050 q 160 1046 169 1047 z "},"±":{"ha":606,"x_min":28,"x_max":578,"o":"m 274 293 q 208 383 208 293 q 210 431 208 410 q 213 482 211 451 q 122 486 158 482 q 28 550 28 494 q 55 595 28 582 q 118 612 82 608 q 188 615 154 615 l 213 617 l 214 661 l 213 729 q 231 806 213 782 q 275 831 249 831 q 347 642 343 831 l 347 626 q 474 633 407 633 q 513 628 488 633 q 558 605 538 624 q 578 546 578 586 q 553 490 578 513 q 494 467 528 468 q 463 465 479 465 q 347 472 407 465 l 346 440 q 342 365 346 399 q 323 313 338 332 q 274 293 308 293 m 463 -1 q 367 4 421 -1 q 161 17 318 10 l 154 18 q 28 82 28 18 q 53 127 28 114 q 118 145 78 140 q 207 151 158 150 q 338 158 256 151 q 474 167 403 164 q 513 162 488 167 q 558 138 538 157 q 578 79 578 119 q 553 24 578 46 q 494 0 528 1 l 463 -1 z "},"²":{"ha":360,"x_min":28,"x_max":332,"o":"m 96 914 q 62 925 78 914 q 42 954 46 936 q 35 1039 35 996 q 67 1227 35 1150 q 135 1363 99 1304 q 176 1442 158 1404 q 193 1521 193 1481 q 183 1565 193 1551 q 162 1582 174 1579 q 144 1585 150 1585 q 79 1571 104 1582 q 57 1564 65 1564 q 36 1573 44 1564 q 28 1593 28 1582 q 42 1614 28 1604 q 96 1642 68 1629 q 153 1654 124 1654 q 228 1630 201 1654 q 265 1573 254 1606 q 276 1517 276 1540 q 256 1414 276 1463 q 206 1317 235 1365 q 155 1214 178 1268 q 132 1096 132 1160 q 143 1003 132 1050 q 285 1025 264 1025 q 317 1009 301 1025 q 332 978 332 993 q 292 928 332 936 q 158 919 251 919 l 118 919 q 96 914 110 914 z "},"³":{"ha":356,"x_min":28,"x_max":328,"o":"m 124 849 q 217 881 169 849 q 296 966 264 914 q 328 1076 328 1018 q 317 1135 328 1090 q 266 1222 307 1181 q 139 1268 225 1263 q 219 1399 192 1344 q 247 1499 247 1453 q 238 1545 247 1515 q 199 1599 229 1575 q 103 1622 168 1622 q 64 1615 81 1622 q 47 1593 47 1608 q 60 1574 47 1582 q 93 1561 74 1567 q 140 1540 118 1553 q 161 1500 161 1526 q 158 1478 160 1482 q 153 1461 156 1474 q 60 1290 89 1339 q 28 1222 28 1236 q 43 1193 28 1204 q 104 1178 58 1182 q 151 1167 135 1174 q 175 1156 168 1161 l 182 1151 l 183 1150 q 204 1118 186 1147 l 203 1088 q 200 1074 201 1079 l 197 1068 l 178 1039 q 118 978 158 1011 l 111 972 q 94 954 104 965 q 77 930 85 943 q 69 904 69 917 q 80 866 69 878 q 103 851 90 854 q 124 849 115 849 z "},"´":{"ha":464,"x_min":28,"x_max":436,"o":"m 96 896 q 203 943 119 896 q 361 1048 286 990 q 436 1138 436 1106 q 415 1199 436 1174 q 363 1219 399 1219 q 274 1175 331 1219 l 146 1086 q 53 1019 78 1043 q 28 960 28 996 q 47 916 28 936 q 96 896 65 896 z "},"µ":{"ha":653,"x_min":28,"x_max":625,"o":"m 131 51 q 195 85 174 51 q 226 169 217 119 q 238 268 235 218 q 275 265 257 265 q 374 291 329 265 q 451 352 418 317 q 504 419 483 388 q 585 462 560 424 q 618 585 611 500 q 625 821 625 671 l 625 950 q 619 1000 625 963 q 590 1072 614 1038 q 511 1106 567 1106 q 425 1072 451 1106 q 390 987 399 1039 q 381 876 382 935 l 378 835 q 369 767 372 801 l 368 738 q 335 614 347 638 l 332 610 q 311 565 319 581 q 295 540 303 550 q 276 515 288 529 q 256 594 269 525 l 257 675 q 253 860 257 767 l 254 897 q 252 918 254 907 q 249 937 250 929 q 247 947 247 944 q 240 969 247 950 q 212 1005 232 988 q 154 1022 192 1022 q 97 1003 114 1022 q 72 968 79 985 l 71 965 q 40 867 49 933 q 28 668 28 769 q 57 439 28 511 q 44 250 49 301 l 39 185 q 44 138 39 169 q 67 78 49 106 q 131 51 86 51 z "},"¶":{"ha":603,"x_min":28,"x_max":575,"o":"m 485 -72 q 435 -53 457 -72 q 404 -8 414 -35 q 399 51 399 21 l 397 140 q 400 278 397 143 q 413 585 403 413 q 442 896 422 758 q 417 897 428 896 q 325 900 394 899 q 318 760 322 828 q 307 411 307 626 q 314 174 307 269 l 317 100 q 313 46 317 72 q 296 13 310 25 q 265 -3 282 1 q 239 -8 249 -8 q 187 15 203 -8 q 167 72 171 39 q 163 133 163 106 l 164 428 q 101 458 132 429 q 49 547 69 486 q 28 703 28 607 q 38 824 28 747 q 217 1054 64 1015 q 258 1075 238 1075 q 294 1063 278 1075 q 335 1060 299 1063 q 419 1051 372 1058 q 510 1026 467 1043 l 518 1026 q 549 1010 536 1026 l 554 1001 q 565 983 561 990 q 569 969 568 976 q 570 950 569 963 q 572 922 571 938 q 564 772 572 881 q 550 454 550 594 q 569 96 550 307 q 575 31 575 43 q 572 -8 575 10 q 533 -58 563 -44 q 485 -72 503 -72 z "},"·":{"ha":360,"x_min":28,"x_max":332,"o":"m 158 185 q 233 205 193 185 q 303 268 274 225 q 332 379 332 311 q 320 458 332 413 q 282 538 308 503 q 213 572 256 572 q 157 549 171 572 q 147 550 153 550 l 136 549 q 76 507 100 544 q 40 422 51 469 q 28 344 28 374 q 42 256 28 288 q 111 189 65 199 l 158 185 z "},"∙":{"ha":360,"x_min":28,"x_max":332,"o":"m 158 185 q 233 205 193 185 q 303 268 274 225 q 332 379 332 311 q 320 458 332 413 q 282 538 308 503 q 213 572 256 572 q 157 549 171 572 q 147 550 153 550 l 136 549 q 76 507 100 544 q 40 422 51 469 q 28 344 28 374 q 42 256 28 288 q 111 189 65 199 l 158 185 z "},"¸":{"ha":361,"x_min":28,"x_max":333,"o":"m 92 -401 q 136 -395 99 -401 q 219 -370 174 -389 q 299 -317 264 -351 q 333 -228 333 -283 q 301 -132 333 -182 q 224 -75 269 -82 q 231 -43 231 -50 q 215 -10 231 -24 q 181 4 199 4 q 144 -19 160 4 q 121 -68 136 -35 q 92 -133 106 -101 q 79 -174 79 -165 q 93 -208 79 -190 q 132 -226 107 -226 q 155 -222 146 -226 q 173 -209 164 -217 q 199 -193 182 -201 l 207 -218 l 206 -221 q 179 -239 189 -235 l 172 -242 q 94 -264 122 -261 q 47 -284 67 -267 q 28 -329 28 -301 q 44 -376 28 -350 q 92 -401 61 -401 z "},"¹":{"ha":247,"x_min":28,"x_max":219,"o":"m 172 860 q 208 875 197 860 q 219 904 219 890 q 208 935 219 922 q 176 950 197 949 q 172 1100 172 1025 q 185 1525 172 1306 l 188 1568 q 185 1597 186 1583 q 172 1617 183 1610 q 150 1625 161 1625 q 115 1597 125 1625 q 88 1557 104 1569 q 58 1539 72 1544 q 36 1526 44 1533 q 28 1504 28 1519 q 35 1481 28 1492 q 57 1471 43 1471 q 104 1488 74 1471 q 92 942 93 1340 q 71 913 71 935 q 85 886 71 897 q 172 860 125 860 z "},"º":{"ha":379,"x_min":28,"x_max":351,"o":"m 182 893 q 302 949 253 893 q 351 1076 351 1006 q 327 1178 351 1133 q 268 1247 303 1222 q 200 1271 233 1271 q 142 1247 161 1271 q 122 1197 122 1224 l 122 1188 q 60 1131 93 1175 q 28 1035 28 1088 q 56 951 28 982 q 119 906 83 919 q 182 893 156 893 m 160 1007 q 135 1015 143 1011 q 125 1026 126 1019 q 122 1042 124 1032 l 122 1044 q 158 1107 122 1069 l 168 1118 q 196 1089 186 1101 q 207 1049 206 1076 l 196 1025 l 188 1014 q 176 1010 182 1011 q 160 1007 169 1008 z "},"»":{"ha":963,"x_min":28,"x_max":935,"o":"m 554 68 q 517 76 539 68 q 479 105 496 85 q 463 158 463 125 q 492 226 463 201 q 578 279 521 250 q 715 360 635 308 l 640 386 q 503 441 549 417 q 457 507 457 465 q 474 549 457 532 q 542 565 492 565 q 569 561 550 565 l 838 489 q 926 401 926 464 l 925 390 q 935 354 935 374 q 884 269 935 318 q 765 175 833 221 q 636 99 697 129 q 554 68 575 68 m 125 39 q 88 47 110 39 q 50 76 67 56 q 33 129 33 96 q 63 197 33 172 q 149 250 92 221 q 286 331 206 279 l 211 357 q 74 412 119 388 q 28 478 28 436 q 45 519 28 503 q 113 536 63 536 q 140 532 121 536 l 408 460 q 497 372 497 435 l 496 361 q 506 325 506 344 q 455 240 506 289 q 336 146 404 192 q 207 69 268 100 q 125 39 146 39 z "},"¼":{"ha":915,"x_min":28,"x_max":888,"o":"m 626 240 l 624 242 l 625 249 q 626 240 626 247 m 629 258 q 643 293 633 275 l 640 289 q 704 457 654 315 l 706 265 q 690 264 703 265 q 660 260 678 263 q 629 258 642 258 m 750 33 q 776 42 763 33 q 791 64 789 50 q 793 92 793 78 q 781 193 793 118 q 863 201 839 193 q 888 240 888 208 q 875 273 888 260 q 839 286 863 286 q 799 279 824 286 l 772 274 l 769 390 q 774 541 769 476 q 783 650 779 606 q 788 719 788 694 q 777 759 788 746 q 754 772 767 772 q 722 747 735 772 q 623 490 701 717 q 544 246 544 263 q 558 204 544 218 q 613 179 579 179 q 704 188 625 179 l 703 117 q 750 33 703 33 m 174 414 q 86 440 125 414 q 72 467 72 451 q 92 496 72 490 l 93 701 q 104 1042 93 932 q 58 1025 78 1025 q 36 1035 44 1025 q 28 1058 28 1046 q 37 1081 28 1074 q 60 1093 46 1088 q 89 1111 74 1099 q 115 1151 104 1124 q 151 1179 125 1179 q 173 1172 163 1179 q 185 1151 183 1164 q 188 1122 188 1138 l 186 1079 q 174 654 174 904 q 178 504 174 579 q 221 458 221 501 q 209 429 221 444 q 174 414 197 414 m 122 -78 q 96 -67 108 -78 q 83 -43 83 -57 q 147 71 83 -32 q 242 235 201 160 q 540 875 432 622 q 647 1111 606 1028 q 710 1194 689 1194 q 732 1171 732 1194 q 643 889 732 1090 q 438 466 554 688 q 228 83 322 244 q 122 -78 133 -78 z "},"½":{"ha":1019,"x_min":28,"x_max":992,"o":"m 756 -26 q 722 -15 738 -26 q 701 14 706 -4 q 694 99 694 56 q 726 287 694 210 q 794 422 758 364 q 835 502 818 464 q 853 581 853 540 q 843 624 853 611 q 822 641 833 638 q 804 644 810 644 q 739 631 764 642 q 717 624 725 624 q 696 633 704 624 q 688 651 688 642 q 701 674 688 664 q 756 701 728 689 q 813 714 783 714 q 888 689 861 714 q 925 632 914 664 q 936 575 936 600 q 915 474 936 522 q 866 376 894 425 q 815 274 838 328 q 792 156 792 219 q 803 63 792 110 q 944 85 924 85 q 976 69 961 85 q 992 38 992 53 q 951 -12 992 -4 q 818 -21 911 -21 l 778 -22 q 756 -26 769 -26 m 172 369 q 85 396 125 369 q 71 422 71 407 q 92 451 71 444 q 104 997 93 849 q 57 981 74 981 q 35 991 43 981 q 28 1014 28 1001 q 36 1036 28 1029 q 58 1049 44 1043 q 88 1067 72 1054 q 115 1107 104 1079 q 150 1135 125 1135 q 172 1127 161 1135 q 185 1106 183 1119 q 188 1078 186 1093 l 185 1036 q 172 610 172 815 q 176 460 172 535 q 208 445 197 458 q 219 414 219 432 q 208 385 219 400 q 172 369 197 369 m 122 -122 q 96 -112 108 -122 q 83 -87 83 -101 q 146 26 83 -78 q 240 190 201 115 q 540 832 432 579 q 647 1067 606 983 q 710 1150 688 1150 q 725 1144 718 1150 q 732 1126 732 1138 q 642 845 732 1047 q 437 422 553 643 q 226 39 321 200 q 122 -122 132 -122 z "},"¾":{"ha":960,"x_min":28,"x_max":932,"o":"m 794 18 q 820 26 807 18 q 835 49 833 35 q 838 76 836 63 q 828 161 838 118 l 825 178 l 857 178 q 908 185 883 178 q 932 225 932 193 q 919 258 932 244 q 885 271 907 271 q 843 264 868 271 l 818 258 q 814 375 814 317 q 819 526 814 461 q 828 635 824 590 q 832 704 832 679 q 822 744 832 731 q 799 757 811 757 q 767 732 778 757 q 668 474 746 701 q 590 231 590 247 q 603 188 590 203 q 631 169 615 174 q 657 164 646 164 l 749 172 l 747 101 q 756 42 747 67 q 794 18 765 18 m 674 243 l 686 275 q 749 442 699 300 l 750 250 q 735 249 749 250 q 704 245 722 247 q 674 243 686 243 m 167 -93 q 140 -83 153 -93 q 128 -58 128 -72 q 192 56 128 -49 q 286 219 246 144 q 585 860 478 607 q 692 1096 651 1013 q 754 1179 733 1179 q 770 1173 764 1179 q 776 1156 776 1167 q 688 874 776 1075 q 483 451 599 672 q 272 68 367 229 q 167 -93 178 -93 m 124 385 q 217 417 169 385 q 296 502 264 450 q 328 613 328 554 q 303 710 328 658 q 139 804 260 797 q 219 935 192 881 q 247 1035 247 989 q 238 1081 247 1051 q 199 1135 229 1111 q 103 1158 168 1158 q 64 1151 81 1158 q 47 1129 47 1144 q 60 1110 47 1118 q 93 1097 74 1103 q 140 1076 118 1089 q 161 1036 161 1063 l 153 997 q 58 823 88 874 q 28 758 28 772 q 43 729 28 740 q 104 714 58 718 q 175 693 156 707 q 182 688 182 688 l 183 688 q 194 676 185 686 l 204 654 q 202 626 203 639 q 180 581 201 614 q 118 514 158 547 l 111 507 q 94 490 104 501 q 77 466 85 479 q 69 440 69 453 q 80 402 69 414 q 103 388 90 390 q 124 385 115 385 z "},"¿":{"ha":451,"x_min":28,"x_max":424,"o":"m 240 -279 q 363 -251 301 -279 q 424 -176 424 -222 q 403 -134 424 -147 q 363 -121 383 -121 l 292 -128 q 231 -118 254 -128 l 208 -101 q 197 -51 197 -76 l 200 -18 q 281 258 232 121 q 327 407 307 339 q 347 521 347 475 q 319 597 347 575 q 263 618 290 618 q 207 596 226 618 q 179 543 188 574 q 167 486 171 513 l 161 460 q 101 267 136 363 q 50 104 72 183 q 28 -47 28 25 q 119 -244 28 -189 q 240 -279 179 -279 m 260 757 q 186 788 215 757 q 157 860 157 818 q 187 927 157 897 q 254 957 217 957 q 327 927 297 957 q 357 854 357 897 q 326 787 357 817 q 260 757 296 757 z "},"À":{"ha":799,"x_min":7,"x_max":771,"o":"m 640 -160 q 710 -140 675 -160 q 771 -11 771 -107 q 756 283 771 103 q 654 815 729 596 q 381 1101 556 1101 q 193 1003 271 1101 q 74 738 115 906 q 33 357 33 569 l 35 292 q 22 276 28 285 q 7 232 7 251 q 15 198 7 215 q 40 168 24 181 l 42 151 q 51 56 43 106 q 79 -29 58 6 q 144 -64 100 -64 q 188 -44 169 -64 q 215 -3 208 -21 q 222 38 221 15 l 225 72 l 226 71 l 225 108 l 228 108 q 517 99 281 99 l 521 99 l 519 -35 q 556 -121 519 -82 q 640 -160 592 -160 m 221 354 q 228 473 224 422 q 235 532 233 524 l 233 521 q 240 565 233 522 q 260 669 246 608 q 300 786 275 729 q 324 835 313 815 q 338 856 336 854 q 342 860 340 858 q 346 867 343 863 q 358 879 351 875 q 379 883 365 883 l 389 874 q 400 860 400 863 q 417 815 400 858 q 497 488 468 692 q 511 365 507 414 l 494 365 q 436 365 479 365 q 335 362 393 364 q 221 354 276 360 m 425 1138 q 472 1152 454 1138 q 495 1185 489 1167 q 501 1214 501 1203 q 497 1238 501 1226 q 435 1322 490 1254 l 385 1385 q 347 1428 369 1407 q 286 1450 324 1450 q 236 1419 250 1450 q 228 1383 228 1401 q 242 1334 228 1357 q 275 1289 257 1311 q 319 1228 301 1254 q 364 1171 347 1190 q 393 1144 381 1151 q 425 1138 406 1138 z "},"Á":{"ha":799,"x_min":7,"x_max":771,"o":"m 640 -160 q 710 -140 675 -160 q 771 -11 771 -107 q 756 283 771 103 q 654 815 729 596 q 381 1101 556 1101 q 193 1003 271 1101 q 74 738 115 906 q 33 357 33 569 l 35 292 q 22 276 28 285 q 7 232 7 251 q 15 198 7 215 q 40 168 24 181 l 42 151 q 51 56 43 106 q 79 -29 58 6 q 144 -64 100 -64 q 188 -44 169 -64 q 215 -3 208 -21 q 222 38 221 15 l 225 72 l 226 71 l 225 108 l 228 108 q 517 99 281 99 l 521 99 l 519 -35 q 556 -121 519 -82 q 640 -160 592 -160 m 221 354 q 228 473 224 422 q 235 532 233 524 l 233 521 q 240 565 233 522 q 260 669 246 608 q 300 786 275 729 q 324 835 313 815 q 338 856 336 854 q 342 860 340 858 q 346 867 343 863 q 358 879 351 875 q 379 883 365 883 l 389 874 q 400 860 400 863 q 417 815 400 858 q 497 488 468 692 q 511 365 507 414 l 494 365 q 436 365 479 365 q 335 362 393 364 q 221 354 276 360 m 306 1131 q 413 1178 329 1131 q 571 1283 496 1225 q 646 1372 646 1340 q 625 1433 646 1408 q 572 1454 608 1454 q 483 1410 540 1454 l 356 1321 q 263 1254 288 1278 q 238 1194 238 1231 q 256 1151 238 1171 q 306 1131 275 1131 z "},"Â":{"ha":799,"x_min":7,"x_max":771,"o":"m 640 -160 q 710 -140 675 -160 q 771 -11 771 -107 q 756 283 771 103 q 654 815 729 596 q 381 1101 556 1101 q 193 1003 271 1101 q 74 738 115 906 q 33 357 33 569 l 35 292 q 22 276 28 285 q 7 232 7 251 q 15 198 7 215 q 40 168 24 181 l 42 151 q 51 56 43 106 q 79 -29 58 6 q 144 -64 100 -64 q 188 -44 169 -64 q 215 -3 208 -21 q 222 38 221 15 l 225 72 l 226 71 l 225 108 l 228 108 q 517 99 281 99 l 521 99 l 519 -35 q 556 -121 519 -82 q 640 -160 592 -160 m 221 354 q 228 473 224 422 q 235 532 233 524 l 233 521 q 240 565 233 522 q 260 669 246 608 q 300 786 275 729 q 324 835 313 815 q 338 856 336 854 q 342 860 340 858 q 346 867 343 863 q 358 879 351 875 q 379 883 365 883 l 389 874 q 400 860 400 863 q 417 815 400 858 q 497 488 468 692 q 511 365 507 414 l 494 365 q 436 365 479 365 q 335 362 393 364 q 221 354 276 360 m 225 1107 q 265 1118 246 1107 q 303 1142 285 1129 q 383 1193 340 1167 q 429 1225 404 1206 l 442 1207 q 499 1134 475 1158 q 558 1110 522 1110 q 619 1137 597 1110 q 642 1194 642 1164 q 626 1243 642 1219 q 576 1307 611 1267 l 558 1329 q 444 1399 501 1399 q 358 1360 403 1399 q 278 1285 313 1322 q 239 1246 263 1268 q 192 1195 207 1214 q 176 1156 176 1176 q 225 1107 176 1111 z "},"Ã":{"ha":799,"x_min":7,"x_max":771,"o":"m 640 -160 q 710 -140 675 -160 q 771 -11 771 -107 q 756 283 771 103 q 654 815 729 596 q 381 1101 556 1101 q 193 1003 271 1101 q 74 738 115 906 q 33 357 33 569 l 35 292 q 22 276 28 285 q 7 232 7 251 q 15 198 7 215 q 40 168 24 181 l 42 151 q 51 56 43 106 q 79 -29 58 6 q 144 -64 100 -64 q 188 -44 169 -64 q 215 -3 208 -21 q 222 38 221 15 l 225 72 l 226 71 l 225 108 l 228 108 q 517 99 281 99 l 521 99 l 519 -35 q 556 -121 519 -82 q 640 -160 592 -160 m 221 354 q 228 473 224 422 q 235 532 233 524 l 233 521 q 240 565 233 522 q 260 669 246 608 q 300 786 275 729 q 324 835 313 815 q 338 856 336 854 q 342 860 340 858 q 346 867 343 863 q 358 879 351 875 q 379 883 365 883 l 389 874 q 400 860 400 863 q 417 815 400 858 q 497 488 468 692 q 511 365 507 414 l 494 365 q 436 365 479 365 q 335 362 393 364 q 221 354 276 360 m 528 1121 q 408 1142 479 1121 q 261 1167 336 1163 q 197 1160 218 1167 q 150 1133 178 1133 q 106 1151 126 1133 q 86 1196 86 1168 q 117 1260 86 1236 q 197 1294 149 1283 q 293 1306 244 1306 q 374 1297 339 1306 q 442 1278 410 1289 q 511 1260 475 1268 q 517 1259 513 1260 q 535 1258 521 1258 q 582 1275 572 1258 l 583 1278 q 653 1333 603 1333 q 705 1317 675 1333 q 735 1257 735 1300 q 719 1205 735 1224 q 689 1176 703 1186 l 690 1178 q 618 1135 661 1149 q 528 1121 575 1121 z "},"Ä":{"ha":799,"x_min":7,"x_max":771,"o":"m 640 -160 q 710 -140 675 -160 q 771 -11 771 -107 q 756 283 771 103 q 654 815 729 596 q 381 1101 556 1101 q 193 1003 271 1101 q 74 738 115 906 q 33 357 33 569 l 35 292 q 22 276 28 285 q 7 232 7 251 q 15 198 7 215 q 40 168 24 181 l 42 151 q 51 56 43 106 q 79 -29 58 6 q 144 -64 100 -64 q 188 -44 169 -64 q 215 -3 208 -21 q 222 38 221 15 l 225 72 l 226 71 l 225 108 l 228 108 q 517 99 281 99 l 521 99 l 519 -35 q 556 -121 519 -82 q 640 -160 592 -160 m 221 354 q 228 473 224 422 q 235 532 233 524 l 233 521 q 240 565 233 522 q 260 669 246 608 q 300 786 275 729 q 324 835 313 815 q 338 856 336 854 q 342 860 340 858 q 346 867 343 863 q 358 879 351 875 q 379 883 365 883 l 389 874 q 400 860 400 863 q 417 815 400 858 q 497 488 468 692 q 511 365 507 414 l 494 365 q 436 365 479 365 q 335 362 393 364 q 221 354 276 360 m 269 1138 q 328 1164 301 1138 q 354 1222 354 1190 q 325 1288 351 1264 q 264 1313 299 1313 q 206 1286 232 1313 q 179 1228 179 1260 q 205 1164 179 1190 q 269 1138 231 1138 m 539 1124 q 469 1153 499 1126 q 435 1242 435 1197 q 460 1297 435 1272 q 515 1322 485 1322 l 526 1321 l 543 1322 q 589 1308 565 1322 q 626 1271 613 1294 q 639 1219 639 1247 q 609 1153 639 1182 q 539 1124 579 1125 z "},"Å":{"ha":799,"x_min":7,"x_max":771,"o":"m 640 -160 q 710 -140 675 -160 q 771 -11 771 -107 q 756 283 771 103 q 654 815 729 596 q 381 1101 556 1101 q 193 1003 271 1101 q 74 738 115 906 q 33 357 33 569 l 35 292 q 22 276 28 285 q 7 232 7 251 q 15 198 7 215 q 40 168 24 181 l 42 151 q 51 56 43 106 q 79 -29 58 6 q 144 -64 100 -64 q 188 -44 169 -64 q 215 -3 208 -21 q 222 38 221 15 l 225 72 l 226 71 l 225 108 l 228 108 q 517 99 281 99 l 521 99 l 519 -35 q 556 -121 519 -82 q 640 -160 592 -160 m 221 354 q 228 473 224 422 q 235 532 233 524 l 233 521 q 240 565 233 522 q 260 669 246 608 q 300 786 275 729 q 324 835 313 815 q 338 856 336 854 q 342 860 340 858 q 346 867 343 863 q 358 879 351 875 q 379 883 365 883 l 389 874 q 400 860 400 863 q 417 815 400 858 q 497 488 468 692 q 511 365 507 414 l 494 365 q 436 365 479 365 q 335 362 393 364 q 221 354 276 360 m 383 1115 q 534 1169 472 1115 q 596 1300 596 1224 q 576 1384 596 1342 q 522 1456 557 1426 q 436 1485 486 1485 q 386 1471 404 1485 q 360 1442 368 1457 q 350 1418 351 1426 q 267 1369 308 1418 q 225 1258 225 1321 q 236 1206 225 1240 q 281 1144 247 1172 q 383 1115 315 1115 m 382 1235 q 347 1242 351 1238 q 342 1264 343 1247 l 346 1276 q 367 1308 356 1299 q 389 1332 379 1318 q 412 1322 403 1324 q 426 1319 421 1321 q 447 1304 432 1317 l 446 1304 q 449 1300 449 1303 q 449 1294 449 1297 q 447 1283 449 1288 l 444 1281 q 389 1238 422 1242 l 382 1235 z "},"Æ":{"ha":1092,"x_min":7,"x_max":1100,"o":"m 221 354 q 235 532 226 479 l 240 565 q 299 787 257 690 q 379 883 342 883 q 400 858 400 863 q 458 690 435 774 q 507 410 488 579 l 511 365 q 221 354 332 365 m 640 -160 q 710 -140 675 -160 q 767 -58 756 -117 q 956 -75 925 -75 q 1058 -40 1015 -75 q 1100 57 1100 -4 q 1075 136 1100 99 q 942 190 1039 190 q 817 175 879 190 l 817 336 q 963 361 914 336 q 1049 481 1049 404 q 1017 576 1049 546 q 949 614 986 606 q 894 622 913 622 l 888 621 q 817 617 846 621 l 817 886 q 881 882 849 882 q 953 890 917 882 q 1014 931 989 897 q 1039 1000 1039 964 q 1010 1085 1039 1060 q 947 1118 982 1111 q 892 1125 911 1125 q 785 1118 819 1125 q 776 1133 785 1122 q 753 1156 768 1144 q 714 1168 738 1168 q 635 1104 661 1168 l 622 1075 q 601 1052 615 1071 q 586 1004 586 1033 q 606 950 586 975 l 606 931 q 544 1022 578 982 q 381 1101 476 1101 q 193 1003 271 1101 q 74 738 115 906 q 33 357 33 569 l 35 292 q 23 276 28 285 q 17 265 18 268 q 7 232 7 249 q 17 200 7 215 q 40 168 24 181 l 42 151 q 51 56 43 106 q 79 -29 58 6 q 144 -64 100 -64 q 189 -42 169 -64 q 215 -3 208 -21 q 225 72 221 14 l 226 71 l 225 108 l 228 108 q 521 99 306 99 l 519 -35 q 556 -121 519 -82 q 640 -160 592 -160 z "},"Ç":{"ha":721,"x_min":0,"x_max":735,"o":"m 379 -29 q 476 -15 418 -29 q 580 34 535 -1 q 625 133 625 69 q 590 215 625 182 q 510 249 556 249 q 466 244 481 249 q 439 232 451 239 q 424 225 432 228 q 408 219 417 222 q 378 214 394 214 q 294 240 335 214 l 293 240 q 284 248 292 242 q 265 271 276 254 q 238 318 253 288 q 221 374 225 354 q 217 418 217 394 q 219 454 217 440 l 219 460 q 264 608 236 547 q 350 758 293 679 l 351 760 q 460 854 407 832 l 461 854 q 514 863 472 858 q 525 860 519 861 q 534 856 531 858 q 546 850 538 854 l 553 844 l 572 815 l 579 794 q 603 744 589 764 q 650 724 618 724 q 678 732 657 724 q 717 768 699 740 q 735 854 735 796 q 706 955 735 906 q 622 1035 676 1004 q 493 1067 568 1067 q 299 1000 389 1067 q 142 831 210 933 q 38 615 75 729 q 0 407 0 501 q 52 180 0 278 q 190 26 104 82 q 379 -29 276 -29 m 279 -360 q 324 -353 286 -360 q 406 -328 361 -347 q 486 -276 451 -310 q 521 -186 521 -242 q 489 -90 521 -140 q 411 -33 457 -40 q 418 -1 418 -8 q 402 32 418 18 q 368 46 386 46 q 332 22 347 46 q 308 -26 324 7 q 280 -92 293 -60 q 267 -132 267 -124 q 281 -167 267 -149 q 319 -185 294 -185 q 342 -180 333 -185 q 360 -167 351 -175 q 386 -151 369 -160 l 394 -176 l 393 -179 q 367 -197 376 -193 l 360 -200 q 282 -222 310 -219 q 235 -242 254 -225 q 215 -287 215 -260 q 232 -334 215 -308 q 279 -360 249 -360 z "},"È":{"ha":567,"x_min":40,"x_max":571,"o":"m 425 -75 q 528 -40 486 -75 q 571 57 571 -4 q 546 136 571 99 q 476 183 521 174 q 411 190 444 190 q 286 175 349 190 l 286 336 l 294 336 q 433 360 385 336 q 500 419 482 385 q 518 481 518 453 q 488 576 518 546 q 419 614 457 606 q 364 622 382 622 q 286 617 317 621 l 288 886 q 350 882 318 882 q 423 890 388 882 q 484 931 458 897 q 510 1000 510 964 q 481 1085 510 1060 q 416 1118 451 1111 q 361 1125 381 1125 q 267 1119 293 1125 l 256 1118 q 247 1133 254 1122 q 223 1156 239 1144 q 183 1168 207 1168 q 104 1104 132 1168 l 92 1075 q 57 1004 57 1051 q 75 950 57 975 l 65 518 q 40 463 40 494 l 42 439 q 63 401 44 419 l 54 79 q 106 -54 54 -19 q 168 -75 136 -75 q 226 -57 199 -75 q 425 -75 393 -75 m 319 1164 q 366 1178 349 1164 q 390 1211 383 1193 q 396 1240 396 1229 q 392 1264 396 1253 q 329 1349 385 1281 l 279 1411 q 241 1455 264 1433 q 181 1476 218 1476 q 131 1446 144 1476 q 122 1410 122 1428 q 137 1360 122 1383 q 169 1315 151 1338 q 214 1254 196 1281 q 258 1197 242 1217 q 288 1171 275 1178 q 319 1164 300 1164 z "},"É":{"ha":567,"x_min":40,"x_max":571,"o":"m 425 -75 q 528 -40 486 -75 q 571 57 571 -4 q 546 136 571 99 q 476 183 521 174 q 411 190 444 190 q 286 175 349 190 l 286 336 l 294 336 q 433 360 385 336 q 500 419 482 385 q 518 481 518 453 q 488 576 518 546 q 419 614 457 606 q 364 622 382 622 q 286 617 317 621 l 288 886 q 350 882 318 882 q 423 890 388 882 q 484 931 458 897 q 510 1000 510 964 q 481 1085 510 1060 q 416 1118 451 1111 q 361 1125 381 1125 q 267 1119 293 1125 l 256 1118 q 247 1133 254 1122 q 223 1156 239 1144 q 183 1168 207 1168 q 104 1104 132 1168 l 92 1075 q 57 1004 57 1051 q 75 950 57 975 l 65 518 q 40 463 40 494 l 42 439 q 63 401 44 419 l 54 79 q 106 -54 54 -19 q 168 -75 136 -75 q 226 -57 199 -75 q 425 -75 393 -75 m 156 1215 q 263 1263 179 1215 q 421 1367 346 1310 q 496 1457 496 1425 q 475 1518 496 1493 q 422 1539 458 1539 q 333 1494 390 1539 l 206 1406 q 113 1339 138 1363 q 88 1279 88 1315 q 106 1235 88 1256 q 156 1215 125 1215 z "},"Ê":{"ha":567,"x_min":40,"x_max":571,"o":"m 425 -75 q 528 -40 486 -75 q 571 57 571 -4 q 546 136 571 99 q 476 183 521 174 q 411 190 444 190 q 286 175 349 190 l 286 336 l 294 336 q 433 360 385 336 q 500 419 482 385 q 518 481 518 453 q 488 576 518 546 q 419 614 457 606 q 364 622 382 622 q 286 617 317 621 l 288 886 q 350 882 318 882 q 423 890 388 882 q 484 931 458 897 q 510 1000 510 964 q 481 1085 510 1060 q 416 1118 451 1111 q 361 1125 381 1125 q 267 1119 293 1125 l 256 1118 q 247 1133 254 1122 q 223 1156 239 1144 q 183 1168 207 1168 q 104 1104 132 1168 l 92 1075 q 57 1004 57 1051 q 75 950 57 975 l 65 518 q 40 463 40 494 l 42 439 q 63 401 44 419 l 54 79 q 106 -54 54 -19 q 168 -75 136 -75 q 226 -57 199 -75 q 425 -75 393 -75 m 103 1186 q 143 1197 124 1186 q 181 1221 163 1208 q 261 1272 218 1246 q 307 1304 282 1285 l 319 1286 q 376 1213 353 1238 q 436 1189 400 1189 q 497 1216 475 1189 q 519 1274 519 1243 q 504 1322 519 1299 q 454 1386 489 1346 l 436 1408 q 322 1478 379 1478 q 235 1440 281 1478 q 156 1364 190 1401 q 117 1325 140 1347 q 69 1274 85 1293 q 54 1235 54 1256 q 103 1186 54 1190 z "},"Ë":{"ha":567,"x_min":40,"x_max":571,"o":"m 425 -75 q 528 -40 486 -75 q 571 57 571 -4 q 546 136 571 99 q 476 183 521 174 q 411 190 444 190 q 286 175 349 190 l 286 336 l 294 336 q 433 360 385 336 q 500 419 482 385 q 518 481 518 453 q 488 576 518 546 q 419 614 457 606 q 364 622 382 622 q 286 617 317 621 l 288 886 q 350 882 318 882 q 423 890 388 882 q 484 931 458 897 q 510 1000 510 964 q 481 1085 510 1060 q 416 1118 451 1111 q 361 1125 381 1125 q 267 1119 293 1125 l 256 1118 q 247 1133 254 1122 q 223 1156 239 1144 q 183 1168 207 1168 q 104 1104 132 1168 l 92 1075 q 57 1004 57 1051 q 75 950 57 975 l 65 518 q 40 463 40 494 l 42 439 q 63 401 44 419 l 54 79 q 106 -54 54 -19 q 168 -75 136 -75 q 226 -57 199 -75 q 425 -75 393 -75 m 153 1210 q 211 1236 185 1210 q 238 1294 238 1263 q 208 1360 235 1336 q 147 1385 182 1385 q 89 1358 115 1385 q 63 1300 63 1332 q 88 1236 63 1263 q 153 1210 114 1210 m 422 1196 q 353 1225 382 1199 q 318 1314 318 1269 q 343 1369 318 1344 q 399 1394 368 1394 l 410 1393 l 426 1394 q 472 1381 449 1394 q 509 1343 496 1367 q 522 1292 522 1319 q 492 1226 522 1254 q 422 1196 463 1197 z "},"Ì":{"ha":410,"x_min":17,"x_max":367,"o":"m 210 0 q 71 108 118 0 l 69 111 q 56 215 60 132 q 51 468 51 297 q 53 568 51 529 q 54 681 54 607 q 76 990 54 924 q 101 1039 86 1022 q 175 1079 132 1079 q 240 1054 210 1079 q 302 891 278 1024 q 341 597 326 758 q 361 311 356 435 q 367 185 367 188 q 352 99 367 142 q 303 28 338 57 q 210 0 268 0 m 214 1106 q 260 1120 243 1106 q 284 1153 278 1135 q 290 1182 290 1171 q 286 1206 290 1194 q 224 1290 279 1222 l 174 1353 q 135 1397 158 1375 q 75 1418 113 1418 q 25 1388 39 1418 q 17 1351 17 1369 q 31 1302 17 1325 q 64 1257 46 1279 q 108 1196 90 1222 q 153 1139 136 1158 q 182 1113 169 1119 q 214 1106 194 1106 z "},"Í":{"ha":410,"x_min":-12,"x_max":396,"o":"m 210 0 q 71 108 118 0 l 69 111 q 56 215 60 132 q 51 468 51 297 q 53 568 51 529 q 54 681 54 607 q 76 990 54 924 q 101 1039 86 1022 q 175 1079 132 1079 q 240 1054 210 1079 q 302 891 278 1024 q 341 597 326 758 q 361 311 356 435 q 367 185 367 188 q 352 99 367 142 q 303 28 338 57 q 210 0 268 0 m 56 1101 q 163 1149 79 1101 q 321 1253 246 1196 q 396 1343 396 1311 q 375 1404 396 1379 q 322 1425 358 1425 q 233 1381 290 1425 l 106 1292 q 13 1225 38 1249 q -12 1165 -12 1201 q 6 1122 -12 1142 q 56 1101 25 1101 z "},"Î":{"ha":410,"x_min":-61,"x_max":404,"o":"m 210 0 q 71 108 118 0 l 69 111 q 56 215 60 132 q 51 468 51 297 q 53 568 51 529 q 54 681 54 607 q 76 990 54 924 q 101 1039 86 1022 q 175 1079 132 1079 q 240 1054 210 1079 q 302 891 278 1024 q 341 597 326 758 q 361 311 356 435 q 367 185 367 188 q 352 99 367 142 q 303 28 338 57 q 210 0 268 0 m -12 1110 q 28 1121 8 1110 q 65 1144 47 1132 q 146 1196 103 1169 q 192 1228 167 1208 l 204 1210 q 261 1137 238 1161 q 321 1113 285 1113 q 382 1140 360 1113 q 404 1197 404 1167 q 389 1246 404 1222 q 339 1310 374 1269 l 321 1332 q 207 1401 264 1401 q 120 1363 165 1401 q 40 1288 75 1325 q 1 1249 25 1271 q -46 1198 -31 1217 q -61 1158 -61 1179 q -12 1110 -61 1114 z "},"Ï":{"ha":410,"x_min":-67,"x_max":393,"o":"m 210 0 q 71 108 118 0 l 69 111 q 56 215 60 132 q 51 468 51 297 q 53 568 51 529 q 54 681 54 607 q 76 990 54 924 q 101 1039 86 1022 q 175 1079 132 1079 q 240 1054 210 1079 q 302 891 278 1024 q 341 597 326 758 q 361 311 356 435 q 367 185 367 188 q 352 99 367 142 q 303 28 338 57 q 210 0 268 0 m 24 1133 q 82 1160 56 1133 q 108 1218 108 1186 q 79 1284 106 1260 q 18 1308 53 1308 q -40 1282 -14 1308 q -67 1224 -67 1256 q -41 1160 -67 1186 q 24 1133 -15 1133 m 293 1119 q 224 1149 253 1122 q 189 1238 189 1193 q 214 1293 189 1268 q 269 1318 239 1318 l 281 1317 l 297 1318 q 343 1304 319 1318 q 380 1267 367 1290 q 393 1215 393 1243 q 363 1149 393 1178 q 293 1119 333 1121 z "},"Ð":{"ha":901,"x_min":-14,"x_max":875,"o":"m 246 -85 q 110 -18 146 -85 q 89 61 89 21 q 115 142 89 106 q 99 210 103 163 q 94 446 94 267 q 110 893 94 681 l 103 896 q 64 910 86 900 q 24 938 42 919 q 6 986 6 957 q 42 1058 6 1033 q 126 1090 79 1082 q 208 1099 174 1099 q 412 1060 297 1099 q 631 947 526 1021 q 806 767 736 874 q 875 528 875 661 q 824 296 875 396 q 695 124 774 196 q 530 5 617 51 q 366 -63 443 -42 q 246 -85 289 -85 m 300 239 q 494 343 404 274 l 513 358 q 551 397 529 372 q 590 453 574 422 q 606 536 606 492 l 604 557 q 493 731 581 660 q 303 836 406 803 q 297 476 297 701 q 300 274 297 324 l 300 239 m 344 444 l 128 446 q 19 454 53 446 q -14 501 -14 463 q 22 553 -14 544 q 161 563 58 563 q 282 568 238 565 q 368 571 326 571 q 447 565 408 571 q 478 544 467 561 q 490 508 490 526 q 478 473 490 490 q 447 451 467 456 q 344 444 396 444 z "},"Ñ":{"ha":861,"x_min":39,"x_max":803,"o":"m 639 51 q 560 73 592 51 q 488 156 528 94 q 383 331 449 217 q 256 550 332 421 l 274 208 q 261 144 274 175 q 171 89 238 89 q 101 116 125 89 q 74 165 76 143 q 71 211 71 186 l 72 279 q 40 908 72 569 l 39 932 q 74 1025 39 993 q 154 1065 101 1065 q 238 1033 193 1065 q 363 894 282 1001 q 588 567 444 786 q 600 915 593 821 q 630 1045 607 1001 q 707 1089 653 1089 q 775 1051 747 1089 q 803 947 803 1013 q 792 435 803 772 l 789 299 q 782 221 789 254 l 785 197 q 756 105 785 136 q 692 63 726 74 q 639 51 657 51 m 546 1125 q 426 1146 497 1125 q 279 1171 354 1167 q 215 1164 236 1171 q 168 1138 196 1138 q 124 1155 144 1138 q 104 1200 104 1172 q 135 1264 104 1240 q 215 1299 167 1288 q 311 1310 263 1310 q 392 1301 357 1310 q 460 1283 428 1293 q 529 1264 493 1272 q 535 1263 531 1264 q 553 1263 539 1263 q 600 1279 590 1263 l 601 1282 q 671 1338 621 1338 q 723 1321 693 1338 q 753 1261 753 1304 q 737 1209 753 1228 q 707 1181 721 1190 l 708 1182 q 636 1139 679 1153 q 546 1125 593 1125 z "},"Ò":{"ha":739,"x_min":3,"x_max":708,"o":"m 331 31 q 404 47 369 31 q 449 71 439 63 q 644 251 579 125 q 708 511 708 376 q 687 674 708 590 q 643 815 665 757 q 620 872 621 872 q 613 892 619 872 q 582 950 606 913 q 511 1038 558 988 l 496 1044 q 460 1063 482 1053 q 417 1082 439 1074 q 378 1090 394 1090 l 357 1089 q 329 1092 343 1092 q 185 998 261 1092 q 56 759 108 904 q 3 460 3 614 q 21 335 3 390 q 56 247 39 279 q 75 215 74 215 q 97 186 76 214 q 151 122 117 158 q 233 58 186 86 q 331 31 279 31 m 410 201 l 324 218 q 283 240 293 229 q 256 285 272 251 l 254 324 l 265 536 q 368 818 289 689 q 449 772 422 794 l 453 769 q 490 731 468 757 l 500 717 q 529 667 511 701 q 557 560 551 601 q 561 486 561 528 q 558 424 561 438 l 557 424 q 532 325 540 339 l 531 322 q 494 260 507 275 q 494 260 496 261 q 465 229 492 254 q 462 228 464 229 q 453 221 460 226 q 410 201 435 210 m 407 1147 q 453 1162 436 1147 q 477 1194 471 1176 q 483 1224 483 1213 q 479 1247 483 1236 q 417 1332 472 1264 l 367 1394 q 328 1438 351 1417 q 268 1460 306 1460 q 218 1429 232 1460 q 210 1393 210 1411 q 224 1344 210 1367 q 257 1299 239 1321 q 301 1238 283 1264 q 346 1181 329 1200 q 375 1154 363 1161 q 407 1147 388 1147 z "},"Ó":{"ha":739,"x_min":3,"x_max":708,"o":"m 331 31 q 404 47 369 31 q 449 71 439 63 q 644 251 579 125 q 708 511 708 376 q 687 674 708 590 q 643 815 665 757 q 620 872 621 872 q 613 892 619 872 q 582 950 606 913 q 511 1038 558 988 l 496 1044 q 460 1063 482 1053 q 417 1082 439 1074 q 378 1090 394 1090 l 357 1089 q 329 1092 343 1092 q 185 998 261 1092 q 56 759 108 904 q 3 460 3 614 q 21 335 3 390 q 56 247 39 279 q 75 215 74 215 q 97 186 76 214 q 151 122 117 158 q 233 58 186 86 q 331 31 279 31 m 410 201 l 324 218 q 283 240 293 229 q 256 285 272 251 l 254 324 l 265 536 q 368 818 289 689 q 449 772 422 794 l 453 769 q 490 731 468 757 l 500 717 q 529 667 511 701 q 557 560 551 601 q 561 486 561 528 q 558 424 561 438 l 557 424 q 532 325 540 339 l 531 322 q 494 260 507 275 q 494 260 496 261 q 465 229 492 254 q 462 228 464 229 q 453 221 460 226 q 410 201 435 210 m 299 1122 q 406 1169 322 1122 q 564 1274 489 1217 q 639 1364 639 1332 q 618 1425 639 1400 q 565 1446 601 1446 q 476 1401 533 1446 l 349 1313 q 256 1246 281 1269 q 231 1186 231 1222 q 249 1142 231 1163 q 299 1122 268 1122 z "},"Ô":{"ha":739,"x_min":3,"x_max":708,"o":"m 331 31 q 404 47 369 31 q 449 71 439 63 q 644 251 579 125 q 708 511 708 376 q 687 674 708 590 q 643 815 665 757 q 620 872 621 872 q 613 892 619 872 q 582 950 606 913 q 511 1038 558 988 l 496 1044 q 460 1063 482 1053 q 417 1082 439 1074 q 378 1090 394 1090 l 357 1089 q 329 1092 343 1092 q 185 998 261 1092 q 56 759 108 904 q 3 460 3 614 q 21 335 3 390 q 56 247 39 279 q 75 215 74 215 q 97 186 76 214 q 151 122 117 158 q 233 58 186 86 q 331 31 279 31 m 410 201 l 324 218 q 283 240 293 229 q 256 285 272 251 l 254 324 l 265 536 q 368 818 289 689 q 449 772 422 794 l 453 769 q 490 731 468 757 l 500 717 q 529 667 511 701 q 557 560 551 601 q 561 486 561 528 q 558 424 561 438 l 557 424 q 532 325 540 339 l 531 322 q 494 260 507 275 q 494 260 496 261 q 465 229 492 254 q 462 228 464 229 q 453 221 460 226 q 410 201 435 210 m 189 1121 q 229 1132 210 1121 q 267 1156 249 1143 q 347 1207 304 1181 q 393 1239 368 1219 l 406 1221 q 463 1148 439 1172 q 522 1124 486 1124 q 583 1151 561 1124 q 606 1208 606 1178 q 590 1257 606 1233 q 540 1321 575 1281 l 522 1343 q 408 1413 465 1413 q 322 1374 367 1413 q 242 1299 276 1336 q 203 1260 226 1282 q 156 1209 171 1228 q 140 1169 140 1190 q 189 1121 140 1125 z "},"Õ":{"ha":739,"x_min":3,"x_max":708,"o":"m 331 31 q 404 47 369 31 q 449 71 439 63 q 644 251 579 125 q 708 511 708 376 q 687 674 708 590 q 643 815 665 757 q 620 872 621 872 q 613 892 619 872 q 582 950 606 913 q 511 1038 558 988 l 496 1044 q 460 1063 482 1053 q 417 1082 439 1074 q 378 1090 394 1090 l 357 1089 q 329 1092 343 1092 q 185 998 261 1092 q 56 759 108 904 q 3 460 3 614 q 21 335 3 390 q 56 247 39 279 q 75 215 74 215 q 97 186 76 214 q 151 122 117 158 q 233 58 186 86 q 331 31 279 31 m 410 201 l 324 218 q 283 240 293 229 q 256 285 272 251 l 254 324 l 265 536 q 368 818 289 689 q 449 772 422 794 l 453 769 q 490 731 468 757 l 500 717 q 529 667 511 701 q 557 560 551 601 q 561 486 561 528 q 558 424 561 438 l 557 424 q 532 325 540 339 l 531 322 q 494 260 507 275 q 494 260 496 261 q 465 229 492 254 q 462 228 464 229 q 453 221 460 226 q 410 201 435 210 m 499 1131 q 378 1151 450 1131 q 232 1176 307 1172 q 168 1169 189 1176 q 121 1143 149 1143 q 77 1160 97 1143 q 57 1206 57 1178 q 88 1269 57 1246 q 167 1304 119 1293 q 264 1315 215 1315 q 345 1307 310 1315 q 413 1288 381 1299 q 482 1269 446 1278 q 488 1269 483 1269 q 506 1268 492 1268 q 553 1285 543 1268 l 554 1288 q 624 1343 574 1343 q 676 1326 646 1343 q 706 1267 706 1310 q 690 1215 706 1233 q 660 1186 674 1196 l 661 1188 q 589 1144 632 1158 q 499 1131 546 1131 z "},"Ö":{"ha":739,"x_min":3,"x_max":708,"o":"m 331 31 q 404 47 369 31 q 449 71 439 63 q 644 251 579 125 q 708 511 708 376 q 687 674 708 590 q 643 815 665 757 q 620 872 621 872 q 613 892 619 872 q 582 950 606 913 q 511 1038 558 988 l 496 1044 q 460 1063 482 1053 q 417 1082 439 1074 q 378 1090 394 1090 l 357 1089 q 329 1092 343 1092 q 185 998 261 1092 q 56 759 108 904 q 3 460 3 614 q 21 335 3 390 q 56 247 39 279 q 75 215 74 215 q 97 186 76 214 q 151 122 117 158 q 233 58 186 86 q 331 31 279 31 m 410 201 l 324 218 q 283 240 293 229 q 256 285 272 251 l 254 324 l 265 536 q 368 818 289 689 q 449 772 422 794 l 453 769 q 490 731 468 757 l 500 717 q 529 667 511 701 q 557 560 551 601 q 561 486 561 528 q 558 424 561 438 l 557 424 q 532 325 540 339 l 531 322 q 494 260 507 275 q 494 260 496 261 q 465 229 492 254 q 462 228 464 229 q 453 221 460 226 q 410 201 435 210 m 240 1131 q 299 1157 272 1131 q 325 1215 325 1183 q 296 1281 322 1257 q 235 1306 269 1306 q 176 1279 203 1306 q 150 1221 150 1253 q 176 1157 150 1183 q 240 1131 201 1131 m 510 1117 q 440 1146 469 1119 q 406 1235 406 1190 q 431 1290 406 1265 q 486 1315 456 1315 l 497 1314 l 514 1315 q 560 1301 536 1315 q 597 1264 583 1288 q 610 1213 610 1240 q 580 1147 610 1175 q 510 1117 550 1118 z "},"×":{"ha":472,"x_min":28,"x_max":444,"o":"m 118 161 q 99 165 111 161 q 77 178 86 168 q 68 208 68 188 q 83 249 68 229 q 126 300 97 269 l 171 350 l 111 413 q 46 485 64 461 q 28 535 28 508 q 36 574 28 554 q 96 607 53 607 q 134 599 115 607 q 186 563 153 592 q 281 471 219 533 l 307 501 q 361 558 336 535 q 406 581 386 581 q 432 572 419 581 q 444 547 444 563 q 423 499 444 529 q 371 432 401 469 l 346 401 q 414 322 389 356 q 439 257 439 289 q 432 229 439 246 q 410 199 425 213 q 367 185 394 185 q 308 206 332 185 q 257 257 283 226 l 240 276 l 206 235 q 142 168 154 175 q 118 161 131 161 z "},"Ø":{"ha":739,"x_min":3,"x_max":771,"o":"m 331 31 q 404 47 369 31 q 449 71 439 63 q 644 251 579 125 q 708 511 708 376 q 687 674 708 590 q 643 815 665 757 q 620 872 621 872 q 613 892 619 872 q 582 950 606 913 q 511 1038 558 988 l 496 1044 q 460 1063 482 1053 q 417 1082 439 1074 q 378 1090 394 1090 l 357 1089 q 329 1092 343 1092 q 185 998 261 1092 q 56 759 108 904 q 3 460 3 614 q 21 335 3 390 q 56 247 39 279 q 75 215 74 215 q 97 186 76 214 q 151 122 117 158 q 233 58 186 86 q 331 31 279 31 m 410 201 l 324 218 q 283 240 293 229 q 256 285 272 251 l 254 324 l 265 536 q 368 818 289 689 q 449 772 422 794 l 453 769 q 490 731 468 757 l 500 717 q 529 667 511 701 q 557 560 551 601 q 561 486 561 528 q 558 424 561 438 l 557 424 q 532 325 540 339 l 531 322 q 494 260 507 275 q 494 260 496 261 q 465 229 492 254 q 462 228 464 229 q 453 221 460 226 q 410 201 435 210 m 113 -140 q 249 40 144 -140 q 474 456 354 219 q 683 888 593 692 q 772 1119 772 1085 q 763 1142 772 1132 q 740 1153 753 1153 q 624 964 726 1153 q 394 532 521 775 q 172 97 268 289 q 76 -103 76 -96 q 88 -130 76 -119 q 113 -140 99 -140 z "},"Ù":{"ha":908,"x_min":39,"x_max":853,"o":"m 338 -58 q 638 140 540 -58 q 679 41 646 67 q 746 15 713 15 q 817 44 794 15 q 847 108 840 72 q 853 164 853 143 l 853 181 q 842 425 853 274 q 828 729 828 597 q 840 932 828 806 l 843 956 q 851 1029 851 992 q 830 1107 851 1068 q 758 1146 808 1146 q 676 1098 704 1146 q 635 976 647 1050 q 619 819 624 901 q 532 449 572 588 q 474 269 492 311 q 438 204 453 222 l 428 190 q 410 172 413 172 q 406 171 407 172 l 392 167 l 368 168 q 331 178 335 178 q 319 190 328 179 q 277 328 286 242 q 268 539 268 414 q 290 883 268 735 q 294 932 294 917 q 279 1012 294 982 q 242 1054 264 1042 q 199 1067 219 1067 q 164 1061 185 1067 q 122 1028 143 1056 q 81 940 100 1001 q 51 767 63 878 q 39 482 39 657 q 42 370 39 438 q 60 228 46 303 q 106 90 74 154 q 194 -17 138 25 q 338 -58 250 -58 m 472 1101 q 519 1116 501 1101 q 542 1149 536 1131 q 549 1178 549 1167 q 544 1201 549 1190 q 482 1286 538 1218 l 432 1349 q 394 1392 417 1371 q 333 1414 371 1414 q 283 1383 297 1414 q 275 1347 275 1365 q 290 1298 275 1321 q 322 1253 304 1275 q 367 1192 349 1218 q 411 1135 394 1154 q 440 1108 428 1115 q 472 1101 453 1101 z "},"Ú":{"ha":908,"x_min":39,"x_max":853,"o":"m 338 -58 q 638 140 540 -58 q 679 41 646 67 q 746 15 713 15 q 817 44 794 15 q 847 108 840 72 q 853 164 853 143 l 853 181 q 842 425 853 274 q 828 729 828 597 q 840 932 828 806 l 843 956 q 851 1029 851 992 q 830 1107 851 1068 q 758 1146 808 1146 q 676 1098 704 1146 q 635 976 647 1050 q 619 819 624 901 q 532 449 572 588 q 474 269 492 311 q 438 204 453 222 l 428 190 q 410 172 413 172 q 406 171 407 172 l 392 167 l 368 168 q 331 178 335 178 q 319 190 328 179 q 277 328 286 242 q 268 539 268 414 q 290 883 268 735 q 294 932 294 917 q 279 1012 294 982 q 242 1054 264 1042 q 199 1067 219 1067 q 164 1061 185 1067 q 122 1028 143 1056 q 81 940 100 1001 q 51 767 63 878 q 39 482 39 657 q 42 370 39 438 q 60 228 46 303 q 106 90 74 154 q 194 -17 138 25 q 338 -58 250 -58 m 367 1101 q 474 1149 390 1101 q 632 1253 557 1196 q 707 1343 707 1311 q 686 1404 707 1379 q 633 1425 669 1425 q 544 1381 601 1425 l 417 1292 q 324 1225 349 1249 q 299 1165 299 1201 q 317 1122 299 1142 q 367 1101 336 1101 z "},"Û":{"ha":908,"x_min":39,"x_max":853,"o":"m 338 -58 q 638 140 540 -58 q 679 41 646 67 q 746 15 713 15 q 817 44 794 15 q 847 108 840 72 q 853 164 853 143 l 853 181 q 842 425 853 274 q 828 729 828 597 q 840 932 828 806 l 843 956 q 851 1029 851 992 q 830 1107 851 1068 q 758 1146 808 1146 q 676 1098 704 1146 q 635 976 647 1050 q 619 819 624 901 q 532 449 572 588 q 474 269 492 311 q 438 204 453 222 l 428 190 q 410 172 413 172 q 406 171 407 172 l 392 167 l 368 168 q 331 178 335 178 q 319 190 328 179 q 277 328 286 242 q 268 539 268 414 q 290 883 268 735 q 294 932 294 917 q 279 1012 294 982 q 242 1054 264 1042 q 199 1067 219 1067 q 164 1061 185 1067 q 122 1028 143 1056 q 81 940 100 1001 q 51 767 63 878 q 39 482 39 657 q 42 370 39 438 q 60 228 46 303 q 106 90 74 154 q 194 -17 138 25 q 338 -58 250 -58 m 250 1147 q 290 1158 271 1147 q 328 1182 310 1169 q 408 1233 365 1207 q 454 1265 429 1246 l 467 1247 q 524 1174 500 1199 q 583 1150 547 1150 q 644 1177 622 1150 q 667 1235 667 1204 q 651 1283 667 1260 q 601 1347 636 1307 l 583 1369 q 469 1439 526 1439 q 383 1401 428 1439 q 303 1325 338 1363 q 264 1286 288 1308 q 217 1235 232 1254 q 201 1196 201 1217 q 250 1147 201 1151 z "},"Ü":{"ha":908,"x_min":39,"x_max":853,"o":"m 338 -58 q 638 140 540 -58 q 679 41 646 67 q 746 15 713 15 q 817 44 794 15 q 847 108 840 72 q 853 164 853 143 l 853 181 q 842 425 853 274 q 828 729 828 597 q 840 932 828 806 l 843 956 q 851 1029 851 992 q 830 1107 851 1068 q 758 1146 808 1146 q 676 1098 704 1146 q 635 976 647 1050 q 619 819 624 901 q 532 449 572 588 q 474 269 492 311 q 438 204 453 222 l 428 190 q 410 172 413 172 q 406 171 407 172 l 392 167 l 368 168 q 331 178 335 178 q 319 190 328 179 q 277 328 286 242 q 268 539 268 414 q 290 883 268 735 q 294 932 294 917 q 279 1012 294 982 q 242 1054 264 1042 q 199 1067 219 1067 q 164 1061 185 1067 q 122 1028 143 1056 q 81 940 100 1001 q 51 767 63 878 q 39 482 39 657 q 42 370 39 438 q 60 228 46 303 q 106 90 74 154 q 194 -17 138 25 q 338 -58 250 -58 m 306 1163 q 364 1189 338 1163 q 390 1247 390 1215 q 361 1313 388 1289 q 300 1338 335 1338 q 242 1311 268 1338 q 215 1253 215 1285 q 241 1189 215 1215 q 306 1163 267 1163 m 575 1149 q 506 1178 535 1151 q 471 1267 471 1222 q 496 1322 471 1297 q 551 1347 521 1347 l 563 1346 l 579 1347 q 625 1333 601 1347 q 662 1296 649 1319 q 675 1244 675 1272 q 645 1178 675 1207 q 575 1149 615 1150 z "},"Ÿ":{"ha":675,"x_min":-7,"x_max":713,"o":"m 358 -74 q 290 -47 324 -74 q 233 114 233 -3 q 258 356 233 221 q 174 474 219 378 q 88 690 129 569 q 20 907 47 811 q -7 1015 -7 1003 q 47 1133 -7 1101 q 107 1153 79 1153 q 194 1119 160 1153 q 268 990 229 1086 q 369 711 307 894 q 494 994 443 897 q 536 1063 519 1040 q 549 1076 546 1076 q 631 1119 576 1119 q 688 1094 665 1119 q 711 1036 711 1068 l 713 1025 q 679 903 713 976 l 646 836 q 631 796 643 824 q 499 307 544 603 q 490 165 490 232 q 483 44 490 97 q 449 -42 476 -10 q 358 -74 422 -74 m 285 1201 q 343 1228 317 1201 q 369 1286 369 1254 q 340 1352 367 1328 q 279 1376 314 1376 q 221 1350 247 1376 q 194 1292 194 1324 q 220 1228 194 1254 q 285 1201 246 1201 m 554 1188 q 485 1217 514 1190 q 450 1306 450 1261 q 475 1361 450 1336 q 531 1386 500 1386 l 542 1385 l 558 1386 q 604 1372 581 1386 q 641 1335 628 1358 q 654 1283 654 1311 q 624 1217 654 1246 q 554 1188 594 1189 z "},"Ý":{"ha":675,"x_min":-7,"x_max":713,"o":"m 358 -74 q 290 -47 324 -74 q 233 114 233 -3 q 258 356 233 221 q 174 474 219 378 q 88 690 129 569 q 20 907 47 811 q -7 1015 -7 1003 q 47 1133 -7 1101 q 107 1153 79 1153 q 194 1119 160 1153 q 268 990 229 1086 q 369 711 307 894 q 494 994 443 897 q 536 1063 519 1040 q 549 1076 546 1076 q 631 1119 576 1119 q 688 1094 665 1119 q 711 1036 711 1068 l 713 1025 q 679 903 713 976 l 646 836 q 631 796 643 824 q 499 307 544 603 q 490 165 490 232 q 483 44 490 97 q 449 -42 476 -10 q 358 -74 422 -74 m 336 1156 q 443 1203 360 1156 q 601 1308 526 1250 q 676 1397 676 1365 q 656 1458 676 1433 q 603 1479 639 1479 q 514 1435 571 1479 l 386 1346 q 293 1279 318 1303 q 268 1219 268 1256 q 287 1176 268 1196 q 336 1156 306 1156 z "},"Þ":{"ha":617,"x_min":40,"x_max":586,"o":"m 194 -287 q 256 -263 226 -287 q 286 -200 286 -239 l 285 -165 q 289 -107 289 -137 q 286 31 289 -47 l 283 126 q 369 103 325 103 q 470 150 431 103 q 533 266 510 197 q 568 406 557 335 q 583 531 579 478 q 586 593 586 583 q 569 753 586 669 q 510 894 553 836 q 390 951 468 951 q 233 853 299 951 q 242 1122 236 999 q 246 1250 246 1215 q 219 1339 246 1308 q 163 1369 193 1369 q 83 1316 110 1369 q 49 1122 57 1263 q 40 717 40 981 q 146 -275 40 -206 q 182 -287 165 -287 l 194 -287 m 363 314 q 324 359 340 346 q 293 378 308 372 q 336 650 307 543 q 383 767 363 744 l 385 769 q 413 671 407 719 l 418 592 q 413 501 418 546 l 413 497 q 363 314 406 425 z "},"ß":{"ha":836,"x_min":51,"x_max":826,"o":"m 147 -204 q 181 -196 164 -204 q 204 -171 197 -187 q 217 -142 211 -154 q 235 -99 229 -117 q 243 -54 240 -82 q 246 28 246 -26 q 411 -42 319 -42 q 526 -17 456 -42 q 664 56 596 8 q 779 174 732 104 q 826 335 826 243 q 792 459 826 410 q 703 538 758 508 q 585 581 649 567 q 608 624 590 586 q 644 721 626 661 q 663 854 663 781 q 611 1070 663 978 q 485 1213 560 1163 q 338 1264 410 1264 q 154 1157 215 1264 q 72 814 93 1050 q 51 190 51 578 l 51 50 q 57 -57 51 3 q 83 -160 63 -117 q 147 -204 104 -204 m 419 185 q 379 204 399 185 q 378 206 378 204 q 290 256 353 256 q 251 247 264 256 l 254 507 q 264 772 256 657 q 271 839 267 821 q 272 851 272 842 q 306 994 286 947 l 306 996 q 332 1038 314 1019 q 378 1004 349 1036 q 390 985 379 1003 q 410 950 401 968 q 425 865 425 913 q 399 732 425 793 l 382 699 q 335 561 335 592 l 335 560 q 333 553 335 553 l 332 540 q 361 453 332 485 q 433 406 390 422 q 517 379 475 389 q 567 364 544 372 q 578 358 574 360 q 588 354 582 357 q 601 343 593 351 l 604 326 q 585 278 604 307 l 583 278 q 551 246 572 263 q 479 204 536 232 l 476 203 q 419 185 468 197 z "},"à":{"ha":749,"x_min":19,"x_max":719,"o":"m 586 7 q 671 50 638 7 q 692 128 692 76 q 717 521 692 321 l 717 525 q 719 557 719 539 q 714 598 719 569 q 689 650 708 626 q 632 674 669 674 q 589 663 603 674 q 568 642 575 653 l 567 640 q 483 713 533 683 q 382 742 433 742 q 260 718 324 742 q 142 644 196 694 q 53 515 88 594 q 19 324 19 436 q 44 174 19 243 q 115 62 68 104 q 229 19 163 19 q 282 29 246 19 q 369 78 318 39 q 486 201 421 117 l 485 133 q 507 49 485 75 q 553 15 529 22 q 586 7 578 7 m 242 228 q 233 297 233 285 q 276 464 233 414 q 302 490 300 489 q 340 511 304 490 q 378 521 371 521 q 403 519 397 519 q 415 519 410 519 q 442 511 419 518 l 458 504 q 354 343 378 371 l 351 340 q 242 228 286 260 m 442 782 q 488 797 471 782 q 512 829 506 811 q 518 858 518 847 q 514 882 518 871 q 451 967 507 899 l 401 1029 q 363 1073 386 1051 q 303 1094 340 1094 q 253 1064 267 1094 q 244 1028 244 1046 q 259 978 244 1001 q 292 933 274 956 q 336 872 318 899 q 381 815 364 835 q 410 789 397 796 q 442 782 422 782 z "},"á":{"ha":749,"x_min":19,"x_max":719,"o":"m 586 7 q 671 50 638 7 q 692 128 692 76 q 717 521 692 321 l 717 525 q 719 557 719 539 q 714 598 719 569 q 689 650 708 626 q 632 674 669 674 q 589 663 603 674 q 568 642 575 653 l 567 640 q 483 713 533 683 q 382 742 433 742 q 260 718 324 742 q 142 644 196 694 q 53 515 88 594 q 19 324 19 436 q 44 174 19 243 q 115 62 68 104 q 229 19 163 19 q 282 29 246 19 q 369 78 318 39 q 486 201 421 117 l 485 133 q 507 49 485 75 q 553 15 529 22 q 586 7 578 7 m 242 228 q 233 297 233 285 q 276 464 233 414 q 302 490 300 489 q 340 511 304 490 q 378 521 371 521 q 403 519 397 519 q 415 519 410 519 q 442 511 419 518 l 458 504 q 354 343 378 371 l 351 340 q 242 228 286 260 m 282 776 q 389 824 306 776 q 547 928 472 871 q 622 1018 622 986 q 601 1079 622 1054 q 549 1100 585 1100 q 460 1056 517 1100 l 332 967 q 239 900 264 924 q 214 840 214 876 q 233 797 214 817 q 282 776 251 776 z "},"â":{"ha":749,"x_min":19,"x_max":719,"o":"m 586 7 q 671 50 638 7 q 692 128 692 76 q 717 521 692 321 l 717 525 q 719 557 719 539 q 714 598 719 569 q 689 650 708 626 q 632 674 669 674 q 589 663 603 674 q 568 642 575 653 l 567 640 q 483 713 533 683 q 382 742 433 742 q 260 718 324 742 q 142 644 196 694 q 53 515 88 594 q 19 324 19 436 q 44 174 19 243 q 115 62 68 104 q 229 19 163 19 q 282 29 246 19 q 369 78 318 39 q 486 201 421 117 l 485 133 q 507 49 485 75 q 553 15 529 22 q 586 7 578 7 m 242 228 q 233 297 233 285 q 276 464 233 414 q 302 490 300 489 q 340 511 304 490 q 378 521 371 521 q 403 519 397 519 q 415 519 410 519 q 442 511 419 518 l 458 504 q 354 343 378 371 l 351 340 q 242 228 286 260 m 221 763 q 261 774 242 763 q 299 797 281 785 q 379 849 336 822 q 425 881 400 861 l 438 863 q 494 790 471 814 q 554 765 518 765 q 615 792 593 765 q 638 850 638 819 q 622 899 638 875 q 572 963 607 922 l 554 985 q 440 1054 497 1054 q 353 1016 399 1054 q 274 940 308 978 q 235 901 258 924 q 188 851 203 869 q 172 811 172 832 q 221 763 172 767 z "},"ã":{"ha":749,"x_min":19,"x_max":719,"o":"m 586 7 q 671 50 638 7 q 692 128 692 76 q 717 521 692 321 l 717 525 q 719 557 719 539 q 714 598 719 569 q 689 650 708 626 q 632 674 669 674 q 589 663 603 674 q 568 642 575 653 l 567 640 q 483 713 533 683 q 382 742 433 742 q 260 718 324 742 q 142 644 196 694 q 53 515 88 594 q 19 324 19 436 q 44 174 19 243 q 115 62 68 104 q 229 19 163 19 q 282 29 246 19 q 369 78 318 39 q 486 201 421 117 l 485 133 q 507 49 485 75 q 553 15 529 22 q 586 7 578 7 m 242 228 q 233 297 233 285 q 276 464 233 414 q 302 490 300 489 q 340 511 304 490 q 378 521 371 521 q 403 519 397 519 q 415 519 410 519 q 442 511 419 518 l 458 504 q 354 343 378 371 l 351 340 q 242 228 286 260 m 496 772 q 376 793 447 772 q 229 818 304 814 q 165 811 186 818 q 118 785 146 785 q 74 802 94 785 q 54 847 54 819 q 85 911 54 888 q 165 946 117 935 q 261 957 213 957 q 342 949 307 957 q 410 930 378 940 q 479 911 443 919 q 485 910 481 911 q 503 910 489 910 q 550 926 540 910 l 551 929 q 621 985 571 985 q 673 968 643 985 q 703 908 703 951 q 687 856 703 875 q 657 828 671 838 l 658 829 q 586 786 629 800 q 496 772 543 772 z "},"ä":{"ha":749,"x_min":19,"x_max":719,"o":"m 586 7 q 671 50 638 7 q 692 128 692 76 q 717 521 692 321 l 717 525 q 719 557 719 539 q 714 598 719 569 q 689 650 708 626 q 632 674 669 674 q 589 663 603 674 q 568 642 575 653 l 567 640 q 483 713 533 683 q 382 742 433 742 q 260 718 324 742 q 142 644 196 694 q 53 515 88 594 q 19 324 19 436 q 44 174 19 243 q 115 62 68 104 q 229 19 163 19 q 282 29 246 19 q 369 78 318 39 q 486 201 421 117 l 485 133 q 507 49 485 75 q 553 15 529 22 q 586 7 578 7 m 242 228 q 233 297 233 285 q 276 464 233 414 q 302 490 300 489 q 340 511 304 490 q 378 521 371 521 q 403 519 397 519 q 415 519 410 519 q 442 511 419 518 l 458 504 q 354 343 378 371 l 351 340 q 242 228 286 260 m 254 811 q 313 838 286 811 q 339 896 339 864 q 310 962 336 938 q 249 986 283 986 q 190 960 217 986 q 164 901 164 933 q 190 838 164 864 q 254 811 215 811 m 524 797 q 454 826 483 800 q 419 915 419 871 q 444 971 419 946 q 500 996 469 996 l 511 994 l 528 996 q 574 982 550 996 q 610 944 597 968 q 624 893 624 921 q 594 827 624 856 q 524 797 564 799 z "},"å":{"ha":749,"x_min":19,"x_max":719,"o":"m 586 7 q 671 50 638 7 q 692 128 692 76 q 717 521 692 321 l 717 525 q 719 557 719 539 q 714 598 719 569 q 689 650 708 626 q 632 674 669 674 q 589 663 603 674 q 568 642 575 653 l 567 640 q 483 713 533 683 q 382 742 433 742 q 260 718 324 742 q 142 644 196 694 q 53 515 88 594 q 19 324 19 436 q 44 174 19 243 q 115 62 68 104 q 229 19 163 19 q 282 29 246 19 q 369 78 318 39 q 486 201 421 117 l 485 133 q 507 49 485 75 q 553 15 529 22 q 586 7 578 7 m 242 228 q 233 297 233 285 q 276 464 233 414 q 302 490 300 489 q 340 511 304 490 q 378 521 371 521 q 403 519 397 519 q 415 519 410 519 q 442 511 419 518 l 458 504 q 354 343 378 371 l 351 340 q 242 228 286 260 m 400 781 q 551 835 489 781 q 613 965 613 889 q 593 1049 613 1007 q 538 1121 574 1092 q 453 1150 503 1150 q 403 1136 421 1150 q 376 1107 385 1122 q 367 1083 368 1092 q 283 1035 325 1083 q 242 924 242 986 q 253 872 242 906 q 298 809 264 838 q 400 781 332 781 m 399 900 q 364 908 368 903 q 358 929 360 913 l 363 942 q 384 974 372 964 q 406 997 396 983 q 428 988 419 989 q 443 984 438 986 q 464 969 449 982 l 463 969 q 465 965 465 968 q 465 960 465 963 q 464 949 465 953 l 461 946 q 406 903 439 907 l 399 900 z "},"æ":{"ha":1118,"x_min":22,"x_max":1131,"o":"m 589 7 q 674 50 640 7 q 694 128 694 76 q 719 521 694 321 l 719 525 q 722 557 722 539 q 717 598 722 569 q 692 650 711 626 q 635 674 672 674 q 592 663 606 674 q 571 642 578 653 l 569 640 q 486 713 536 683 q 385 742 436 742 q 263 718 326 742 q 144 644 199 694 q 56 515 90 594 q 22 324 22 436 q 47 174 22 243 q 118 62 71 104 q 232 19 165 19 q 285 29 249 19 q 372 78 321 39 q 489 201 424 117 l 488 133 q 510 49 488 75 q 556 15 532 22 q 589 7 581 7 m 244 228 q 236 297 236 285 q 279 464 236 414 q 305 490 303 489 q 343 511 307 490 q 381 521 374 521 q 406 519 400 519 q 417 519 413 519 q 444 511 422 518 l 461 504 q 357 343 381 371 l 354 340 q 244 228 289 260 m 850 1 q 897 6 864 1 q 968 33 929 11 q 1040 107 1007 56 l 1042 107 q 1053 122 1043 108 q 1072 157 1063 135 q 1081 210 1081 179 q 1051 274 1081 247 q 985 301 1022 301 q 933 288 964 301 q 924 286 931 286 q 881 293 901 286 q 813 406 813 328 l 814 406 q 862 415 821 406 q 960 453 903 425 q 1065 536 1018 482 q 1122 676 1111 590 q 1124 689 1124 681 q 1126 705 1125 697 q 1126 715 1126 713 q 1129 738 1128 729 q 1131 756 1131 746 q 1092 862 1131 819 q 1000 926 1054 904 q 897 947 946 947 q 719 878 810 947 q 569 687 629 810 q 508 403 508 564 q 552 203 508 294 q 673 57 596 113 q 850 1 750 1 m 818 524 q 951 694 844 649 l 953 697 q 968 704 956 699 q 986 692 976 697 q 989 678 989 688 l 982 646 l 974 632 q 964 615 968 621 q 926 581 946 594 q 901 564 919 575 q 818 524 879 550 z "},"ç":{"ha":706,"x_min":18,"x_max":701,"o":"m 361 -1 q 514 30 435 -1 q 647 113 593 61 q 701 228 701 165 q 669 310 701 274 q 581 347 636 347 q 489 322 546 347 l 478 317 l 463 308 q 424 289 447 299 q 363 272 388 272 q 334 286 344 272 q 315 318 324 300 q 292 454 292 382 q 386 683 292 599 q 408 696 396 692 q 438 684 428 690 q 464 665 449 678 q 510 627 489 633 q 543 621 531 621 q 579 631 561 621 q 621 674 604 643 l 626 685 l 635 757 q 613 843 635 793 q 538 931 590 893 q 400 968 486 968 q 226 906 314 968 q 78 728 138 844 q 18 451 18 613 q 60 225 18 328 q 178 60 101 122 q 361 -1 256 -1 m 249 -347 q 293 -341 256 -347 q 376 -316 331 -335 q 456 -263 421 -297 q 490 -174 490 -229 q 458 -78 490 -128 q 381 -21 426 -28 q 388 11 388 4 q 372 44 388 31 q 338 58 356 58 q 301 35 317 58 q 278 -14 293 19 q 249 -79 263 -47 q 236 -119 236 -111 q 250 -154 236 -136 q 289 -172 264 -172 q 312 -167 303 -172 q 330 -155 321 -162 q 356 -139 339 -147 l 364 -164 l 363 -167 q 336 -185 346 -181 l 329 -187 q 251 -210 279 -207 q 204 -230 224 -212 q 185 -275 185 -247 q 201 -322 185 -296 q 249 -347 218 -347 z "},"è":{"ha":656,"x_min":22,"x_max":644,"o":"m 364 1 q 410 6 378 1 q 482 33 443 11 q 554 107 521 56 l 556 107 q 567 122 557 108 q 585 157 576 135 q 594 210 594 179 q 565 274 594 247 q 499 301 536 301 q 447 288 478 301 q 438 286 444 286 q 394 293 415 286 q 326 406 326 328 l 328 406 q 376 415 335 406 q 474 453 417 425 q 578 536 532 482 q 636 676 625 590 q 638 689 638 681 q 640 705 639 697 q 640 715 640 713 q 643 738 642 729 q 644 756 644 746 q 606 862 644 819 q 514 926 568 904 q 411 947 460 947 q 233 878 324 947 q 83 687 143 810 q 22 403 22 564 q 66 203 22 294 q 187 57 110 113 q 364 1 264 1 m 332 524 q 465 694 358 649 l 467 697 q 482 704 469 699 q 500 692 490 697 q 503 678 503 688 l 496 646 l 488 632 q 478 615 482 621 q 440 581 460 594 q 415 564 433 575 q 332 524 393 550 m 401 985 q 448 999 431 985 q 472 1032 465 1014 q 478 1061 478 1050 q 474 1085 478 1074 q 411 1169 467 1101 l 361 1232 q 323 1276 346 1254 q 263 1297 300 1297 q 213 1267 226 1297 q 204 1231 204 1249 q 219 1181 204 1204 q 251 1136 233 1158 q 296 1075 278 1101 q 340 1018 324 1038 q 369 992 357 999 q 401 985 382 985 z "},"é":{"ha":656,"x_min":22,"x_max":644,"o":"m 364 1 q 410 6 378 1 q 482 33 443 11 q 554 107 521 56 l 556 107 q 567 122 557 108 q 585 157 576 135 q 594 210 594 179 q 565 274 594 247 q 499 301 536 301 q 447 288 478 301 q 438 286 444 286 q 394 293 415 286 q 326 406 326 328 l 328 406 q 376 415 335 406 q 474 453 417 425 q 578 536 532 482 q 636 676 625 590 q 638 689 638 681 q 640 705 639 697 q 640 715 640 713 q 643 738 642 729 q 644 756 644 746 q 606 862 644 819 q 514 926 568 904 q 411 947 460 947 q 233 878 324 947 q 83 687 143 810 q 22 403 22 564 q 66 203 22 294 q 187 57 110 113 q 364 1 264 1 m 332 524 q 465 694 358 649 l 467 697 q 482 704 469 699 q 500 692 490 697 q 503 678 503 688 l 496 646 l 488 632 q 478 615 482 621 q 440 581 460 594 q 415 564 433 575 q 332 524 393 550 m 263 975 q 369 1022 286 975 q 528 1127 453 1069 q 603 1217 603 1185 q 582 1278 603 1253 q 529 1299 565 1299 q 440 1254 497 1299 l 313 1165 q 219 1099 244 1122 q 194 1039 194 1075 q 213 995 194 1015 q 263 975 232 975 z "},"ê":{"ha":656,"x_min":22,"x_max":644,"o":"m 364 1 q 410 6 378 1 q 482 33 443 11 q 554 107 521 56 l 556 107 q 567 122 557 108 q 585 157 576 135 q 594 210 594 179 q 565 274 594 247 q 499 301 536 301 q 447 288 478 301 q 438 286 444 286 q 394 293 415 286 q 326 406 326 328 l 328 406 q 376 415 335 406 q 474 453 417 425 q 578 536 532 482 q 636 676 625 590 q 638 689 638 681 q 640 705 639 697 q 640 715 640 713 q 643 738 642 729 q 644 756 644 746 q 606 862 644 819 q 514 926 568 904 q 411 947 460 947 q 233 878 324 947 q 83 687 143 810 q 22 403 22 564 q 66 203 22 294 q 187 57 110 113 q 364 1 264 1 m 332 524 q 465 694 358 649 l 467 697 q 482 704 469 699 q 500 692 490 697 q 503 678 503 688 l 496 646 l 488 632 q 478 615 482 621 q 440 581 460 594 q 415 564 433 575 q 332 524 393 550 m 222 972 q 263 983 243 972 q 300 1007 282 994 q 381 1058 338 1032 q 426 1090 401 1071 l 439 1072 q 496 999 472 1024 q 556 975 519 975 q 617 1002 594 975 q 639 1060 639 1029 q 624 1108 639 1085 q 574 1172 608 1132 l 556 1194 q 442 1264 499 1264 q 355 1226 400 1264 q 275 1150 310 1188 q 236 1111 260 1133 q 189 1060 204 1079 q 174 1021 174 1042 q 222 972 174 976 z "},"ë":{"ha":656,"x_min":22,"x_max":661,"o":"m 364 1 q 410 6 378 1 q 482 33 443 11 q 554 107 521 56 l 556 107 q 567 122 557 108 q 585 157 576 135 q 594 210 594 179 q 565 274 594 247 q 499 301 536 301 q 447 288 478 301 q 438 286 444 286 q 394 293 415 286 q 326 406 326 328 l 328 406 q 376 415 335 406 q 474 453 417 425 q 578 536 532 482 q 636 676 625 590 q 638 689 638 681 q 640 705 639 697 q 640 715 640 713 q 643 738 642 729 q 644 756 644 746 q 606 862 644 819 q 514 926 568 904 q 411 947 460 947 q 233 878 324 947 q 83 687 143 810 q 22 403 22 564 q 66 203 22 294 q 187 57 110 113 q 364 1 264 1 m 332 524 q 465 694 358 649 l 467 697 q 482 704 469 699 q 500 692 490 697 q 503 678 503 688 l 496 646 l 488 632 q 478 615 482 621 q 440 581 460 594 q 415 564 433 575 q 332 524 393 550 m 292 999 q 350 1025 324 999 q 376 1083 376 1051 q 347 1149 374 1125 q 286 1174 321 1174 q 228 1147 254 1174 q 201 1089 201 1121 q 227 1025 201 1051 q 292 999 253 999 m 561 985 q 492 1014 521 988 q 457 1103 457 1058 q 482 1158 457 1133 q 538 1183 507 1183 l 549 1182 l 565 1183 q 611 1169 588 1183 q 648 1132 635 1156 q 661 1081 661 1108 q 631 1015 661 1043 q 561 985 601 986 z "},"ì":{"ha":268,"x_min":13,"x_max":286,"o":"m 138 0 q 60 31 83 0 q 31 110 36 63 q 26 208 26 158 q 36 519 26 417 q 70 654 46 621 q 136 688 94 688 q 188 669 161 688 q 225 558 225 640 l 224 497 q 222 439 222 478 q 226 286 222 342 q 235 194 231 231 q 240 115 240 157 q 192 15 240 43 q 138 0 165 0 m 210 746 q 256 760 239 746 q 280 793 274 775 q 286 822 286 811 q 282 846 286 835 q 219 931 275 863 l 169 993 q 131 1037 154 1015 q 71 1058 108 1058 q 21 1028 35 1058 q 13 992 13 1010 q 27 942 13 965 q 60 897 42 919 q 104 836 86 863 q 149 779 132 799 q 178 753 165 760 q 210 746 190 746 z "},"í":{"ha":268,"x_min":-3,"x_max":406,"o":"m 138 0 q 60 31 83 0 q 31 110 36 63 q 26 208 26 158 q 36 519 26 417 q 70 654 46 621 q 136 688 94 688 q 188 669 161 688 q 225 558 225 640 l 224 497 q 222 439 222 478 q 226 286 222 342 q 235 194 231 231 q 240 115 240 157 q 192 15 240 43 q 138 0 165 0 m 65 722 q 172 769 89 722 q 331 874 256 817 q 406 964 406 932 q 385 1025 406 1000 q 332 1046 368 1046 q 243 1001 300 1046 l 115 913 q 22 846 47 869 q -3 786 -3 822 q 16 742 -3 763 q 65 722 35 722 z "},"î":{"ha":268,"x_min":-67,"x_max":400,"o":"m 138 0 q 60 31 83 0 q 31 110 36 63 q 26 208 26 158 q 36 519 26 417 q 70 654 46 621 q 136 688 94 688 q 188 669 161 688 q 225 558 225 640 l 224 497 q 222 439 222 478 q 226 286 222 342 q 235 194 231 231 q 240 115 240 157 q 192 15 240 43 q 138 0 165 0 m -18 700 q 22 711 3 700 q 60 735 42 722 q 140 786 97 760 q 186 818 161 799 l 199 800 q 256 727 232 751 q 315 703 279 703 q 376 730 354 703 q 399 788 399 757 q 383 836 399 813 q 333 900 368 860 l 315 922 q 201 992 258 992 q 115 953 160 992 q 35 878 69 915 q -4 839 19 861 q -51 788 -36 807 q -67 749 -67 769 q -18 700 -67 704 z "},"ï":{"ha":268,"x_min":-32,"x_max":428,"o":"m 138 0 q 60 31 83 0 q 31 110 36 63 q 26 208 26 158 q 36 519 26 417 q 70 654 46 621 q 136 688 94 688 q 188 669 161 688 q 225 558 225 640 l 224 497 q 222 439 222 478 q 226 286 222 342 q 235 194 231 231 q 240 115 240 157 q 192 15 240 43 q 138 0 165 0 m 58 722 q 117 749 90 722 q 143 807 143 775 q 114 873 140 849 q 53 897 88 897 q -6 871 21 897 q -32 813 -32 844 q -6 749 -32 775 q 58 722 19 722 m 328 708 q 258 738 288 711 q 224 826 224 782 q 249 882 224 857 q 304 907 274 907 l 315 906 l 332 907 q 378 893 354 907 q 415 856 401 879 q 428 804 428 832 q 398 738 428 767 q 328 708 368 710 z "},"ð":{"ha":606,"x_min":10,"x_max":578,"o":"m 271 -19 q 411 33 353 -19 q 506 165 469 86 q 560 326 543 243 q 578 474 578 410 q 390 951 578 733 l 379 964 q 496 1060 469 1026 q 522 1114 522 1094 q 516 1142 522 1125 q 494 1174 510 1160 q 451 1188 479 1188 q 357 1154 413 1188 q 271 1097 315 1129 l 249 1122 q 192 1183 218 1160 q 133 1206 167 1206 q 79 1147 79 1206 q 92 1102 79 1122 q 126 1056 104 1082 l 158 1015 q 104 931 104 969 q 101 911 101 921 q 113 876 101 892 q 146 861 124 861 l 153 863 q 174 857 156 857 q 251 881 208 857 l 285 818 q 253 825 269 825 q 151 758 203 825 q 63 597 100 692 q 18 411 26 501 q 10 364 10 388 q 87 88 10 194 q 271 -19 164 -19 m 276 276 q 229 346 243 314 l 210 411 l 210 421 q 210 465 210 450 q 215 492 211 479 q 226 521 218 504 l 238 553 q 296 660 271 621 q 326 717 318 694 q 350 636 333 700 q 365 567 363 588 q 368 503 368 547 q 365 444 368 457 q 338 339 357 392 q 328 326 335 331 q 313 310 322 322 q 276 276 304 299 z "},"ñ":{"ha":910,"x_min":49,"x_max":892,"o":"m 200 10 q 96 51 128 10 q 56 149 64 93 q 49 247 49 204 l 51 507 q 200 840 51 840 q 290 792 251 840 q 342 644 328 744 q 579 774 435 774 q 719 718 663 774 q 809 581 775 663 q 861 415 843 499 q 885 267 879 331 q 892 190 892 203 q 867 98 892 136 q 803 40 842 60 q 728 21 765 21 q 565 153 594 21 q 551 251 554 206 q 507 475 546 324 l 479 444 q 421 342 447 394 q 351 199 394 290 l 351 196 q 348 157 351 186 q 330 94 344 128 q 285 35 315 60 q 200 10 254 10 m 571 875 q 451 896 522 875 q 304 921 379 917 q 240 914 261 921 q 193 888 221 888 q 149 905 169 888 q 129 950 129 922 q 160 1014 129 990 q 240 1049 192 1038 q 336 1060 288 1060 q 417 1051 382 1060 q 485 1033 453 1043 q 554 1014 518 1022 q 560 1013 556 1014 q 578 1013 564 1013 q 625 1029 615 1013 l 626 1032 q 696 1088 646 1088 q 748 1071 718 1088 q 778 1011 778 1054 q 762 959 778 978 q 732 931 746 940 l 733 932 q 661 889 704 903 q 571 875 618 875 z "},"ò":{"ha":715,"x_min":18,"x_max":693,"o":"m 292 -14 q 399 10 349 -14 q 501 75 450 33 l 531 99 q 597 173 560 124 q 664 296 635 222 q 693 468 693 369 q 638 697 693 601 q 509 844 583 793 q 375 894 435 894 q 324 885 364 894 q 245 843 283 876 q 194 739 207 810 q 77 549 136 688 q 18 279 18 410 q 47 153 18 221 q 135 35 75 85 q 292 -14 194 -14 m 285 236 l 281 238 l 275 247 q 268 281 268 264 q 335 507 276 400 q 376 399 376 463 l 376 389 q 347 298 367 336 q 285 236 326 260 m 408 939 q 455 953 438 939 q 478 986 472 968 q 485 1015 485 1004 q 481 1039 485 1028 q 418 1124 474 1056 l 368 1186 q 330 1230 353 1208 q 269 1251 307 1251 q 219 1221 233 1251 q 211 1185 211 1203 q 226 1135 211 1158 q 258 1090 240 1113 q 303 1029 285 1056 q 347 972 331 992 q 376 946 364 953 q 408 939 389 939 z "},"ó":{"ha":715,"x_min":18,"x_max":693,"o":"m 292 -14 q 399 10 349 -14 q 501 75 450 33 l 531 99 q 597 173 560 124 q 664 296 635 222 q 693 468 693 369 q 638 697 693 601 q 509 844 583 793 q 375 894 435 894 q 324 885 364 894 q 245 843 283 876 q 194 739 207 810 q 77 549 136 688 q 18 279 18 410 q 47 153 18 221 q 135 35 75 85 q 292 -14 194 -14 m 285 236 l 281 238 l 275 247 q 268 281 268 264 q 335 507 276 400 q 376 399 376 463 l 376 389 q 347 298 367 336 q 285 236 326 260 m 283 924 q 390 971 307 924 q 549 1076 474 1018 q 624 1165 624 1133 q 603 1226 624 1201 q 550 1247 586 1247 q 461 1203 518 1247 l 333 1114 q 240 1047 265 1071 q 215 988 215 1024 q 234 944 215 964 q 283 924 253 924 z "},"ô":{"ha":715,"x_min":18,"x_max":693,"o":"m 292 -14 q 399 10 349 -14 q 501 75 450 33 l 531 99 q 597 173 560 124 q 664 296 635 222 q 693 468 693 369 q 638 697 693 601 q 509 844 583 793 q 375 894 435 894 q 324 885 364 894 q 245 843 283 876 q 194 739 207 810 q 77 549 136 688 q 18 279 18 410 q 47 153 18 221 q 135 35 75 85 q 292 -14 194 -14 m 285 236 l 281 238 l 275 247 q 268 281 268 264 q 335 507 276 400 q 376 399 376 463 l 376 389 q 347 298 367 336 q 285 236 326 260 m 208 942 q 249 953 229 942 q 286 976 268 964 q 367 1028 324 1001 q 413 1060 388 1040 l 425 1042 q 482 969 458 993 q 542 944 506 944 q 603 972 581 944 q 625 1029 625 999 q 610 1078 625 1054 q 560 1142 594 1101 l 542 1164 q 428 1233 485 1233 q 341 1195 386 1233 q 261 1119 296 1157 q 222 1081 246 1103 q 175 1030 190 1049 q 160 990 160 1011 q 208 942 160 946 z "},"õ":{"ha":715,"x_min":18,"x_max":728,"o":"m 292 -14 q 399 10 349 -14 q 501 75 450 33 l 531 99 q 597 173 560 124 q 664 296 635 222 q 693 468 693 369 q 638 697 693 601 q 509 844 583 793 q 375 894 435 894 q 324 885 364 894 q 245 843 283 876 q 194 739 207 810 q 77 549 136 688 q 18 279 18 410 q 47 153 18 221 q 135 35 75 85 q 292 -14 194 -14 m 285 236 l 281 238 l 275 247 q 268 281 268 264 q 335 507 276 400 q 376 399 376 463 l 376 389 q 347 298 367 336 q 285 236 326 260 m 521 932 q 401 953 472 932 q 254 978 329 974 q 190 971 211 978 q 143 944 171 944 q 99 962 119 944 q 79 1007 79 979 q 110 1071 79 1047 q 190 1106 142 1094 q 286 1117 238 1117 q 367 1108 332 1117 q 435 1090 403 1100 q 504 1071 468 1079 q 510 1070 506 1071 q 528 1069 514 1069 q 575 1086 565 1069 l 576 1089 q 646 1144 596 1144 q 698 1128 668 1144 q 728 1068 728 1111 q 712 1016 728 1035 q 682 988 696 997 l 683 989 q 611 946 654 960 q 521 932 568 932 z "},"ö":{"ha":715,"x_min":18,"x_max":693,"o":"m 292 -14 q 399 10 349 -14 q 501 75 450 33 l 531 99 q 597 173 560 124 q 664 296 635 222 q 693 468 693 369 q 638 697 693 601 q 509 844 583 793 q 375 894 435 894 q 324 885 364 894 q 245 843 283 876 q 194 739 207 810 q 77 549 136 688 q 18 279 18 410 q 47 153 18 221 q 135 35 75 85 q 292 -14 194 -14 m 285 236 l 281 238 l 275 247 q 268 281 268 264 q 335 507 276 400 q 376 399 376 463 l 376 389 q 347 298 367 336 q 285 236 326 260 m 282 933 q 340 960 314 933 q 367 1018 367 986 q 338 1084 364 1060 q 276 1108 311 1108 q 218 1082 244 1108 q 192 1024 192 1056 q 217 960 192 986 q 282 933 243 933 m 551 919 q 482 949 511 922 q 447 1038 447 993 q 472 1093 447 1068 q 528 1118 497 1118 l 539 1117 l 556 1118 q 601 1104 578 1118 q 638 1067 625 1090 q 651 1015 651 1043 q 622 949 651 978 q 551 919 592 921 z "},"÷":{"ha":428,"x_min":28,"x_max":400,"o":"m 294 301 l 235 301 q 71 308 114 301 q 28 356 28 315 q 54 397 28 389 q 142 404 81 404 l 326 404 q 390 382 374 404 q 400 354 400 368 q 374 313 400 324 q 294 301 347 301 m 206 463 q 184 468 200 463 q 155 488 168 474 q 142 529 142 503 q 156 571 142 553 q 194 594 171 589 q 214 599 207 599 q 249 583 232 599 q 272 547 267 568 l 275 528 q 269 504 275 519 q 249 476 264 489 q 206 463 235 463 m 224 104 q 176 122 196 104 q 157 171 157 140 q 176 214 157 194 q 219 233 194 233 q 266 215 246 233 q 286 167 286 197 q 267 124 286 143 q 224 104 247 104 z "},"ø":{"ha":715,"x_min":-11,"x_max":688,"o":"m 25 -189 q 172 8 58 -189 q 286 -14 221 -14 q 394 10 343 -14 q 497 76 446 33 l 525 100 q 592 174 554 124 q 688 468 688 299 q 633 697 688 601 q 569 785 604 747 q 683 1071 683 1035 q 674 1094 683 1083 q 653 1104 664 1104 q 499 847 638 1104 q 369 894 428 894 q 318 885 358 894 q 240 843 278 876 q 189 739 201 810 q 72 549 131 688 q 13 279 13 410 q 42 153 13 221 q 94 68 61 106 q -11 -151 -11 -144 q 0 -178 -11 -168 q 25 -189 11 -189 m 279 236 l 275 238 l 269 247 q 263 281 263 264 q 329 507 271 400 q 371 399 371 463 l 371 389 q 341 298 361 336 q 279 236 321 260 z "},"ù":{"ha":844,"x_min":35,"x_max":818,"o":"m 335 -43 q 159 17 225 -43 q 64 167 93 76 q 35 351 35 258 q 45 509 35 392 q 83 731 56 626 q 133 794 100 778 q 188 811 167 811 q 267 776 238 811 q 297 707 297 740 q 290 621 297 686 q 274 382 274 463 q 281 274 274 317 q 314 206 288 232 q 318 203 315 206 q 326 200 321 201 q 336 199 331 199 q 456 282 392 199 l 511 376 q 540 461 531 431 q 565 638 564 543 q 574 746 567 692 q 606 838 581 800 q 690 875 632 875 q 799 799 768 875 q 818 700 818 750 q 749 316 818 483 q 569 53 679 149 q 335 -43 458 -43 m 443 828 q 490 842 472 828 q 513 875 507 857 q 519 904 519 893 q 515 928 519 917 q 453 1013 508 944 l 403 1075 q 365 1119 388 1097 q 304 1140 342 1140 q 254 1110 268 1140 q 246 1074 246 1092 q 260 1024 246 1047 q 293 979 275 1001 q 338 918 319 944 q 382 861 365 881 q 411 835 399 842 q 443 828 424 828 z "},"ú":{"ha":844,"x_min":35,"x_max":818,"o":"m 335 -43 q 159 17 225 -43 q 64 167 93 76 q 35 351 35 258 q 45 509 35 392 q 83 731 56 626 q 133 794 100 778 q 188 811 167 811 q 267 776 238 811 q 297 707 297 740 q 290 621 297 686 q 274 382 274 463 q 281 274 274 317 q 314 206 288 232 q 318 203 315 206 q 326 200 321 201 q 336 199 331 199 q 456 282 392 199 l 511 376 q 540 461 531 431 q 565 638 564 543 q 574 746 567 692 q 606 838 581 800 q 690 875 632 875 q 799 799 768 875 q 818 700 818 750 q 749 316 818 483 q 569 53 679 149 q 335 -43 458 -43 m 338 868 q 444 915 361 868 q 603 1020 528 963 q 678 1110 678 1078 q 657 1171 678 1146 q 604 1192 640 1192 q 515 1147 572 1192 l 388 1058 q 294 992 319 1015 q 269 932 269 968 q 288 888 269 908 q 338 868 307 868 z "},"û":{"ha":844,"x_min":35,"x_max":818,"o":"m 335 -43 q 159 17 225 -43 q 64 167 93 76 q 35 351 35 258 q 45 509 35 392 q 83 731 56 626 q 133 794 100 778 q 188 811 167 811 q 267 776 238 811 q 297 707 297 740 q 290 621 297 686 q 274 382 274 463 q 281 274 274 317 q 314 206 288 232 q 318 203 315 206 q 326 200 321 201 q 336 199 331 199 q 456 282 392 199 l 511 376 q 540 461 531 431 q 565 638 564 543 q 574 746 567 692 q 606 838 581 800 q 690 875 632 875 q 799 799 768 875 q 818 700 818 750 q 749 316 818 483 q 569 53 679 149 q 335 -43 458 -43 m 221 900 q 261 911 242 900 q 299 935 281 922 q 379 986 336 960 q 425 1018 400 999 l 438 1000 q 494 927 471 951 q 554 903 518 903 q 615 930 593 903 q 638 988 638 957 q 622 1036 638 1013 q 572 1100 607 1060 l 554 1122 q 440 1192 497 1192 q 353 1153 399 1192 q 274 1078 308 1115 q 235 1039 258 1061 q 188 988 203 1007 q 172 949 172 969 q 221 900 172 904 z "},"ü":{"ha":844,"x_min":35,"x_max":818,"o":"m 335 -43 q 159 17 225 -43 q 64 167 93 76 q 35 351 35 258 q 45 509 35 392 q 83 731 56 626 q 133 794 100 778 q 188 811 167 811 q 267 776 238 811 q 297 707 297 740 q 290 621 297 686 q 274 382 274 463 q 281 274 274 317 q 314 206 288 232 q 318 203 315 206 q 326 200 321 201 q 336 199 331 199 q 456 282 392 199 l 511 376 q 540 461 531 431 q 565 638 564 543 q 574 746 567 692 q 606 838 581 800 q 690 875 632 875 q 799 799 768 875 q 818 700 818 750 q 749 316 818 483 q 569 53 679 149 q 335 -43 458 -43 m 265 913 q 324 939 297 913 q 350 997 350 965 q 321 1063 347 1039 q 260 1088 294 1088 q 201 1061 228 1088 q 175 1003 175 1035 q 201 939 175 965 q 265 913 226 913 m 535 899 q 465 928 494 901 q 431 1017 431 972 q 456 1072 431 1047 q 511 1097 481 1097 l 522 1096 l 539 1097 q 585 1083 561 1097 q 622 1046 608 1069 q 635 994 635 1022 q 605 928 635 957 q 535 899 575 900 z "},"ý":{"ha":753,"x_min":28,"x_max":700,"o":"m 354 -304 q 457 -279 411 -304 q 530 -229 503 -254 q 557 -201 557 -204 q 613 -141 579 -187 q 673 6 646 -94 q 700 290 700 107 q 692 624 700 501 q 668 808 685 747 q 627 888 651 869 q 571 906 603 906 q 514 889 543 906 q 457 769 461 858 q 432 730 440 751 q 415 675 424 708 q 364 517 403 624 l 353 494 q 301 406 328 440 l 267 369 q 232 500 240 422 q 225 629 225 535 q 231 738 225 703 q 235 793 235 764 q 196 901 235 872 q 153 918 174 918 q 43 779 71 918 q 28 594 28 700 q 40 426 28 532 q 102 235 51 319 q 265 144 153 151 q 467 263 365 144 q 414 -33 463 86 q 396 -87 403 -61 q 390 -94 392 -93 q 386 -97 388 -96 q 353 -111 374 -104 q 290 -140 321 -121 q 258 -204 258 -160 q 285 -274 258 -243 q 354 -304 313 -304 m 338 924 q 444 971 361 924 q 603 1076 528 1018 q 678 1165 678 1133 q 657 1226 678 1201 q 604 1247 640 1247 q 515 1203 572 1247 l 388 1114 q 294 1047 319 1071 q 269 988 269 1024 q 288 944 269 964 q 338 924 307 924 z "},"þ":{"ha":713,"x_min":40,"x_max":697,"o":"m 161 -44 q 246 -7 221 -44 q 276 81 271 31 q 282 165 282 131 l 281 222 q 346 210 313 210 q 456 233 396 210 q 572 302 517 257 q 662 413 626 347 q 697 563 697 478 q 644 751 697 654 q 498 912 592 847 q 279 976 404 976 l 261 976 l 261 997 q 256 1061 261 1022 q 233 1129 251 1100 q 174 1158 215 1158 q 117 1122 142 1158 q 97 1083 99 1094 q 63 622 86 1035 q 40 160 40 218 q 57 32 40 76 q 101 -28 74 -12 q 161 -44 128 -44 m 269 444 q 265 672 265 532 l 265 849 q 329 835 310 842 q 353 827 349 829 q 358 825 357 825 q 388 810 374 818 q 413 794 403 801 q 423 787 422 788 q 433 776 424 786 q 453 753 442 767 q 475 729 465 740 q 486 716 485 718 q 494 694 488 714 q 503 638 501 675 q 502 609 503 618 q 485 544 501 600 l 482 539 q 465 510 478 526 q 372 457 438 471 l 332 457 q 269 444 300 457 z "},"ÿ":{"ha":753,"x_min":28,"x_max":700,"o":"m 354 -304 q 457 -279 411 -304 q 530 -229 503 -254 q 557 -201 557 -204 q 613 -141 579 -187 q 673 6 646 -94 q 700 290 700 107 q 692 624 700 501 q 668 808 685 747 q 627 888 651 869 q 571 906 603 906 q 514 889 543 906 q 457 769 461 858 q 432 730 440 751 q 415 675 424 708 q 364 517 403 624 l 353 494 q 301 406 328 440 l 267 369 q 232 500 240 422 q 225 629 225 535 q 231 738 225 703 q 235 793 235 764 q 196 901 235 872 q 153 918 174 918 q 43 779 71 918 q 28 594 28 700 q 40 426 28 532 q 102 235 51 319 q 265 144 153 151 q 467 263 365 144 q 414 -33 463 86 q 396 -87 403 -61 q 390 -94 392 -93 q 386 -97 388 -96 q 353 -111 374 -104 q 290 -140 321 -121 q 258 -204 258 -160 q 285 -274 258 -243 q 354 -304 313 -304 m 225 996 q 283 1022 257 996 q 310 1081 310 1049 q 281 1147 307 1122 q 219 1171 254 1171 q 161 1144 188 1171 q 135 1086 135 1118 q 160 1022 135 1049 q 225 996 186 996 m 494 982 q 425 1011 454 985 q 390 1100 390 1056 q 415 1156 390 1131 q 471 1181 440 1181 l 482 1179 l 499 1181 q 544 1167 521 1181 q 581 1129 568 1153 q 594 1078 594 1106 q 565 1012 594 1040 q 494 982 535 983 z "},"ı":{"ha":268,"x_min":26,"x_max":240,"o":"m 138 0 q 60 31 83 0 q 31 110 36 63 q 26 208 26 158 q 36 519 26 417 q 70 654 46 621 q 136 688 94 688 q 188 669 161 688 q 225 558 225 640 l 224 497 q 222 439 222 478 q 226 286 222 342 q 235 194 231 231 q 240 115 240 157 q 192 15 240 43 q 138 0 165 0 z "},"ˆ":{"ha":521,"x_min":28,"x_max":493,"o":"m 76 969 q 117 981 97 969 q 154 1004 136 992 q 235 1056 192 1029 q 281 1088 256 1068 l 293 1069 q 350 997 326 1021 q 410 972 374 972 q 471 999 449 972 q 493 1057 493 1026 q 478 1106 493 1082 q 428 1169 463 1129 l 410 1192 q 296 1261 353 1261 q 209 1223 254 1261 q 129 1147 164 1185 q 90 1108 114 1131 q 43 1058 58 1076 q 28 1018 28 1039 q 76 969 28 974 z "},"ˇ":{"ha":521,"x_min":28,"x_max":493,"o":"m 226 969 q 313 1008 268 969 q 392 1083 357 1046 l 431 1124 q 478 1174 463 1154 q 493 1214 493 1193 q 444 1261 493 1258 q 404 1251 424 1261 q 367 1228 385 1240 q 286 1176 329 1201 q 240 1144 265 1164 l 228 1161 q 172 1234 196 1210 q 113 1258 149 1258 q 51 1232 74 1258 q 28 1175 28 1206 q 43 1125 28 1149 q 93 1063 58 1101 l 113 1039 q 226 969 168 969 z "},"˚":{"ha":426,"x_min":28,"x_max":399,"o":"m 186 949 q 337 1003 275 949 q 399 1133 399 1057 q 379 1217 399 1175 q 324 1289 360 1260 q 239 1318 289 1318 q 189 1304 207 1318 q 163 1275 171 1290 q 153 1251 154 1260 q 69 1203 111 1251 q 28 1092 28 1154 q 39 1040 28 1074 q 84 977 50 1006 q 186 949 118 949 m 185 1068 q 150 1076 154 1071 q 144 1097 146 1081 l 149 1110 q 170 1142 158 1132 q 192 1165 182 1151 q 215 1156 206 1157 q 229 1152 224 1154 q 250 1138 235 1150 l 249 1138 q 251 1133 251 1136 q 251 1128 251 1131 q 250 1117 251 1121 l 247 1114 q 192 1071 225 1075 l 185 1068 z "},"˜":{"ha":704,"x_min":28,"x_max":676,"o":"m 469 229 q 349 250 421 229 q 203 275 278 271 q 139 268 160 275 q 92 242 119 242 q 48 259 68 242 q 28 304 28 276 q 59 368 28 344 q 138 403 90 392 q 235 414 186 414 q 316 406 281 414 q 384 387 351 397 q 453 368 417 376 q 458 367 454 368 q 476 367 463 367 q 524 383 514 367 l 525 386 q 594 442 544 442 q 647 425 617 442 q 676 365 676 408 q 660 313 676 332 q 631 285 644 294 l 632 286 q 560 243 603 257 q 469 229 517 229 z "},"–":{"ha":675,"x_min":28,"x_max":647,"o":"m 147 -58 q 422 -54 321 -58 q 571 -40 522 -50 q 633 -11 619 -29 q 647 35 647 7 q 624 93 647 67 q 568 119 601 119 q 368 106 521 119 q 247 96 308 100 q 81 76 133 89 q 28 13 28 63 q 129 -58 28 -58 l 147 -58 z "},"—":{"ha":656,"x_min":28,"x_max":628,"o":"m 135 246 q 28 328 28 246 q 136 407 28 407 q 186 403 164 407 q 254 399 208 399 q 395 403 343 399 q 481 413 447 408 q 546 418 515 418 q 590 408 568 418 q 628 346 628 393 q 603 290 628 307 q 531 269 578 274 q 421 265 485 265 q 204 253 328 265 q 135 246 157 246 z "},"‘":{"ha":161,"x_min":28,"x_max":133,"o":"m 83 978 q 38 1012 47 978 q 28 1110 28 1046 q 34 1206 28 1168 q 78 1243 40 1243 q 108 1230 94 1243 q 122 1199 122 1217 l 122 1178 q 125 1102 122 1129 q 131 1060 128 1075 q 133 1033 133 1046 q 128 1012 133 1025 q 113 988 124 999 q 83 978 101 978 z "},"’":{"ha":161,"x_min":28,"x_max":133,"o":"m 78 978 q 48 988 58 978 q 33 1012 38 999 q 28 1033 28 1025 q 31 1060 28 1046 q 36 1102 33 1075 q 39 1178 39 1129 l 39 1199 q 53 1230 39 1217 q 83 1243 67 1243 q 127 1206 121 1243 q 133 1110 133 1168 q 123 1012 133 1046 q 78 978 113 978 z "},"‚":{"ha":161,"x_min":28,"x_max":133,"o":"m 78 -137 q 48 -127 58 -137 q 33 -103 38 -117 q 28 -82 28 -90 q 31 -55 28 -69 q 36 -13 33 -40 q 39 63 39 14 l 39 83 q 53 115 39 101 q 83 128 67 128 q 127 90 121 128 q 133 -6 133 53 q 123 -103 133 -69 q 78 -137 113 -137 z "},"“":{"ha":404,"x_min":28,"x_max":376,"o":"m 299 932 q 249 953 265 932 q 226 1003 232 974 q 221 1058 221 1033 q 221 1108 221 1083 q 225 1180 221 1146 q 245 1235 229 1214 q 296 1257 261 1257 q 351 1237 333 1257 q 372 1182 368 1217 q 376 1103 376 1147 l 376 1058 q 299 932 376 932 m 94 957 q 49 973 69 957 q 28 1018 28 989 q 42 1108 28 1042 l 49 1139 q 121 1236 61 1236 q 156 1219 136 1236 q 176 1163 176 1203 q 174 1122 176 1143 q 168 1078 171 1101 q 155 992 167 1026 q 94 957 143 957 z "},"”":{"ha":404,"x_min":28,"x_max":376,"o":"m 106 932 q 56 953 72 932 q 33 1003 39 974 q 28 1058 28 1033 l 28 1103 q 32 1182 28 1147 q 53 1237 36 1217 q 108 1257 71 1257 q 159 1235 143 1257 q 180 1180 175 1214 q 185 1108 185 1146 l 183 1058 q 106 932 183 932 m 310 957 q 251 992 263 957 q 236 1078 239 1026 q 231 1122 235 1101 q 228 1163 228 1143 q 248 1219 228 1203 q 283 1236 268 1236 q 326 1218 313 1236 q 357 1139 350 1189 l 363 1108 q 376 1018 376 1042 q 356 973 376 989 q 310 957 335 957 z "},"„":{"ha":404,"x_min":28,"x_max":376,"o":"m 106 -150 q 56 -129 72 -150 q 33 -78 39 -108 q 28 -24 28 -49 l 28 21 q 32 100 28 65 q 53 155 36 135 q 108 175 71 175 q 159 153 143 175 q 180 98 175 132 q 185 26 185 64 l 183 -24 q 106 -150 183 -150 m 310 -125 q 251 -90 263 -125 q 236 -4 239 -56 q 231 40 235 19 q 228 81 228 61 q 248 138 228 121 q 283 154 268 154 q 326 136 313 154 q 357 57 350 107 l 363 26 q 376 -64 376 -40 q 356 -109 376 -93 q 310 -125 335 -125 z "},"†":{"ha":622,"x_min":28,"x_max":594,"o":"m 338 -6 q 301 4 324 -6 q 259 46 278 14 q 240 144 240 78 l 253 717 l 229 718 q 144 724 190 718 q 63 750 97 731 q 28 814 28 769 q 42 861 28 838 q 140 906 68 906 l 261 900 q 289 1109 268 1056 q 353 1163 310 1163 q 392 1148 374 1163 q 423 1075 411 1133 q 435 893 435 1017 q 594 801 594 886 q 583 762 594 782 q 538 728 572 742 q 435 713 503 715 l 435 174 l 436 151 q 417 47 436 81 q 374 4 397 14 q 338 -6 351 -6 z "},"‡":{"ha":536,"x_min":28,"x_max":508,"o":"m 257 -32 q 246 -31 256 -32 q 223 -24 236 -29 q 197 -6 210 -18 q 176 26 185 6 q 167 79 167 47 l 174 269 q 51 353 51 276 q 69 404 51 381 q 185 447 100 443 l 201 679 q 86 693 119 679 q 28 753 28 715 q 56 799 28 782 q 183 833 104 826 l 215 835 q 244 1044 232 996 q 307 1126 267 1126 q 340 1100 333 1126 l 340 1099 q 360 996 354 1085 q 363 846 363 956 q 450 807 426 846 q 461 765 461 788 q 446 715 461 739 q 403 685 431 690 q 360 681 382 682 l 356 454 l 394 456 q 493 415 467 456 q 508 365 508 390 q 491 310 508 336 q 443 276 474 283 q 354 269 400 269 l 354 121 q 353 94 353 115 q 310 -14 353 15 q 257 -32 283 -32 z "},"₣":{"ha":704,"x_min":28,"x_max":676,"o":"m 294 35 q 357 62 328 35 q 386 140 386 89 l 385 167 q 499 174 442 174 q 543 172 532 174 l 550 172 q 588 190 572 172 q 604 231 604 208 q 588 270 604 253 q 549 288 571 288 q 477 282 518 288 q 406 271 436 276 q 369 264 375 265 l 361 326 q 405 340 379 329 q 451 375 431 351 q 472 442 472 399 q 451 507 472 475 q 394 546 429 539 q 344 550 368 550 q 340 729 340 635 q 343 831 340 799 l 343 858 l 421 860 q 538 857 503 860 l 558 856 q 638 881 600 856 q 676 956 676 907 q 660 1017 676 989 q 532 1067 628 1067 q 285 1053 363 1067 q 260 1058 272 1058 q 218 1040 236 1058 l 211 1035 q 158 999 182 1022 q 135 946 135 976 q 161 890 135 915 q 147 629 147 779 q 154 471 147 600 q 153 469 153 471 q 128 413 128 438 q 164 351 128 374 l 179 233 l 121 232 l 106 232 q 51 228 75 232 q 28 197 28 224 q 57 163 28 174 q 119 148 86 151 q 164 144 153 144 l 192 146 q 294 35 210 35 z "},"₤":{"ha":992,"x_min":28,"x_max":964,"o":"m 193 -31 q 228 -26 222 -28 q 399 75 331 -6 l 408 69 q 517 13 451 43 q 661 -17 583 -17 l 706 -14 q 813 17 750 -10 l 836 32 q 889 71 858 47 q 964 169 964 131 q 949 233 964 211 q 913 261 933 254 q 876 268 893 268 q 813 251 836 268 q 763 205 789 233 q 733 174 738 176 q 722 169 728 172 q 692 160 703 164 q 671 156 681 156 l 626 157 q 565 174 581 167 l 490 213 q 536 344 521 276 l 540 343 q 635 332 592 332 q 731 358 700 332 q 763 415 763 383 q 744 461 763 439 q 699 483 726 483 q 660 479 688 483 l 632 474 l 610 474 q 560 476 590 474 l 567 558 q 693 539 647 539 q 789 565 757 539 q 821 622 821 592 q 802 669 821 646 q 756 692 783 692 q 718 686 746 692 q 690 679 690 681 l 638 682 q 575 696 617 683 q 581 789 578 781 l 592 840 q 606 901 603 892 q 613 915 610 910 q 617 924 615 921 q 632 939 619 928 q 657 942 639 942 q 672 939 668 942 q 677 931 675 936 q 686 919 679 926 q 697 899 694 904 q 703 885 699 894 l 703 886 q 720 863 707 872 q 747 853 733 853 q 786 881 771 853 q 801 935 801 910 q 767 1033 801 999 q 692 1081 733 1068 q 629 1094 650 1094 q 443 963 504 1094 q 388 758 404 878 l 385 744 l 338 747 q 286 742 326 747 q 208 719 246 738 q 171 661 171 701 q 192 615 171 629 q 229 601 214 601 q 269 612 250 601 q 300 622 289 622 l 364 619 q 360 583 361 596 q 353 532 360 571 q 279 539 317 539 q 228 535 268 539 q 151 513 188 531 q 114 454 114 494 q 135 408 114 422 q 171 394 157 394 q 211 404 192 394 q 242 414 231 414 l 296 414 q 300 413 296 413 q 326 407 304 413 q 303 335 311 351 l 300 325 l 279 288 l 253 289 q 129 260 179 289 q 53 192 79 232 q 28 113 28 151 q 74 10 28 50 q 181 -31 119 -31 l 193 -31 z "},"₧":{"ha":1689,"x_min":28,"x_max":1661,"o":"m 121 -21 q 178 1 151 -21 q 220 69 211 19 q 231 182 229 118 l 233 244 q 296 240 263 240 q 381 253 321 240 q 505 308 440 267 q 616 430 569 349 q 663 646 663 511 q 572 982 663 885 q 431 1051 507 1051 q 385 1046 417 1051 q 231 919 299 1028 q 246 1010 246 964 q 225 1088 246 1056 q 158 1119 204 1119 q 83 1078 113 1119 q 53 947 53 1038 l 54 896 q 44 719 54 814 q 28 365 28 556 q 44 58 28 138 q 121 -21 61 -21 m 363 488 q 340 490 351 488 q 319 492 329 492 l 256 488 q 290 661 275 607 q 319 746 310 732 q 425 876 379 876 l 432 875 l 432 872 q 453 842 442 864 l 453 840 q 475 751 468 797 l 475 756 l 476 744 q 481 663 481 699 q 478 588 481 600 q 454 517 467 529 q 447 510 451 515 q 434 501 442 506 q 418 494 426 496 l 397 489 l 363 488 m 1417 -1 q 1551 34 1497 -1 q 1631 121 1604 69 q 1657 218 1657 172 q 1631 318 1657 275 q 1576 396 1606 361 q 1519 464 1547 431 q 1476 526 1515 464 l 1469 535 q 1443 649 1443 613 q 1449 685 1443 668 q 1472 703 1454 701 q 1525 692 1492 703 q 1582 671 1550 671 q 1631 690 1603 671 q 1660 758 1660 708 l 1661 788 q 1660 807 1661 800 q 1656 821 1658 814 q 1651 833 1653 828 q 1566 931 1629 900 q 1456 961 1503 961 q 1260 867 1340 961 q 1181 657 1181 774 q 1200 538 1181 588 q 1240 458 1219 489 q 1272 418 1261 428 l 1275 414 q 1365 300 1322 349 l 1410 247 l 1390 251 q 1321 260 1357 260 q 1234 232 1275 260 q 1193 144 1193 204 q 1228 61 1193 93 q 1314 14 1263 29 q 1417 -1 1365 -1 m 1081 -29 q 985 -10 1043 -29 q 866 56 926 10 q 764 185 806 103 q 722 394 722 267 q 776 815 722 489 q 685 878 685 840 q 694 907 685 893 q 756 931 711 931 l 800 931 q 835 1051 817 997 q 875 1128 851 1099 q 938 1157 899 1157 q 1029 993 1029 1157 l 1026 913 q 1090 897 1069 910 q 1117 869 1111 885 q 1124 844 1124 854 q 1113 808 1124 826 q 1040 778 1093 778 l 1018 779 q 997 590 1006 660 q 983 476 988 519 q 979 394 979 433 l 982 339 q 993 283 986 314 l 1011 210 q 1033 186 1019 196 q 1044 178 1038 182 l 1051 174 l 1061 168 l 1100 156 q 1158 133 1139 150 q 1190 65 1190 106 q 1168 1 1190 21 q 1119 -24 1146 -18 q 1081 -29 1093 -29 z "},"€":{"ha":910,"x_min":28,"x_max":882,"o":"m 565 -28 q 694 9 638 -28 q 797 106 751 46 q 882 240 843 167 l 881 240 q 864 280 881 265 q 826 294 847 294 q 678 214 808 294 l 644 193 q 572 182 631 188 l 558 181 q 534 191 547 181 q 518 204 521 201 l 517 206 q 453 381 460 292 q 658 376 600 379 l 719 375 q 803 410 781 375 q 818 453 818 432 q 799 507 818 476 q 740 538 779 538 q 672 531 717 538 q 449 508 626 525 l 451 571 l 736 572 q 787 593 764 572 q 810 643 810 614 q 803 672 810 654 q 780 704 796 690 q 736 718 764 718 l 456 719 q 461 774 458 760 q 463 794 463 782 l 463 799 q 483 874 474 857 l 488 885 q 524 950 515 940 q 535 963 532 960 q 541 969 539 967 q 547 972 543 971 q 555 976 550 974 q 564 981 560 979 q 599 975 585 981 l 621 964 q 672 919 639 956 q 713 881 692 897 q 767 865 733 865 q 797 871 778 865 q 831 893 815 876 q 846 943 846 910 q 805 1032 846 982 q 701 1119 764 1082 q 574 1156 639 1156 q 372 1044 456 1156 q 296 906 319 974 l 281 874 q 222 718 243 797 l 176 718 q 108 714 142 718 q 51 694 74 710 q 28 644 28 679 q 50 596 28 611 q 103 576 72 581 q 161 572 133 572 l 194 572 q 190 486 190 529 q 148 467 168 481 q 128 435 128 454 q 136 411 128 424 q 193 382 150 392 q 268 128 208 217 q 565 -28 372 -28 z "},"№":{"ha":1529,"x_min":28,"x_max":1501,"o":"m 629 -32 q 682 -21 647 -32 q 745 22 717 -10 q 774 114 774 54 l 772 138 q 778 214 778 171 l 781 351 q 793 864 793 754 q 765 967 793 929 q 696 1006 736 1006 q 619 962 642 1006 q 589 831 596 918 q 579 615 582 744 l 576 483 q 352 810 433 703 q 226 950 271 918 q 144 982 182 982 q 117 978 131 982 l 135 981 q 93 971 108 978 q 63 942 78 964 q 40 909 47 929 q 30 872 32 889 q 28 849 28 854 l 29 825 q 63 196 63 464 l 60 128 q 63 82 60 104 q 90 33 65 60 q 160 6 114 6 q 234 37 206 6 q 263 125 263 68 l 244 467 q 372 247 321 338 q 477 72 438 133 q 549 -10 517 11 q 629 -32 581 -32 m 1131 251 q 1214 265 1178 251 q 1304 318 1269 286 l 1308 321 q 1474 665 1474 456 q 1417 867 1474 767 q 1244 1017 1361 968 l 1233 1018 q 1206 1022 1219 1022 q 1157 1010 1179 1022 q 1078 907 1082 975 q 959 722 1010 854 q 908 497 908 590 q 935 379 908 436 q 1012 287 963 322 q 1131 251 1061 251 m 1129 446 q 1107 451 1113 446 q 1099 471 1100 467 l 1099 474 l 1096 503 l 1096 511 l 1099 522 q 1144 679 1099 551 q 1175 739 1160 714 q 1224 672 1211 703 q 1236 594 1236 640 l 1226 554 q 1200 497 1218 529 q 1129 446 1169 446 m 1236 32 q 1431 44 1360 32 q 1501 104 1501 57 q 1488 140 1501 121 q 1449 160 1474 160 q 1408 150 1436 160 q 1161 138 1403 147 q 1097 140 1129 138 q 1032 142 1065 142 q 939 133 968 142 q 910 94 910 124 q 980 45 910 58 q 1236 32 1050 32 z "},"™":{"ha":1244,"x_min":28,"x_max":1217,"o":"m 1089 407 q 1058 415 1079 407 q 1018 446 1036 422 q 1000 518 1000 469 q 1024 711 1000 546 q 964 585 982 625 q 934 523 946 544 q 903 475 922 501 q 899 468 903 474 q 887 456 894 463 q 867 442 879 449 q 838 436 854 436 q 782 469 799 436 q 743 578 765 501 q 686 749 724 643 l 699 526 q 694 483 699 510 q 674 435 690 457 q 619 414 657 414 q 568 437 583 414 q 549 487 553 460 q 544 526 544 514 l 544 547 q 533 931 544 686 l 531 990 q 558 1090 531 1064 q 596 1107 575 1107 q 637 1090 624 1106 q 657 1053 650 1075 l 671 1051 l 667 1053 q 694 1044 682 1051 l 696 1043 q 749 981 718 1035 q 865 681 794 899 q 1001 965 943 861 q 1058 1068 1058 1069 q 1088 1108 1067 1094 q 1131 1122 1108 1122 q 1190 1097 1172 1122 q 1212 1041 1207 1071 q 1217 993 1217 1011 l 1213 915 q 1179 474 1194 519 q 1147 426 1165 442 q 1089 407 1119 407 m 193 414 q 163 426 176 414 q 136 499 136 444 l 140 579 q 151 782 144 660 q 169 1033 158 904 l 157 1033 q 106 1037 136 1033 q 51 1052 75 1040 q 28 1089 28 1064 q 47 1118 28 1106 q 110 1131 65 1131 l 260 1131 q 333 1132 308 1131 l 358 1133 q 388 1131 369 1133 q 419 1118 406 1128 q 433 1083 433 1108 q 410 1042 433 1053 q 340 1031 388 1031 l 286 1031 q 268 747 286 1018 q 243 449 250 469 q 193 414 225 414 z "},"":{"ha":1389,"x_min":0,"x_max":0,"o":""},"Œ":{"ha":1100,"x_min":6,"x_max":1149,"o":"m 333 31 q 407 47 372 31 q 451 71 442 63 q 647 251 582 125 q 711 511 711 376 q 690 674 711 590 q 646 815 668 757 q 623 872 624 872 q 615 892 622 872 q 585 950 608 913 q 514 1038 561 988 l 499 1044 q 463 1063 485 1053 q 419 1082 442 1074 q 381 1090 397 1090 l 360 1089 q 332 1092 346 1092 q 188 998 264 1092 q 58 759 111 904 q 6 460 6 614 q 24 335 6 390 q 59 247 42 279 q 78 215 76 215 q 99 186 79 214 q 154 122 119 158 q 235 58 189 86 q 333 31 282 31 m 413 201 l 326 218 q 285 240 296 229 q 258 285 275 251 l 257 324 l 268 536 q 371 818 292 689 q 451 772 425 794 l 456 769 q 493 731 471 757 l 503 717 q 532 667 514 701 q 560 560 554 601 q 564 486 564 528 q 561 424 564 438 l 560 424 q 535 325 543 339 l 533 322 q 497 260 510 275 q 497 260 499 261 q 468 229 494 254 q 465 228 467 229 q 456 221 463 226 q 413 201 438 210 m 1003 -61 q 1106 -26 1064 -61 q 1149 71 1149 10 q 1124 150 1149 113 q 1054 197 1099 188 q 989 204 1022 204 q 864 189 926 204 l 864 350 l 872 350 q 1011 374 963 350 q 1078 433 1060 399 q 1096 494 1096 467 q 1065 590 1096 560 q 997 628 1035 619 q 942 636 960 636 q 864 631 894 635 l 865 900 q 928 896 896 896 q 1001 903 965 896 q 1062 944 1036 911 q 1088 1014 1088 978 q 1058 1099 1088 1074 q 994 1132 1029 1125 q 939 1139 958 1139 q 844 1133 871 1139 l 833 1132 q 824 1147 832 1136 q 801 1170 817 1158 q 761 1182 785 1182 q 682 1118 710 1182 l 669 1089 q 635 1018 635 1065 q 653 964 635 989 l 643 532 q 618 476 618 508 l 619 453 q 640 415 622 433 l 632 93 q 683 -40 632 -6 q 746 -61 714 -61 q 804 -43 776 -61 q 1003 -61 971 -61 z "},"œ":{"ha":1186,"x_min":21,"x_max":1199,"o":"m 294 -14 q 402 10 351 -14 q 504 75 453 33 l 533 99 q 600 173 563 124 q 667 296 638 222 q 696 468 696 369 q 641 697 696 601 q 512 844 586 793 q 378 894 438 894 q 326 885 367 894 q 248 843 286 876 q 197 739 210 810 q 80 549 139 688 q 21 279 21 410 q 49 153 21 221 q 138 35 78 85 q 294 -14 197 -14 m 288 236 l 283 238 l 278 247 q 271 281 271 264 q 338 507 279 400 q 379 399 379 463 l 379 389 q 349 298 369 336 q 288 236 329 260 m 918 1 q 965 6 932 1 q 1036 33 997 11 q 1108 107 1075 56 l 1110 107 q 1121 122 1111 108 q 1140 157 1131 135 q 1149 210 1149 179 q 1119 274 1149 247 q 1053 301 1090 301 q 1001 288 1032 301 q 992 286 999 286 q 949 293 969 286 q 881 406 881 328 l 882 406 q 930 415 889 406 q 1028 453 971 425 q 1133 536 1086 482 q 1190 676 1179 590 q 1192 689 1192 681 q 1194 705 1193 697 q 1194 715 1194 713 q 1197 738 1196 729 q 1199 756 1199 746 q 1160 862 1199 819 q 1068 926 1122 904 q 965 947 1014 947 q 788 878 878 947 q 637 687 697 810 q 576 403 576 564 q 620 203 576 294 q 741 57 664 113 q 918 1 818 1 m 886 524 q 1019 694 913 649 l 1021 697 q 1036 704 1024 699 q 1054 692 1044 697 q 1057 678 1057 688 l 1050 646 l 1042 632 q 1032 615 1036 621 q 994 581 1014 594 q 969 564 988 575 q 886 524 947 550 z "},"Š":{"ha":579,"x_min":14,"x_max":558,"o":"m 274 -68 q 414 -32 354 -68 q 506 61 474 4 q 539 179 539 118 q 502 326 539 236 q 417 504 465 415 q 332 654 369 593 q 294 717 294 715 q 292 725 293 719 q 274 769 283 743 q 261 825 265 796 l 260 857 q 263 874 261 865 q 267 888 265 883 q 269 895 268 893 q 274 900 271 897 q 278 904 276 903 q 294 894 281 904 q 325 863 307 883 q 367 814 340 840 q 383 793 376 804 q 400 744 383 789 q 414 715 406 728 l 424 703 q 481 669 444 669 q 538 701 519 669 q 557 769 557 732 q 544 856 557 797 q 499 976 531 914 q 411 1081 467 1038 q 272 1125 356 1125 q 164 1094 218 1125 q 74 999 110 1063 q 38 838 38 935 q 85 633 38 736 q 194 429 133 531 q 310 201 263 314 l 306 201 q 256 215 279 201 l 285 203 q 245 219 264 211 q 203 235 226 228 q 153 242 181 242 q 106 233 139 242 q 43 199 72 225 q 14 119 14 174 q 44 28 14 65 q 119 -29 75 -8 q 206 -59 163 -50 q 274 -68 249 -68 m 292 1167 q 378 1205 333 1167 q 457 1281 422 1243 l 496 1321 q 543 1371 528 1351 q 558 1411 558 1390 q 510 1458 558 1456 q 469 1448 489 1458 q 432 1425 450 1438 q 351 1374 394 1399 q 306 1342 331 1361 l 293 1358 q 238 1431 261 1407 q 178 1456 214 1456 q 116 1429 139 1456 q 93 1372 93 1403 q 108 1322 93 1346 q 158 1260 124 1299 l 178 1236 q 292 1167 233 1167 z "},"š":{"ha":532,"x_min":28,"x_max":549,"o":"m 264 0 q 398 36 344 0 q 478 123 451 72 q 504 221 504 174 q 478 319 504 276 q 424 397 453 363 q 367 465 394 432 q 322 528 364 465 l 317 538 q 290 650 290 613 q 296 686 290 669 q 319 704 301 703 q 372 693 339 704 q 429 672 397 672 q 479 691 450 672 q 508 760 508 710 l 507 771 q 508 789 508 779 q 507 808 508 801 q 503 822 506 815 q 499 835 500 829 q 413 932 476 901 q 303 963 350 963 q 108 869 188 963 q 28 658 28 775 q 47 540 28 589 q 88 460 67 490 q 119 419 110 429 l 122 415 q 213 303 169 350 l 257 249 l 238 253 q 168 263 204 263 q 81 234 122 263 q 40 146 40 206 q 75 63 40 94 q 161 15 110 31 q 264 0 213 0 m 282 1013 q 368 1051 324 1013 q 447 1126 413 1089 l 486 1167 q 533 1217 518 1197 q 549 1257 549 1236 q 500 1304 549 1301 q 460 1294 479 1304 q 422 1271 440 1283 q 342 1219 385 1244 q 296 1188 321 1207 l 283 1204 q 228 1277 251 1253 q 168 1301 204 1301 q 106 1275 129 1301 q 83 1218 83 1249 q 99 1168 83 1192 q 149 1106 114 1144 l 168 1082 q 282 1013 224 1013 z "},"Ž":{"ha":617,"x_min":-54,"x_max":697,"o":"m 415 -42 q 498 -29 465 -42 q 549 2 531 -17 q 575 39 567 21 q 585 70 583 57 q 586 85 586 83 q 557 171 586 143 q 492 208 528 199 q 438 217 457 217 q 385 213 418 217 q 254 204 353 210 l 406 483 q 527 708 482 624 q 594 839 572 792 q 623 913 617 886 q 629 967 629 940 q 593 1080 629 1042 q 514 1131 557 1118 q 447 1144 471 1144 q 288 1125 379 1140 q 196 1091 229 1114 q 163 1021 163 1068 q 173 978 163 1001 q 210 940 183 956 q 282 924 236 924 q 332 928 300 924 l 396 933 q 140 464 275 697 q 2 213 58 317 q -54 82 -54 108 q -35 15 -54 40 q 12 -22 -15 -10 q 58 -33 39 -33 q 94 -26 78 -33 q 192 -34 122 -31 q 331 -40 263 -37 q 415 -42 400 -42 m 431 1185 q 517 1223 472 1185 q 596 1299 561 1261 l 635 1339 q 682 1389 667 1369 q 697 1429 697 1408 q 649 1476 697 1474 q 608 1466 628 1476 q 571 1443 589 1456 q 490 1392 533 1417 q 444 1360 469 1379 l 432 1376 q 376 1449 400 1425 q 317 1474 353 1474 q 255 1447 278 1474 q 232 1390 232 1421 q 247 1340 232 1364 q 297 1278 263 1317 l 317 1254 q 431 1185 372 1185 z "},"ž":{"ha":544,"x_min":18,"x_max":556,"o":"m 221 -10 l 251 -8 q 407 3 342 -6 q 528 57 493 11 q 556 128 556 92 q 542 189 556 160 q 497 238 528 218 q 413 257 465 257 q 379 254 397 257 l 301 240 q 433 568 407 494 q 458 669 458 635 q 418 798 458 749 q 320 870 378 847 q 208 893 263 893 q 104 878 156 893 q 18 785 18 853 q 153 696 18 696 l 194 696 q 208 692 199 696 q 226 684 217 689 q 240 674 236 679 q 197 568 235 654 q 57 231 82 297 q 29 121 29 158 q 85 29 29 56 q 221 -10 133 -10 m 244 922 q 331 960 286 922 q 410 1036 375 999 l 449 1076 q 496 1126 481 1107 q 511 1167 511 1146 q 463 1214 511 1211 q 422 1203 442 1214 q 385 1181 403 1193 q 304 1129 347 1154 q 258 1097 283 1117 l 246 1114 q 190 1187 214 1163 q 131 1211 167 1211 q 69 1185 92 1211 q 46 1128 46 1158 q 61 1078 46 1101 q 111 1015 76 1054 l 131 992 q 244 922 186 922 z "}}}
